<?xml version="1.0" standalone="no"?>
<!DOCTYPE svg PUBLIC "-//W3C//DTD SVG 1.1//EN" "http://www.w3.org/Graphics/SVG/1.1/DTD/svg11.dtd" >
<svg xmlns="http://www.w3.org/2000/svg">
<metadata></metadata>
<defs>
<font id="pf_regal_swash_probold" horiz-adv-x="1095" >
<font-face units-per-em="2048" ascent="1536" descent="-512" />
<missing-glyph horiz-adv-x="491" />
<glyph horiz-adv-x="0" />
<glyph horiz-adv-x="682" />
<glyph unicode=" "  horiz-adv-x="491" />
<glyph unicode="&#x09;" horiz-adv-x="491" />
<glyph unicode="&#xa0;" horiz-adv-x="491" />
<glyph unicode="!" horiz-adv-x="608" d="M104 96q0 70 49.5 122t114.5 52q50 0 81.5 -32.5t31.5 -83.5q0 -71 -49 -124t-117 -53q-47 0 -79 34t-32 85zM285 375l2 862q-7 84 40.5 149.5t145.5 65.5q48 0 79.5 -20t42 -53t9 -71t-15.5 -77l-293 -856h-10z" />
<glyph unicode="&#x22;" horiz-adv-x="659" d="M246 1290q0 168 123 168q44 0 66 -23t22 -59q0 -26 -13 -55l-172 -442h-10q-1 63 -8.5 201t-7.5 210zM514 1309q0 38 10 69.5t39 55.5t74 24q43 0 64.5 -23t21.5 -59q0 -28 -12 -55l-170 -442h-11l-14 411q0 3 -1 9.5t-1 9.5z" />
<glyph unicode="#" d="M98 465l11 45h204l119 350h-209l6 45h217l125 373h45l-127 -373h324l125 373h45l-125 -373h203l-6 -45h-211l-119 -350h215l-10 -45h-219l-138 -406h-41l134 406h-322l-137 -406h-43l135 406h-201zM358 510h324l117 350h-324z" />
<glyph unicode="$" horiz-adv-x="1107" d="M51 225q0 77 40 118.5t93 41.5q68 0 105 -48.5t37 -119.5q0 -54 -21.5 -107.5t-58.5 -84.5q61 -26 143 -29l113 620q-65 42 -105 72t-86.5 76t-69 98t-22.5 111q0 88 37 159.5t99 117.5t134.5 74t151.5 38l25 141h14l-307 -1667h-13l27 150q-158 9 -247 76.5t-89 162.5z M459 1108q0 -84 104 -166l74 399q-74 -19 -126 -80t-52 -153zM492 -164l305 1667h12l-27 -143q144 -17 222.5 -80.5t78.5 -151.5q0 -65 -39 -104t-90 -39q-67 0 -99 41.5t-32 106.5q0 52 19 104.5t49 85.5q-53 19 -111 25l-90 -496q50 -30 80.5 -50.5t75.5 -53.5t72.5 -63 t54.5 -69t40 -83.5t13 -94.5q0 -97 -40 -178t-109 -136.5t-157.5 -90t-189.5 -45.5l-26 -152h-12zM535 10q103 19 172 99t69 188q0 64 -41.5 125t-105.5 106z" />
<glyph unicode="%" horiz-adv-x="1665" d="M164 897q0 64 15.5 133.5t49 139.5t81 125t117.5 89.5t151 34.5q73 0 126.5 -23.5t84 -66t45 -93.5t14.5 -112q0 -55 -14 -121t-47 -138t-79 -130.5t-118.5 -96.5t-157.5 -38q-71 0 -124.5 23.5t-84 65.5t-45 94t-14.5 114zM340 -80l995 1555h15l-992 -1555h-18zM348 762 q0 -152 88 -152q57 0 112 109.5t86.5 259.5t31.5 278q0 154 -91 154q-58 0 -112.5 -116t-84.5 -266t-30 -267zM872 283q0 64 15.5 133.5t49 139.5t81 125t117.5 89.5t151 34.5q73 0 126.5 -23.5t84 -66t45 -93.5t14.5 -112q0 -46 -10.5 -99.5t-30.5 -113.5t-54.5 -114.5 t-78.5 -99t-106.5 -71t-134.5 -26.5q-139 0 -204 83t-65 214zM1057 147q0 -151 88 -151q57 0 112 109.5t86 259.5t31 278q0 154 -90 154q-58 0 -112.5 -116t-84.5 -266.5t-30 -267.5z" />
<glyph unicode="&#x26;" horiz-adv-x="1564" d="M68 319q0 67 19 134.5t67 138t120.5 126t189 93t261.5 43.5q-12 1 -43.5 4.5t-49.5 6t-34 7.5q-84 9 -144.5 33t-91 58t-44 68t-13.5 71q0 155 148 252.5t383 97.5q160 0 255 -60.5t95 -154.5q0 -59 -42 -96t-89 -37q-61 0 -92 39.5t-31 99.5q0 44 18 95.5t47 80.5 q-49 17 -92 17q-122 0 -212.5 -95.5t-90.5 -242.5q0 -69 22.5 -118t60 -73.5t75.5 -35t80 -11.5l-4 -12q-85 -5 -165 -48t-144.5 -117t-104 -186t-39.5 -243q0 -67 16 -122.5t50.5 -101.5t95 -72t141.5 -26q123 0 233.5 39t189 102t136.5 142t86.5 160t28.5 155 q0 123 -74 200t-192 77q-151 0 -246.5 -74t-95.5 -180q0 -76 57.5 -131.5t163.5 -56.5q-8 28 -8 49q0 57 28 99t82 42q31 0 50.5 -19.5t19.5 -48.5q0 -63 -51 -97t-117 -34q-112 0 -174 57.5t-62 149.5q0 102 48 173t124.5 107t168.5 58t184.5 36t169 31.5t124.5 53t48 92.5 q0 52 -43 77.5t-103 25.5q-20 0 -49 -5q33 -36 33 -86q0 -42 -28 -73t-77 -31q-30 0 -48.5 19.5t-18.5 48.5q0 67 57.5 101t132.5 34q80 0 126 -40.5t46 -105.5q0 -97 -108.5 -174t-278.5 -92q64 -46 93.5 -117.5t29.5 -144.5q0 -83 -29 -170t-89.5 -170t-144.5 -148.5 t-203 -105t-255 -39.5q-152 0 -266.5 31t-182.5 86.5t-101 126.5t-33 157z" />
<glyph unicode="'" horiz-adv-x="405" d="M254 1290q0 26 2 46t9 44t19.5 39.5t36 26t56.5 10.5q43 0 64.5 -21.5t21.5 -56.5q0 -30 -12 -57l-170 -442h-11q-1 63 -8.5 201t-7.5 210z" />
<glyph unicode="(" horiz-adv-x="665" d="M104 350q0 326 173.5 636.5t498.5 524.5l4 -8q-131 -117 -230 -284.5t-154.5 -353t-82 -368.5t-26.5 -364q0 -355 155 -534l-8 -9q-165 131 -247.5 335t-82.5 425z" />
<glyph unicode=")" horiz-adv-x="665" d="M-88 -401q124 104 219.5 260.5t153 337t86 371t28.5 384.5q0 379 -155 553l8 8q165 -142 247.5 -352t82.5 -440q0 -143 -42 -295.5t-122 -302.5t-209.5 -290t-292.5 -243z" />
<glyph unicode="*" horiz-adv-x="786" d="M258 1196q0 38 23 61t53 23q26 0 37 -14l110 -121l-6 -8l-170 2q-47 0 -47 57zM270 938q0 41 41 68l166 106l10 -6l-86 -182q-24 -52 -69 -52q-27 0 -44.5 19.5t-17.5 46.5zM498 1369v1q0 36 22.5 55t59.5 19q25 0 40 -13.5t17 -33.5q0 -22 -8 -35l-103 -184h-8 q-16 164 -20 191zM526 1104l4 6l123 -109q15 -12 15 -36q0 -26 -23 -55t-59 -29q-23 0 -36 13.5t-15 35.5zM549 1143l2 8l160 119q17 10 32 10q21 0 38.5 -19.5t17.5 -48.5q0 -39 -20.5 -58t-55.5 -17z" />
<glyph unicode="+" d="M180 575l13 68h366q12 65 34.5 196t35.5 197h63q-12 -66 -34 -197t-35 -196h358l-12 -68h-359l-71 -405h-64l72 405h-367z" />
<glyph unicode="," horiz-adv-x="466" d="M-6 -365q96 80 174.5 196.5t105.5 211.5q-52 -57 -129 -57q-55 0 -84.5 33t-29.5 90q0 72 46 122t111 50q60 0 90.5 -40t30.5 -102q0 -106 -94.5 -264t-214.5 -252z" />
<glyph unicode="-" horiz-adv-x="606" d="M63 465l15 80h479q-8 -35 -14 -80h-480z" />
<glyph unicode="." horiz-adv-x="442" d="M31 102q0 72 50.5 125.5t113.5 53.5q51 0 81.5 -33t30.5 -86q0 -71 -48.5 -124.5t-115.5 -53.5q-50 0 -81 33t-31 85z" />
<glyph unicode="/" horiz-adv-x="546" d="M-66 -119l787 1608h22l-786 -1608h-23z" />
<glyph unicode="0" d="M82 459q0 119 25 243t77 242t124 210.5t175.5 149t221.5 56.5q103 0 178.5 -39t118 -108t62 -152t19.5 -182q0 -70 -11 -149.5t-35 -167.5t-59 -171.5t-87 -160t-113.5 -133.5t-143 -90.5t-173.5 -33.5q-81 0 -146 26t-108 70t-71.5 106.5t-41 132.5t-12.5 151zM338 221 q0 -235 123 -235q80 0 152 125.5t118 307t73 371.5t27 332q0 114 -29.5 170t-96.5 56q-63 0 -122.5 -85t-102.5 -216.5t-76 -285t-49.5 -296t-16.5 -244.5z" />
<glyph unicode="1" d="M111 0v4q1 6 24.5 8t58 7t70 17.5t65 46.5t38.5 85l184 1053q-96 -39 -229 -66q0 2 1 6t1 6q144 28 283 85t241 137q-111 -648 -213 -1225q-2 -12 -2 -31q0 -30 11.5 -51.5t29.5 -33.5t40 -19.5t44 -10t40 -4t29 -4t11 -6.5v-4h-727z" />
<glyph unicode="2" d="M-88 6q68 88 154 175t158.5 151.5t148.5 134.5t134 137t105 143.5t72 171.5t25 205q0 31 -9.5 67.5t-29 74.5t-56 63t-84.5 25q-44 0 -98 -17t-94 -45q41 -25 64.5 -71t23.5 -95q0 -66 -39 -113.5t-106 -47.5q-51 0 -81 32t-30 78q0 118 127 209.5t307 91.5 q104 0 182 -25t121.5 -68t64.5 -94.5t21 -111.5q0 -89 -47.5 -174.5t-121.5 -152.5t-173.5 -139.5t-192.5 -131t-189.5 -132t-155.5 -138.5h374q55 0 88.5 1t74 4t65 9t54.5 17t51 27t45 39t45.5 52.5t45.5 69.5q22 39 31 39h6l-205 -502q-229 35 -872 35z" />
<glyph unicode="3" d="M16 231q0 58 25 107t66.5 81.5t91.5 53t104 27.5q0 -2 1 -5.5t1 -5.5q-38 -58 -53.5 -142.5t-15.5 -149.5q0 -211 151 -211q88 0 156 73t101.5 180.5t33.5 223.5q0 125 -65.5 191.5t-186.5 66.5q-28 0 -98 -8l-2 10q97 10 173 44t121 79.5t74.5 102.5t40 108.5 t10.5 103.5q0 88 -44.5 141.5t-129.5 53.5q-83 0 -143 -37q35 -24 53.5 -62.5t18.5 -80.5q0 -73 -38.5 -119.5t-107.5 -46.5q-52 0 -80 30.5t-28 75.5q0 107 111.5 183.5t295.5 76.5q101 0 177.5 -22.5t118 -60.5t61.5 -81t20 -90q0 -45 -15.5 -91.5t-51.5 -93.5t-88 -85.5 t-132 -68t-176 -40.5l2 -4q85 -5 154 -24t125 -53.5t86.5 -91t30.5 -130.5q0 -133 -76 -240t-203 -166t-278 -59q-191 0 -291.5 70.5t-100.5 185.5z" />
<glyph unicode="4" horiz-adv-x="1107" d="M12 385q0 2 1 5.5t1 4.5q359 384 721 953h330q-189 -258 -469 -507t-569 -446h581l60 332q172 27 286 150h9l-84 -482h172q0 -1 -1 -4.5t-1 -5.5h-172l-39 -221q-4 -24 -4 -33q0 -49 30.5 -76.5t67 -32.5t67 -8.5t29.5 -9.5v-4h-688v4q0 6 21 8t51.5 7t62.5 17.5 t58.5 46.5t35.5 85l37 217h-594z" />
<glyph unicode="5" d="M27 227q0 55 25.5 104t66 81.5t88.5 53.5t96 26q0 -1 1 -5t1 -6q-34 -59 -54 -151.5t-20 -165.5q0 -178 162 -178q61 0 111 33.5t82.5 87t55.5 121t32.5 133t9.5 126.5q0 130 -59 201.5t-164 71.5q-99 0 -209 -58l-8 5q35 120 103.5 340.5t86.5 279.5h461q79 0 123 17.5 t80 60.5q9 12 24.5 36t26.5 39t16 15h6q-11 -29 -67.5 -176.5t-85.5 -226.5q-142 26 -639 26l-125 -407q79 49 174.5 76.5t173.5 27.5q171 0 269 -92t98 -248q0 -95 -39 -184t-110 -159.5t-181 -113.5t-240 -43q-170 0 -271 70.5t-101 181.5z" />
<glyph unicode="6" d="M57 344q0 147 52.5 286.5t143.5 254t213.5 211.5t263.5 167t292 113q0 -1 1 -4.5t1 -5.5q-170 -55 -306 -178t-220 -284.5t-128 -345.5t-44 -374q0 -104 34.5 -151t104.5 -47q65 0 119.5 61t87.5 152.5t51 189.5t18 182q0 40 -8.5 78.5t-25.5 73.5t-48 56.5t-71 21.5 q-22 0 -60 -10l-2 10q82 35 181 35q142 0 226.5 -87.5t84.5 -240.5q0 -98 -40 -193t-110.5 -171t-178.5 -122.5t-234 -46.5q-203 0 -300.5 100.5t-97.5 268.5z" />
<glyph unicode="7" d="M137 0q361 549 895 1139h-471q-119 0 -184.5 -35.5t-128.5 -134.5q-23 -36 -32 -40q-3 -1 -7 -1h-4l188 450q371 -27 785 -30q0 -1 1 -3.5t1 -3.5q-198 -290 -359.5 -600t-345.5 -741h-338z" />
<glyph unicode="8" d="M53 258q0 141 102.5 259t264.5 157q-84 70 -132 141.5t-48 157.5q0 92 40 169.5t106.5 128t152 78t178.5 27.5q152 0 250 -68t98 -192q0 -113 -79.5 -210.5t-227.5 -133.5q55 -41 92 -74t76 -78t58.5 -97t19.5 -109q0 -195 -157 -318t-392 -123q-108 0 -196.5 28.5 t-147 95t-58.5 161.5zM244 238q0 -112 56.5 -182t174.5 -70q63 0 114.5 25t83.5 66.5t49 92t17 102.5q0 36 -9 69t-29 64.5t-39.5 56.5t-53 55t-56.5 49t-63 51t-61 49q-57 -41 -96.5 -104t-57 -128.5t-24 -112.5t-6.5 -83zM469 1104q0 -46 18.5 -87t66.5 -85.5t76 -66.5 t100 -72q12 -9 18 -13q47 40 77 124t37.5 144t7.5 101q0 100 -42 158.5t-126 58.5q-91 0 -162 -69.5t-71 -192.5z" />
<glyph unicode="9" d="M121 -14q137 44 252.5 133t196.5 205t138 256t84 288t27 299q0 104 -34.5 151.5t-104.5 47.5q-65 0 -119.5 -61t-87.5 -153t-51.5 -190t-18.5 -182q0 -88 38.5 -158.5t115.5 -70.5q21 0 59 10l2 -10q-82 -35 -180 -35q-142 0 -226.5 87.5t-84.5 240.5q0 98 40 193 t110.5 170.5t178.5 122t234 46.5q203 0 300 -100t97 -268q0 -182 -80 -352t-215 -301t-307 -228.5t-362 -151.5q0 1 -1 5t-1 6z" />
<glyph unicode=":" horiz-adv-x="442" d="M31 102q0 72 51.5 125.5t114.5 53.5q49 0 80.5 -33t31.5 -86q0 -71 -50 -124.5t-116 -53.5q-49 0 -80.5 33.5t-31.5 84.5zM127 674q0 72 51 126t115 54q49 0 79.5 -34t30.5 -87q0 -70 -50 -124t-113 -54q-50 0 -81.5 33.5t-31.5 85.5z" />
<glyph unicode=";" horiz-adv-x="442" d="M-12 -365q97 80 175.5 196.5t104.5 211.5q-52 -57 -127 -57q-56 0 -86 31t-30 87q0 71 46 124t113 53q60 0 90.5 -40t30.5 -102q0 -106 -94.5 -264t-214.5 -252zM127 674q0 72 51 126t115 54q49 0 79.5 -34t30.5 -87q0 -71 -48.5 -124.5t-114.5 -53.5q-50 0 -81.5 33.5 t-31.5 85.5z" />
<glyph unicode="&#x3c;" d="M125 578l6 45q179 82 961 446q-4 -29 -15 -82l-848 -387l711 -391l-14 -80q-42 24 -342 193t-459 256z" />
<glyph unicode="=" d="M152 391l10 68h784l-10 -68h-784zM211 735l12 70h785l-13 -70h-784z" />
<glyph unicode="&#x3e;" d="M45 129l12 82q160 72 450.5 205.5t399.5 183.5l-710 391q7 45 14 78q594 -332 801 -446l-6 -45q-188 -86 -536.5 -249.5t-424.5 -199.5z" />
<glyph unicode="?" horiz-adv-x="1019" d="M221 608q0 51 30.5 104t79.5 99.5t108 94t118.5 94.5t108.5 93.5t79.5 99t30.5 103.5q0 127 -158 127q-70 0 -126 -18q34 -55 34 -137q0 -77 -41 -132t-118 -55q-46 0 -76.5 28t-30.5 81q0 108 109.5 178t304.5 70q364 0 364 -258q-5 -61 -42.5 -123t-92.5 -114.5 t-120.5 -103t-130 -97t-117.5 -90t-86 -88t-33 -83.5q0 -72 98 -110l-6 -9q-137 23 -212 89t-75 157zM260 88q0 70 49 122t113 52q49 0 81 -34t32 -85q0 -70 -48.5 -122t-115.5 -52q-49 0 -80 33t-31 86z" />
<glyph unicode="@" horiz-adv-x="1904" d="M119 377q0 148 38 290t105.5 263t164 223.5t211 174.5t249.5 112.5t276 40.5q142 0 260.5 -38.5t205 -111t135 -182.5t48.5 -246q0 -140 -44 -269t-119.5 -225.5t-183.5 -154t-230 -57.5q-172 0 -172 118q0 32 22 154t39 190h-2q-87 -243 -178 -350.5t-190 -107.5 q-102 0 -165 66t-63 208q0 82 18 162.5t55 153.5t88.5 129t123.5 89t154 33q147 0 229 -88q134 12 227 105h11q-78 -289 -162 -838q94 7 178 49.5t146 110t107 152t68 177.5t23 185q0 178 -80.5 306.5t-222 193.5t-328.5 65q-204 0 -393 -86.5t-326.5 -231.5t-220 -345 t-82.5 -416q0 -202 76 -357t220 -241t337 -86q163 0 281 39l2 -21q-123 -41 -293 -41q-193 0 -339.5 89t-225 248.5t-78.5 365.5zM762 440q0 -182 82 -182q45 0 103 75.5t112 201.5t88 268l35 143q-70 70 -138 70q-72 0 -139 -96t-105 -229t-38 -251z" />
<glyph unicode="A" horiz-adv-x="2543" d="M31 248q0 128 76 240t209.5 179.5t291.5 67.5q50 0 99.5 -14.5t88 -49t38.5 -81.5q0 -49 -36.5 -82t-90.5 -33q-69 0 -114.5 48t-45.5 128q0 43 10 72q-83 -4 -149 -51t-105 -119t-59.5 -153t-20.5 -162q0 -160 73.5 -250t219.5 -90q115 0 240.5 47t243.5 124.5t245 192 t237.5 233.5t228.5 266t211 273.5t192 270.5q92 12 178 53.5t137 101.5l6 -2l-199 -1235q-6 -38 -6 -65q1 -50 20.5 -81.5t47.5 -42.5t56 -15.5t47.5 -7t19.5 -9.5v-2h-719v2q0 7 15 10t37.5 4t50.5 12t54 30.5t48 62t32 102.5l50 303h-463q-585 -647 -1022 -647 q-75 0 -141.5 11t-128.5 38t-106 68.5t-70.5 105.5t-26.5 146zM1534 537h457l118 745q-306 -446 -575 -745z" />
<glyph unicode="B" horiz-adv-x="1771" d="M-6 737q0 93 50.5 189t147.5 181.5t224.5 153t294 107t344.5 39.5q115 0 212.5 -10t184.5 -34t147 -60.5t95 -92.5t35 -127q0 -57 -29.5 -111.5t-87.5 -101.5t-155.5 -78t-221.5 -36q129 -6 228.5 -38t156.5 -82t85 -106.5t28 -117.5q0 -62 -21.5 -119.5t-73 -111.5 t-129 -93.5t-197.5 -63.5t-270 -24h-688v2q0 7 15 10t38.5 5t53 16.5t57 39.5t52.5 79.5t38 130.5l187 1083q-110 -14 -222 -51t-217 -96t-190.5 -146t-130.5 -190q55 -4 98 -25t66.5 -50t35 -58.5t11.5 -57.5q0 -55 -36 -90t-85 -35q-56 0 -93.5 44.5t-37.5 125.5zM879 106 q0 -47 25 -72.5t87 -25.5h58q161 0 265.5 131t104.5 334q0 127 -85 198.5t-210 76.5v8q124 2 216 106t92 248q0 273 -338 276l-211 -1230q-4 -36 -4 -50z" />
<glyph unicode="C" horiz-adv-x="1492" d="M104 346q0 156 42 309t124.5 288t196 238.5t267 163.5t325.5 60q62 0 139 -14q76 -13 117 -21q12 -2 24 -3q31 0 65 14q48 19 85 77l4 -2l-72 -569h-2q-2 0 -3.5 2.5t-2.5 8.5t-2 13.5t-2.5 21.5t-3.5 28q-10 70 -23.5 127.5t-39.5 116.5t-61 99t-89.5 65.5t-122.5 25.5 q-138 0 -262 -106.5t-207 -274t-131.5 -372t-48.5 -402.5q0 -79 8 -142.5t30.5 -128t59.5 -108t99.5 -70.5t146.5 -27q157 0 298 80.5t226.5 217.5t85.5 292q0 148 -82 247t-239 99q-103 0 -184 -58t-103 -140q29 10 78 10q69 0 118.5 -34t49.5 -101q0 -44 -32.5 -78.5 t-86.5 -34.5q-66 0 -105.5 48t-39.5 124q0 115 91 195t218 80q150 0 238.5 -98t88.5 -257q0 -118 -51 -229.5t-137 -194.5t-206.5 -133.5t-252.5 -50.5q-139 0 -248.5 32t-181 86.5t-118 131.5t-66 163t-19.5 185z" />
<glyph unicode="D" horiz-adv-x="1933" d="M-6 739q0 94 49 190t142.5 181.5t218.5 152.5t289.5 106.5t342.5 39.5q73 0 139.5 -4t156 -19.5t163 -40.5t149 -71t127.5 -108t84.5 -154.5t32.5 -206.5q0 -107 -35.5 -218t-110 -216.5t-177 -188t-248 -132.5t-311.5 -50h-623v2q0 7 15 10t38.5 4t52.5 12t55.5 30.5 t49.5 62t33 102.5l133 783q6 30 6 51q0 42 -26.5 65t-58.5 26t-58.5 5t-26.5 8v4l496 70l4 -4l-183 -1067q-6 -42 -6 -62q0 -41 24 -67.5t81 -26.5h22q97 0 184 57.5t149.5 151t108.5 211t68.5 240t22.5 235.5q0 114 -32 201.5t-84 141.5t-126 88.5t-150.5 47.5t-164.5 13 q-153 0 -306.5 -35.5t-286 -100t-235 -162.5t-149.5 -214q55 -4 97.5 -23t65 -47t33.5 -56.5t11 -56.5q0 -55 -36 -91t-85 -36q-55 0 -90 43t-35 123z" />
<glyph unicode="E" horiz-adv-x="1363" d="M68 262q0 65 22.5 133t75.5 138t130.5 126t198 95.5t267.5 48.5l-4 6q-393 34 -393 252q0 146 151.5 246t396.5 100q172 0 263.5 -62.5t91.5 -154.5q0 -62 -37.5 -97.5t-87.5 -35.5q-63 0 -95 42.5t-32 98.5q0 50 17.5 97t49.5 77q-47 23 -129 23q-136 0 -218.5 -103 t-82.5 -258q0 -213 254 -225q0 -1 -1 -4.5t-1 -5.5q-98 -2 -193 -46.5t-170.5 -122t-122 -195.5t-46.5 -255q0 -142 84.5 -225.5t236.5 -83.5q130 0 243.5 41.5t190.5 110.5t121.5 158.5t44.5 185.5q0 111 -72 181t-202 70q-60 0 -122.5 -21.5t-109.5 -64.5 q74 -13 114 -61.5t40 -108.5q0 -46 -31 -82t-82 -36q-56 0 -87 37t-31 92q0 80 47.5 140t116.5 88t145 28q140 0 213.5 -73.5t73.5 -186.5q0 -96 -43.5 -187t-123 -164.5t-203 -118t-271.5 -44.5q-153 0 -270 31.5t-187.5 87.5t-105.5 128.5t-35 159.5z" />
<glyph unicode="F" horiz-adv-x="1755" d="M-6 602q0 164 79.5 323t211 278.5t313 193t373.5 73.5q109 0 236.5 -32t241 -63.5t189.5 -31.5q91 0 183 52l4 -11q-125 -60 -169 -90q-121 -83 -188 -239q-47 -112 -77 -275q-20 -102 -39 -217h84q105 0 163 54t87 149q22 73 26 79q4 4 8 3l-104 -592q-5 -2 -7.5 2.5 t-2.5 15.5q0 13 2 43t2 45q0 33 -3 58t-13 51.5t-28 43t-50 27.5t-76 11h-90q-23 -130 -47 -233t-58.5 -212t-74.5 -191t-96 -156.5t-122 -122t-153 -75.5t-189 -28q-93 0 -154 44t-61 116q0 63 41 100t99 37q68 0 111.5 -66t43.5 -165q0 -18 -4 -54q50 8 88.5 30.5 t64.5 53.5t47 80t33.5 98t26.5 119l123 625h-209q0 1 1 5t1 5h211q54 267 188 448t381 298q0 1 -1 3t-1 3q-175 -84 -360 -84q-84 0 -277 47t-305 47q-131 0 -257 -56.5t-222 -152.5t-154.5 -233t-58.5 -287q0 -201 94 -331.5t256 -137.5q0 5 -1 15.5t-1 15.5q0 111 50 171 t116 60q53 0 84 -30.5t31 -77.5q0 -71 -65.5 -119.5t-182.5 -48.5q-185 0 -289 131.5t-104 357.5z" />
<glyph unicode="G" horiz-adv-x="1474" d="M109 537q0 192 64.5 355.5t174.5 274.5t259 173.5t315 62.5q83 0 176.5 -17.5t128.5 -17.5q48 0 85 19.5t70 70.5h7l-74 -559q-7 -1 -9 9q-2 5 -8 71q-7 67 -18.5 121.5t-36 110.5t-59.5 94t-90.5 62t-126.5 24q-124 0 -227.5 -93.5t-172 -247t-106.5 -354.5 q-35 -181 -35 -329q0 -162 55 -244q47 -135 189 -135q206 0 317 245q36 82 59.5 129t60.5 103.5t72.5 86t87.5 49.5t115 20q38 0 84 -9l-4 -8q-24 4 -35 4q-26 0 -45.5 -11.5t-31 -27.5t-22 -48t-15.5 -56.5t-14 -71t-15 -74.5q-16 -100 -36 -184t-51 -171.5t-69.5 -156.5 t-93.5 -131t-121.5 -103t-154 -65t-189.5 -24q-160 0 -241.5 49t-81.5 141q0 50 35.5 88.5t95.5 38.5q82 0 129 -57.5t47 -151.5q0 -31 -14 -96q14 -2 36 -2q65 0 119 22.5t92.5 54.5t71.5 91t52.5 106.5t39.5 128t29.5 129t24.5 134.5q-160 -185 -363 -185 q-173 0 -294.5 73t-179.5 197.5t-58 291.5z" />
<glyph unicode="H" horiz-adv-x="1589" d="M-270 -281q0 59 40 95t97 36q66 0 111 -53t45 -143q0 -34 -9 -64q65 14 103 62t59 155q49 244 91 468t50 266q41 205 96.5 336t132 217.5t206.5 177.5v6q-93 -60 -175.5 -87.5t-175.5 -27.5q-135 0 -266 51q-27 -81 -49 -198h-10q8 42 12 60.5t14.5 64t19 70t22 63 t28.5 60.5t34 45t42 33.5t49 10.5q52 0 111.5 -20t104.5 -43.5t100 -43.5t100 -20q41 0 74.5 13t91.5 47l4 -8q-36 -17 -63 -39.5t-47.5 -45.5t-36.5 -60t-26.5 -69t-21.5 -87t-18 -100t-18 -122q-10 -66 -15 -102h469l16 100q24 150 70.5 272.5t116 217t168.5 146.5t219 52 q88 0 144 -37.5t56 -105.5q0 -59 -39.5 -94t-97.5 -35q-68 0 -110.5 56.5t-42.5 144.5q0 15 4 51q-28 -6 -50 -27t-44.5 -79t-38.5 -154l-162 -1008q-5 -29 -5 -49q0 -9 1 -16q1 -50 21.5 -81.5t49.5 -42.5t57 -15.5t48 -7t20 -9.5v-2h-712v2q0 7 14.5 10t37 4t50.5 12 t53.5 30.5t47 62t30.5 102.5l76 490h-469q-52 -320 -105 -509.5t-115.5 -297t-160.5 -191.5q-172 -147 -332 -147q-80 0 -136 44t-56 107z" />
<glyph unicode="I" horiz-adv-x="841" d="M-12 0v2q0 7 14.5 10t36.5 4t50 12.5t53.5 30.5t48.5 61.5t34 102.5l172 965q4 32 4 43q0 39 -14 66t-34.5 39t-44.5 19.5t-44.5 8.5t-34.5 4t-14 8v4h709v-4q0 -5 -20 -7.5t-50 -9t-61.5 -21t-59 -53.5t-37.5 -97l-172 -965q-6 -37 -6 -65q0 -50 21 -81.5t51 -42.5 t59.5 -15.5t50.5 -7t21 -9.5v-2h-733z" />
<glyph unicode="J" horiz-adv-x="890" d="M-182 -270q0 62 42.5 100.5t100.5 38.5q66 0 113 -57t47 -154q0 -30 -10 -68q62 15 95 55t54 130q39 172 94.5 481.5t87.5 427.5h-202q0 1 1 4.5t1 5.5h202q51 203 145 342t259 252q0 1 -1 2t-1 2q-92 -62 -191.5 -94.5t-187.5 -32.5q-168 0 -328 56q-22 -61 -49 -201 q-1 0 -4 1t-4 1q8 48 13.5 75.5t17.5 76.5t24 79t32 67.5t43 58.5t55.5 36t70.5 15q51 0 115.5 -19.5t116.5 -43t114.5 -43t110.5 -19.5q67 0 184 92l6 -8q-51 -39 -82.5 -74t-55 -73.5t-40.5 -102.5t-29 -130.5t-30 -189.5l-19 -125h197q-1 -2 -2 -5.5t-2 -4.5h-195 q-51 -299 -110 -495.5t-122 -300t-149 -173.5q-157 -147 -332 -147q-84 0 -140 46t-56 116z" />
<glyph unicode="K" horiz-adv-x="1374" d="M-45 0v2q0 7 14.5 10t37 4t50 12.5t53.5 30.5t49 61.5t34 102.5l172 965q4 32 4 43q0 46 -19.5 75.5t-46.5 40t-54.5 14.5t-47 6.5t-19.5 8.5v4h709v-4q0 -5 -20 -7.5t-49.5 -9t-61 -21t-59 -53.5t-37.5 -97l-86 -486h100l467 431q98 91 98 157q0 31 -24.5 48.5 t-54.5 21.5t-54.5 7.5t-24.5 8.5v4h519v-4q0 -5 -18 -7t-57.5 -11.5t-90.5 -30.5t-130.5 -75t-164.5 -134l-273 -252q50 -150 107 -287.5t128.5 -274.5t148.5 -252t170 -215t191.5 -169.5t214 -109t236.5 -39.5q118 0 240 49q-72 78 -72 170q0 56 42.5 110t99.5 54 q51 0 83.5 -33t32.5 -84q0 -41 -16.5 -79.5t-58 -77.5t-105 -67.5t-166 -46.5t-231.5 -18q-140 0 -272 35.5t-243 99t-211.5 152.5t-181.5 193t-149.5 223.5t-118.5 242t-86 250.5h-78l-83 -469q-7 -44 -7 -65q0 -50 21 -81.5t50.5 -42.5t59.5 -15.5t51 -7t21 -9.5v-2h-733z " />
<glyph unicode="L" horiz-adv-x="966" d="M-2 -18q111 59 189 131.5t124.5 148.5t73 177.5t35 199.5t8.5 233q0 248 144.5 392.5t375.5 144.5q160 0 251 -57.5t91 -149.5q0 -63 -38.5 -101t-82.5 -38q-65 0 -96 36.5t-31 94.5q0 47 19.5 97.5t50.5 82.5q-48 19 -111 19q-268 0 -268 -416q0 -161 -32.5 -291 t-102.5 -237.5t-169.5 -194.5t-242.5 -170l2 -6q168 86 301 86q76 0 149 -28t131 -73.5t116.5 -103.5t106.5 -118.5t99.5 -118.5t97 -103.5t98 -73.5t102.5 -28q54 0 105.5 39.5t80.5 97.5q-59 6 -101.5 26.5t-62.5 48.5t-28.5 52t-8.5 45q0 56 33.5 92.5t87.5 36.5 q52 0 90.5 -44t38.5 -116q0 -54 -25.5 -114.5t-72 -115.5t-124 -91.5t-169.5 -36.5q-74 0 -149.5 34t-142.5 88.5t-135.5 120.5t-138.5 132t-140.5 120.5t-153 88.5t-164.5 34q-78 0 -207 -82z" />
<glyph unicode="M" horiz-adv-x="2799" d="M31 109q0 88 40 170.5t108.5 144t166.5 98.5t207 37q91 0 147 -36t56 -99q0 -44 -33 -74.5t-82 -30.5q-63 0 -103 44t-40 116q0 45 8 68q-61 -3 -112.5 -31.5t-87 -72.5t-60.5 -100.5t-37 -117t-12 -121.5q0 -65 15 -121.5t46 -104t86.5 -75.5t130.5 -28 q169 0 316.5 80.5t256 219t191 326.5t131 401t66.5 445q-117 17 -209 17q-85 0 -156 -10.5t-133 -35t-97.5 -70t-35.5 -108.5q0 -51 22 -87t56 -52q7 86 50.5 135t102.5 49q41 0 67.5 -26.5t26.5 -63.5q0 -54 -40.5 -90.5t-100.5 -36.5q-87 0 -144 47.5t-57 133.5 q0 98 52 170t140.5 111.5t190.5 58t218 18.5q152 0 311 -29l225 -1020l559 1022h438v-4q0 -5 -20 -7.5t-50.5 -9t-62 -21t-58.5 -53.5t-36 -97l-135 -873q-20 -125 -20 -157q0 -50 20.5 -81.5t49.5 -42.5t58 -15.5t49.5 -7t20.5 -9.5v-2h-723v2q0 7 15 10t37.5 4t51 12 t54.5 30.5t48 62t32 102.5l164 998l-7 2l-681 -1248q-46 187 -91.5 388.5t-107 481t-86.5 390.5q-9 -139 -32.5 -280t-65.5 -287t-98.5 -277t-135.5 -247t-172.5 -200t-214.5 -133t-256 -49q-69 0 -130.5 11t-118.5 37.5t-98.5 65.5t-66 99t-24.5 134z" />
<glyph unicode="N" horiz-adv-x="2557" d="M35 109q0 88 40 170.5t109 144t166.5 98.5t206.5 37q91 0 148 -36t57 -99q0 -44 -33 -74.5t-82 -30.5q-64 0 -104.5 43.5t-40.5 116.5q0 37 8 68q-74 -4 -134.5 -45.5t-97 -106t-56 -139.5t-19.5 -152q0 -61 14 -116t44 -104.5t86.5 -79t133.5 -29.5q169 0 316.5 80.5 t256 219t191 326.5t130.5 401t65 445q-90 17 -207 17q-82 0 -153.5 -11t-135.5 -35t-101.5 -68.5t-37.5 -105.5q0 -98 84 -141q7 86 50 134t101 48q42 0 69.5 -27t27.5 -63q0 -54 -41.5 -90.5t-102.5 -36.5q-87 0 -143.5 47.5t-56.5 133.5q0 70 26.5 127t74.5 95t108 65 t134.5 41.5t146 21t149.5 6.5q154 0 292 -27q188 -765 447 -1235q53 233 107 419.5t121.5 351.5t139.5 275.5t160 174t185 63.5q69 0 120.5 -37.5t51.5 -95.5q0 -56 -35.5 -88t-93.5 -32q-59 0 -107.5 50t-48.5 126q0 22 6 43q-344 -122 -598 -1266q380 -678 887 -678 q84 0 165.5 20t137.5 56q-51 29 -77.5 76.5t-26.5 97.5q0 64 36.5 109t98.5 45q52 0 87.5 -37t35.5 -90q0 -135 -140.5 -213t-398.5 -78q-152 0 -289.5 32t-251.5 88.5t-217 142t-186 184t-158.5 224t-135 252.5t-115 279t-97.5 293t-84 305q-10 -139 -33.5 -280t-65.5 -287 t-98 -277t-135.5 -247t-172.5 -200t-214 -133t-256 -49q-65 0 -126 11t-119 37t-100.5 65t-68.5 99t-26 135z" />
<glyph unicode="O" horiz-adv-x="1513" d="M109 530q0 111 28 221t83.5 210.5t132 184.5t180.5 146.5t223 91.5l6 -12q-90 -41 -163 -154t-116 -260t-65.5 -302.5t-22.5 -301.5q0 -74 12 -136t39 -116t78 -85t121 -31q80 0 151 40t123.5 107t96 155.5t72.5 183t48.5 192.5t28.5 182t9 153q0 162 -66.5 259.5 t-187.5 97.5q-63 0 -121.5 -40.5t-99.5 -103.5t-67.5 -138.5t-31.5 -147.5q34 12 72 12q66 0 115 -35.5t49 -93.5q0 -37 -28.5 -69.5t-80.5 -32.5q-64 0 -101.5 52t-37.5 124q0 68 16.5 139t51.5 138t83 119t116 84t146 32q145 0 255 -72.5t167.5 -197t57.5 -281.5 q0 -126 -37.5 -251.5t-111 -236t-172.5 -196t-231 -135.5t-278 -50q-255 0 -398.5 146t-143.5 409z" />
<glyph unicode="P" horiz-adv-x="1751" d="M-6 750q0 95 46.5 189.5t139 178.5t218.5 149.5t297 103.5t362 38q109 0 204.5 -10.5t191.5 -38t163.5 -70.5t110 -113.5t42.5 -162.5q0 -108 -55 -196.5t-145.5 -142.5t-199.5 -83t-224 -29q-57 0 -109 6l2 11q40 -5 60 -5q110 0 193.5 66t124 170t40.5 227 q0 71 -21.5 133t-63 110.5t-109 76.5t-154.5 28l-188 -1071q-21 -131 -21 -157q0 -50 21 -81.5t51 -42.5t60.5 -15.5t51.5 -7t21 -9.5v-2h-735v2q0 7 14.5 10t37 4t50.5 12.5t53.5 30.5t48 61.5t33.5 102.5l207 1153q-118 -12 -235.5 -48.5t-224.5 -95t-192 -146.5 t-128 -193q58 -3 101.5 -23t65.5 -49t32 -56.5t10 -53.5q0 -55 -37 -91t-86 -36q-55 0 -90 43t-35 123z" />
<glyph unicode="Q" horiz-adv-x="1492" d="M109 526q0 168 59.5 326.5t162 280.5t253 196t321.5 74q139 0 247.5 -44t174.5 -121.5t99.5 -177t33.5 -216.5q0 -161 -58.5 -316t-161 -278t-256.5 -198.5t-331 -76.5q31 -45 108.5 -72.5t156.5 -27.5q37 0 67 6q150 -199 315.5 -309.5t360.5 -110.5q131 0 246 54 q-74 77 -74 172q0 69 40 113t103 44q47 0 80 -33.5t33 -82.5q0 -26 -9 -54t-30 -62.5t-62.5 -63.5t-100 -54.5t-149.5 -40t-204 -14.5q-140 0 -260.5 26.5t-214 72.5t-173 115t-138 147t-109.5 175q-134 1 -237 44.5t-166 119t-95 173t-32 214.5zM420 352q0 -179 57 -272.5 t187 -93.5q100 0 184 70t138.5 180t92 249t54 272t16.5 253q0 187 -56.5 285t-187.5 98q-94 0 -176 -74t-137 -189.5t-95 -256.5t-58.5 -275t-18.5 -246z" />
<glyph unicode="R" horiz-adv-x="1773" d="M-43 754q0 91 51.5 184t150 177t229.5 149.5t303 104t358 38.5q73 0 135 -2.5t137 -11t134 -22.5t117 -39t96.5 -58.5t62.5 -83.5t24 -111q0 -91 -45.5 -164t-116 -118t-164 -76t-181.5 -43.5t-177 -13.5q82 -158 346 -162q65 -210 164.5 -390t226 -317.5t284.5 -216 t327 -78.5q122 0 239 49q-71 74 -71 168q0 72 39.5 118t101.5 46q52 0 85.5 -33t33.5 -84q0 -41 -16.5 -79.5t-59 -76.5t-106 -66.5t-165.5 -46t-231 -17.5q-144 0 -275.5 34.5t-238 95.5t-201.5 148.5t-168.5 189t-136 222t-107 242t-79.5 254.5q-9 0 -26.5 1t-26.5 1 l-62 -351q-20 -125 -20 -157q0 -50 21 -81.5t51 -42.5t60.5 -15.5t51.5 -7t21 -9.5v-2h-736v2q0 7 14.5 10t37 4t50.5 12.5t54 30.5t48.5 61.5t33.5 102.5l203 1153q-114 -9 -236 -43.5t-239 -92t-214.5 -146.5t-148.5 -195q56 -4 98 -24.5t63.5 -49t31.5 -56.5t10 -54 q0 -54 -36.5 -89.5t-84.5 -35.5q-55 0 -90 42.5t-35 121.5zM1012 674q186 0 303 117.5t117 300.5q0 120 -70 201t-227 87z" />
<glyph unicode="S" horiz-adv-x="1495" d="M-2 6q0 84 30.5 161t87 138.5t146 98t197.5 36.5q119 0 207 -71t88 -168q0 -84 -54.5 -144.5t-132.5 -60.5q-50 0 -79 30t-29 72q0 77 54.5 122.5t131.5 45.5q42 0 88 -16q-14 69 -93.5 123.5t-176.5 54.5q-148 0 -240 -116t-92 -300q0 -219 136.5 -351t361.5 -132 q119 0 216 37t159 101t95.5 147t33.5 178q0 78 -32.5 157t-84.5 147t-115 135.5t-126 133t-115 129.5t-84.5 136t-32.5 141q0 83 33 155t87.5 122t125 86.5t146.5 53.5t150 17q191 0 303.5 -70.5t112.5 -171.5q0 -62 -38.5 -101.5t-88.5 -39.5q-71 0 -106 43.5t-35 108.5 q0 51 20 101.5t54 82.5q-30 12 -87.5 22.5t-101.5 10.5q-138 0 -215.5 -75.5t-77.5 -180.5q0 -61 33.5 -128.5t86.5 -130.5t118 -130.5t129.5 -138.5t117.5 -143.5t86.5 -157t33.5 -167.5q0 -130 -57 -244t-161.5 -197.5t-261.5 -132t-346 -48.5q-124 0 -233.5 32.5 t-192.5 93t-131.5 154.5t-48.5 209z" />
<glyph unicode="T" horiz-adv-x="1226" d="M-2 1044q0 67 15.5 125t52.5 111t93 90.5t142.5 59.5t196.5 22q99 0 237 -21.5t250 -47t220.5 -47t154.5 -21.5q109 0 141 94q-103 0 -157 50.5t-54 107.5t33.5 89t79.5 32q52 0 91.5 -43.5t39.5 -122.5q0 -150 -119 -232t-319 -82q-87 0 -160 11l-160 -904 q-20 -125 -20 -157q0 -50 21 -81.5t51 -42.5t60.5 -15.5t51.5 -7t21 -9.5v-2h-740v2q0 7 14.5 10t37 4t50.5 12.5t54 30.5t48.5 61.5t33.5 102.5l184 1034q-194 31 -317 31q-151 0 -235.5 -64t-84.5 -192q0 -38 12 -88q20 38 66 60t100 22q68 0 105 -36t37 -85t-37 -87 t-99 -38q-24 0 -47.5 5.5t-50.5 23.5t-47 45.5t-33.5 76.5t-13.5 113z" />
<glyph unicode="U" horiz-adv-x="1509" d="M-14 1053q35 183 69 259q53 118 135 118q50 0 108 -18.5t102 -40t98.5 -40t97.5 -18.5q77 0 174 63l6 -8q-87 -47 -168 -172t-131.5 -291.5t-50.5 -322.5q0 -104 22.5 -190.5t70 -156.5t131.5 -109.5t198 -39.5q103 0 201 55t173.5 147t132.5 207t87.5 241.5t30.5 244.5 q0 124 -29 207q-60 -37 -139 -37q-78 0 -133.5 37t-55.5 106q0 49 34.5 91t96.5 42q65 0 113 -38t74 -103t38.5 -140t12.5 -161q0 -110 -27 -230t-76.5 -236.5t-125 -221.5t-166 -184.5t-207.5 -126.5t-242 -47q-99 0 -180 26t-136 70t-92 104t-54 127t-17 140q0 135 44 271 t117.5 250t155.5 206t172 165l-2 2q-145 -108 -319 -108q-128 0 -289 53q-27 -83 -47 -194z" />
<glyph unicode="V" horiz-adv-x="1021" d="M133 -80l199 1235q6 33 6 60q0 26 -6 46q-10 41 -32 62t-50.5 30t-54 10.5t-42.5 3.5t-16 9v4h733v-4q-1 -7 -17 -9.5t-40 -3.5t-53.5 -12t-56 -30t-49 -62t-31.5 -104l-168 -1057q63 113 120 209.5t134.5 217.5t150.5 221.5t164 209.5t179 195t191.5 165.5t205.5 132 t217.5 83.5t230.5 31q78 0 150 -15t135 -46t101 -87.5t38 -130.5q0 -63 -36 -102t-87 -39q-59 0 -88 36t-29 87q0 56 32 111.5t108 84.5q-114 90 -322 90q-135 0 -269.5 -42.5t-255 -116t-242 -183t-227.5 -233t-214.5 -276.5t-200.5 -302.5t-188 -322.5q-91 -14 -177 -55.5 t-137 -100.5h-6z" />
<glyph unicode="W" horiz-adv-x="1693" d="M135 -80l197 1235q6 33 6 60q0 26 -6 46q-10 41 -32 62t-50 30t-53 10.5t-42 3.5t-16 9v4h701v-4q-1 -7 -15 -9.5t-35 -3.5t-47 -12t-50 -30t-44.5 -62t-30.5 -104l-167 -1057l571 928l22 129q7 38 7 69q0 18 -3 34q-7 40 -24.5 61.5t-40.5 31t-44 11.5t-35 4.5t-13 9.5 v4h686v-4q-1 -7 -17 -9.5t-40 -3.5t-53.5 -12t-56.5 -30t-49.5 -62t-31.5 -104l-168 -1057q83 148 157.5 272t181 280t207 278.5t228.5 246t253 205t272.5 132.5t294.5 51q62 0 120 -9t114 -30t97 -52t66.5 -79.5t25.5 -108.5q0 -63 -35.5 -102t-86.5 -39q-59 0 -88 36 t-29 87q0 56 31.5 111.5t107.5 84.5q-114 90 -321 90q-135 0 -270 -42.5t-255.5 -116t-242 -183t-227.5 -233t-215 -276.5t-200.5 -302.5t-187.5 -322.5q-90 -14 -172.5 -55.5t-134.5 -100.5h-6l172 1081l-569 -925q-90 -14 -173 -55.5t-135 -100.5h-6z" />
<glyph unicode="X" horiz-adv-x="2160" d="M18 -45q0 99 44 189.5t120 157.5t185.5 107t234.5 40q32 0 66.5 -7.5t68 -23.5t55 -46t21.5 -69q0 -51 -37 -80.5t-90 -29.5q-60 0 -109 46t-49 132q0 29 9 63q-103 -4 -180 -75t-113.5 -175.5t-36.5 -224.5q0 -71 16.5 -134t50 -116t92 -84t134.5 -31q84 0 166 30 t153 79.5t143.5 127t132 157.5t125 188t116 200.5t110.5 211.5l-234 727q-82 -56 -202 -217l-9 8q52 69 93.5 115.5t92 90.5t104 65.5t110.5 21.5q68 0 110.5 -57t83.5 -193l119 -363q44 95 86 174t103.5 169t123 152t140.5 103t160 41q51 0 87.5 -14.5t52.5 -36.5t23 -40 t7 -34q0 -50 -34.5 -77t-84.5 -27q-70 0 -114 47t-44 127q0 17 2 27q-75 -24 -149.5 -88.5t-138.5 -155.5t-116 -184t-100 -199l234 -711q33 23 72.5 64t58.5 63.5t71 87.5l9 -6q-46 -58 -76 -94t-73 -78.5t-79 -66t-81.5 -40t-92.5 -16.5q-69 0 -110.5 57t-83.5 193 l-115 350q-58 -116 -108 -208t-115.5 -199t-126 -187.5t-135.5 -159t-149 -128.5t-161 -80.5t-176 -30.5q-71 0 -134.5 10.5t-125 38t-105.5 68.5t-71 107.5t-27 150.5z" />
<glyph unicode="Y" horiz-adv-x="1140" d="M82 877q0 107 30 196t78.5 148t113 99.5t131.5 58.5t136 18q161 0 240.5 -120.5t79.5 -336.5q0 -187 -53 -408q1 0 4 -1t4 -1q48 185 108 336.5t136 276.5t170.5 194.5t199.5 69.5q78 0 136.5 -43.5t58.5 -110.5q0 -60 -41.5 -98.5t-102.5 -38.5q-70 0 -122 60.5 t-52 158.5q0 11 4 35q-112 -46 -216.5 -197.5t-178 -353t-112.5 -422.5l-15 -82q-20 -125 -20 -157q0 -50 21 -81.5t51 -42.5t60.5 -15.5t51.5 -7t21 -9.5v-2h-740v2q0 7 14.5 10t37 4t50.5 12.5t54 30.5t48.5 61.5t33.5 102.5l57 322q35 210 35 352q0 74 -9 141 t-30.5 132.5t-63.5 104t-100 38.5q-119 0 -208 -124.5t-89 -293.5q49 14 101 14q83 0 138.5 -43.5t55.5 -120.5q0 -44 -31 -83t-96 -39q-52 0 -89.5 22.5t-56 62t-26.5 80.5t-8 89z" />
<glyph unicode="Z" horiz-adv-x="1277" d="M-31 2q58 108 175.5 231.5t263 246t295.5 245.5t311 271t272 282q-2 0 -2 2q-102 -87 -243 -127.5t-279 -40.5q-222 0 -479 84q-40 -108 -66 -264h-8q70 471 266 471q100 0 246.5 -37.5t275.5 -75t185 -37.5q53 0 94 29.5t108 126.5l9 -4q-70 -110 -184 -233t-234.5 -229 t-258 -222t-254.5 -212.5t-224 -200t-166 -185.5v-4q175 145 377 145q70 0 146.5 -23t144 -55.5t132 -64.5t131.5 -55t121 -23q80 0 121 84q-63 7 -109 29.5t-67.5 52.5t-31 55.5t-9.5 48.5q0 61 35.5 99.5t93.5 38.5q56 0 96.5 -46t40.5 -122q0 -44 -14.5 -94t-46.5 -102 t-77.5 -94t-114.5 -68.5t-150 -26.5q-77 0 -158.5 24t-150.5 58.5t-135 69.5t-134.5 59t-126.5 24q-133 0 -209 -133q-2 0 -4.5 1t-3.5 1z" />
<glyph unicode="[" horiz-adv-x="567" d="M-20 -381l329 1874h383l-2 -10h-164l-327 -1854h163v-10h-382z" />
<glyph unicode="\" horiz-adv-x="569" d="M137 1489h23l307 -1608h-23z" />
<glyph unicode="]" horiz-adv-x="567" d="M-90 -371h162l327 1854h-163l2 10h380l-329 -1874h-379v10z" />
<glyph unicode="^" horiz-adv-x="1038" d="M166 743l496 682h47l268 -682h-70l-235 600l-434 -600h-72z" />
<glyph unicode="_" horiz-adv-x="929" d="M-117 -205l11 62h927l-10 -62h-928z" />
<glyph unicode="`" horiz-adv-x="1071" d="M418 1343q0 34 23 60.5t63 26.5q36 0 61.5 -24t45.5 -65t42 -87t64 -100.5t98 -94.5l-4 -8q-94 26 -167.5 60.5t-114.5 67.5t-67.5 67t-35 57t-8.5 40z" />
<glyph unicode="a" horiz-adv-x="1185" d="M66 285q0 94 21.5 185.5t65.5 173t104.5 143.5t144.5 98.5t180 36.5q150 0 245 -101q162 24 260 125h13q-79 -284 -178 -919q66 38 108.5 74.5t99.5 99.5l7 -6q-99 -112 -186.5 -162.5t-149.5 -50.5q-61 0 -90 30t-29 97q0 41 27.5 192t50.5 227h-6q-176 -553 -430 -553 q-114 0 -186 75t-72 235zM330 272q0 -239 98 -239q83 0 186 181t164 437q20 90 39 166q-34 36 -77.5 59t-84.5 23q-83 0 -160 -101t-121 -246t-44 -280z" />
<glyph unicode="b" horiz-adv-x="1124" d="M18 -53l265 1349q6 30 6 52q0 41 -22.5 62.5t-49.5 24t-49.5 4t-22.5 7.5v4l441 51l4 -4l-121 -625q-54 -277 -109 -501l5 -2q98 295 204.5 426t229.5 131q114 0 186 -76t72 -236q0 -116 -33.5 -228t-95.5 -204.5t-159.5 -149.5t-215.5 -57q-169 0 -258 103 q-157 -26 -262 -131h-15zM303 80q33 -35 77.5 -56.5t86.5 -21.5q64 0 125.5 66t104.5 164t69.5 212.5t26.5 212.5q0 42 -5 77t-16 66t-31 48.5t-47 17.5q-52 0 -118.5 -82t-130 -226.5t-103.5 -311.5q-20 -90 -39 -166z" />
<glyph unicode="c" horiz-adv-x="923" d="M66 317q0 94 26.5 183.5t77.5 166.5t121.5 135.5t164.5 92t199 33.5q129 0 190.5 -48.5t61.5 -119.5q0 -49 -34 -79t-78 -30q-64 0 -97.5 42.5t-33.5 105.5q0 68 41 112q-6 2 -19 2q-68 0 -127.5 -42.5t-99 -109.5t-68.5 -150t-42 -164.5t-13 -153.5q0 -57 11.5 -104.5 t35.5 -86t66.5 -60.5t99.5 -22q126 0 285 146l4 -6q-84 -80 -191.5 -133.5t-224.5 -53.5q-172 0 -264 93.5t-92 250.5z" />
<glyph unicode="d" horiz-adv-x="1177" d="M68 285q0 91 21.5 181.5t65.5 172.5t104.5 145.5t144 100.5t178.5 37q141 0 233 -82l86 456q6 30 6 52q0 41 -22.5 62.5t-49 24t-49 4t-22.5 7.5v4l440 51l4 -4l-286 -1470q111 64 208 174l7 -6q-99 -112 -186.5 -162.5t-149.5 -50.5q-61 0 -90 30t-29 97q0 41 27.5 192 t50.5 227h-4q-98 -295 -203.5 -424t-228.5 -129q-113 0 -184.5 75t-71.5 235zM330 272q0 -239 98 -239q55 0 124.5 89.5t130 232.5t95.5 296l35 180q-80 68 -158 68q-83 0 -160 -101t-121 -246t-44 -280z" />
<glyph unicode="e" horiz-adv-x="948" d="M68 340q0 87 23.5 171t72 159t115.5 132t160 90.5t200 33.5q144 0 215.5 -55t71.5 -152q0 -73 -50 -132t-135 -97.5t-184 -62t-211 -34.5q-6 -44 -6 -84q0 -286 203 -286q77 0 151 38t164 136l6 -4q-80 -92 -191.5 -155t-242.5 -63q-177 0 -269.5 97.5t-92.5 267.5z M346 403q82 7 147 34.5t105.5 67t67 91t37 101.5t10.5 104q0 56 -24 84t-66 28q-70 0 -128 -73t-93 -184t-56 -253z" />
<glyph unicode="f" horiz-adv-x="604" d="M-328 -342q0 51 32.5 81t80.5 30q72 0 107 -64q26 -50 26 -115q0 -19 -2 -39q55 14 82 61t43 142q23 134 63.5 391.5t71.5 443t55 294.5h-182q0 1 1 4.5t1 5.5h182q43 190 129 334.5t192.5 218.5t217.5 74q66 0 110 -34t44 -79q0 -49 -35 -78t-88 -29q-131 0 -135 191 q-87 -31 -144 -387l-32 -211h215q0 -2 -1 -5.5t-1 -4.5h-216l-18 -125q-41 -281 -91.5 -491t-108 -349.5t-127.5 -225t-144.5 -121.5t-165.5 -36q-66 0 -114 37.5t-48 85.5z" />
<glyph unicode="g" horiz-adv-x="1064" d="M-78 -236q0 62 34.5 102t86.5 40q54 0 80.5 -34t26.5 -83q0 -50 -38.5 -104.5t-97.5 -75.5q34 -32 108.5 -52t166.5 -20q140 0 226.5 88t86.5 189q0 52 -31.5 88.5t-82 55t-111.5 30t-122.5 19.5t-112 19t-82 32.5t-31.5 54.5q0 45 44.5 96.5t133.5 89.5q-90 63 -90 186 q0 87 35 166.5t96.5 140.5t153 97.5t198.5 36.5q45 0 84 -8q2 81 33 152.5t92 119t139 47.5q48 0 87.5 -28.5t39.5 -78.5q0 -55 -38 -85.5t-93 -30.5q-62 0 -104.5 40t-42.5 107q-44 -38 -73.5 -108.5t-29.5 -137.5q111 -23 181.5 -96.5t70.5 -191.5q0 -74 -35 -145.5 t-96 -128t-153.5 -91.5t-198.5 -35q-64 0 -134.5 17.5t-115.5 48.5q-58 -26 -96.5 -57.5t-38.5 -63.5q0 -27 45 -40.5t117 -17t158.5 -5.5t173.5 -11t159 -28t117 -63t45 -109q0 -147 -170.5 -259t-429.5 -112q-99 0 -173.5 20t-116 54.5t-61.5 75t-20 87.5zM362 393 q0 -153 109 -153q64 0 118.5 83t83.5 201t29 234q0 157 -102 157q-64 0 -120.5 -83.5t-87 -203.5t-30.5 -235z" />
<glyph unicode="h" horiz-adv-x="1128" d="M27 0l252 1296q6 30 6 52q0 41 -22.5 62.5t-49.5 24t-49.5 4t-22.5 7.5v4l441 51l4 -4l-121 -627q-41 -216 -113 -514q2 -2 4 -2q86 279 199.5 425.5t249.5 146.5q112 0 184 -77.5t72 -240.5q0 -127 -43 -247.5t-111.5 -208t-158.5 -140.5t-181 -53q-82 0 -126 37.5 t-44 95.5q0 43 26.5 73t70.5 30q56 0 87 -40.5t31 -101.5q0 -35 -14 -86q50 4 89.5 61t63.5 151t37 208.5t13 239.5q0 96 -25.5 168.5t-77.5 72.5q-63 0 -137.5 -97t-134.5 -245.5t-92 -304.5l-45 -221h-262z" />
<glyph unicode="i" horiz-adv-x="661" d="M51 700q103 119 181 171.5t145 52.5q141 0 141 -138q0 -49 -20 -147q-21 -109 -64.5 -317t-62.5 -306q101 58 225 189l6 -4q-95 -105 -187 -166.5t-145 -61.5q-139 0 -139 127q0 26 19 133l133 658q-93 -44 -226 -197zM313 1231q0 72 54.5 131t126.5 59q59 0 95 -37.5 t36 -95.5q0 -74 -57 -131t-128 -57q-54 0 -90.5 37.5t-36.5 93.5z" />
<glyph unicode="j" horiz-adv-x="581" d="M-307 -350q0 53 34 85t87 32q47 0 89 -44t42 -131q0 -27 -2 -41q46 10 66 55t46 171l224 1114q-93 -44 -226 -197l-6 6q103 119 181 171.5t145 52.5q137 0 137 -142q0 -23 -10 -88q-32 -202 -123 -622q-17 -78 -48 -153t-79 -145.5t-106 -123.5t-133.5 -85t-157.5 -32 q-62 0 -111 33.5t-49 83.5zM303 1231q0 72 54 131t126 59q59 0 94 -37.5t35 -95.5q0 -74 -56 -131t-126 -57q-54 0 -90.5 37.5t-36.5 93.5z" />
<glyph unicode="k" horiz-adv-x="1048" d="M31 0l256 1296q6 30 6 52q0 41 -22.5 62.5t-49 24t-49 4t-22.5 7.5v4l434 51l4 -4l-107 -551q-2 -12 -26.5 -141t-45.5 -228t-51 -215l4 -2q74 273 204 422.5t286 149.5q77 0 120.5 -48.5t43.5 -113.5q0 -68 -56 -130.5t-134 -104t-171 -70.5q44 -146 103.5 -279 t141 -254.5t175.5 -209.5t211 -140.5t242 -52.5q86 0 186 39q-55 58 -55 135q0 58 31.5 95.5t81.5 37.5q41 0 68.5 -27t27.5 -67q0 -43 -23 -81.5t-72.5 -73.5t-142.5 -55.5t-219 -20.5q-720 0 -977 888q173 45 272 125t99 181q0 42 -25 75t-73 33q-111 0 -212 -152 t-159 -456l-39 -205h-266z" />
<glyph unicode="l" horiz-adv-x="610" d="M102 176l222 1120q6 30 6 52q0 41 -22.5 62.5t-49.5 24t-49.5 4t-22.5 7.5v4l435 51l4 -4l-289 -1481q109 65 225 191l6 -6q-95 -105 -186.5 -166.5t-144.5 -61.5q-90 1 -122 51q-20 31 -20 81q0 32 8 71z" />
<glyph unicode="m" horiz-adv-x="1697" d="M45 696q109 124 184.5 178t143.5 54q66 0 101.5 -34t35.5 -97q0 -38 -28 -182t-64 -289h6q45 141 94 249.5t93 173.5t89.5 106t82 56t71.5 15q92 0 135 -48.5t43 -127.5q0 -104 -65 -383h4q52 158 108 271t109 173.5t100 87.5t92 27q96 0 138.5 -52.5t42.5 -138.5 q0 -46 -13 -106l-131 -617q94 50 221 191l7 -6q-203 -224 -330 -224q-64 0 -100.5 35t-36.5 88q0 48 24 150l98 426q15 72 15 98q0 70 -53 70q-48 0 -114 -100t-125 -252.5t-95 -307.5l-41 -180h-260l149 684q4 20 6 32t5 33.5t0.5 34.5t-7 27.5t-17 21.5t-30.5 7 q-50 0 -120 -105.5t-131.5 -267t-90.5 -317.5l-29 -150h-258l175 893q-55 -30 -109 -80t-119 -123z" />
<glyph unicode="n" horiz-adv-x="1198" d="M47 698q202 230 315 230q148 0 148 -129q0 -37 -27 -195t-59 -285h6q46 138 99 247t100.5 175t97 109t88 59.5t72.5 16.5q65 0 107 -26t56 -68q16 -42 18 -94q0 -8 -1 -16q0 -45 -12 -91l-131 -621q96 53 221 193l6 -6q-202 -224 -322 -224q-145 0 -145 130q0 35 10 79 l113 488q4 18 6 28t5.5 29t4 30.5t0.5 27.5t-4 25.5t-10 19t-17 14t-26 4.5q-37 0 -91.5 -64t-107.5 -162t-100.5 -225t-71.5 -245l-30 -152h-259l173 893q-93 -53 -226 -201z" />
<glyph unicode="o" horiz-adv-x="1107" d="M66 340q0 113 42 218.5t115.5 187t182 131t233.5 49.5q102 0 181 -29t126.5 -80t71.5 -116.5t24 -143.5q0 -84 -26.5 -168.5t-79 -159t-123 -132t-166.5 -91t-203 -33.5q-100 0 -175 29t-118 80.5t-64 116t-21 141.5zM332 207q0 -223 123 -223q77 0 142 74t103 185 t59 227t21 212q0 113 -30.5 173t-110.5 60q-67 0 -126.5 -68.5t-98 -174t-60.5 -228.5t-22 -237z" />
<glyph unicode="p" horiz-adv-x="1173" d="M-166 -434q1 7 26.5 11t57.5 10.5t65 43t46 101.5q35 183 111.5 571.5t115.5 589.5q-96 -54 -225 -205l-8 6q203 234 317 234q83 0 115 -36.5t32 -98.5q0 -30 -26 -184t-47 -238h6q86 278 196 416.5t232 138.5q114 0 186 -75.5t72 -234.5q0 -92 -20.5 -183t-63 -173.5 t-101.5 -146t-141.5 -101t-177.5 -37.5q-152 0 -246 88l-63 -337q-6 -42 -6 -45q0 -45 29 -70t64 -28.5t63.5 -6.5t27.5 -10v-4h-637v4zM360 74q76 -72 156 -72q87 0 164.5 106t120.5 256.5t43 290.5q0 91 -23.5 151t-77.5 60q-51 0 -117 -81.5t-129.5 -230t-101.5 -321.5z " />
<glyph unicode="q" horiz-adv-x="1126" d="M66 285q0 116 33.5 228t95 204.5t159 149.5t215.5 57q169 0 258 -103q168 25 258 121h15l-234 -1216q-6 -24 -6 -48q0 -43 25.5 -67t56.5 -28.5t56.5 -7.5t25.5 -9v-4h-647v4q0 7 19.5 9t48.5 7t59.5 17t57.5 46t38 87l162 796l-4 2q-98 -295 -204.5 -426t-229.5 -131 q-114 0 -186 76t-72 236zM330 242q0 -90 23 -149.5t75 -59.5t118.5 82t130 226.5t103.5 311.5q20 89 39 166q-33 35 -77.5 56.5t-86.5 21.5q-84 0 -161.5 -110t-120.5 -261.5t-43 -283.5z" />
<glyph unicode="r" horiz-adv-x="854" d="M47 698q202 230 315 230q147 0 147 -132q0 -20 -3 -42q-9 -71 -38 -206t-60 -251h4q87 309 198.5 469t218.5 160q63 0 105.5 -33t42.5 -86t-33 -82t-82 -29q-63 0 -104 48q-33 39 -33 99q0 15 2 31q-88 -48 -188 -254t-154 -491l-25 -129h-256l175 893q-90 -50 -226 -201 z" />
<glyph unicode="s" horiz-adv-x="897" d="M25 162q0 56 33 85t73 29q52 0 82.5 -34.5t30.5 -83.5q0 -38 -15.5 -79.5t-44.5 -70.5q60 -22 146 -22q91 0 155 50.5t64 131.5q0 53 -42 100.5t-101.5 85t-119 75.5t-101.5 90.5t-42 113.5q0 72 35 130t93 92.5t128.5 52.5t145.5 18q140 0 222.5 -52.5t82.5 -130.5 q0 -53 -32.5 -82.5t-72.5 -29.5q-55 0 -83.5 34t-28.5 85q0 90 53 143q-47 20 -115 20q-32 0 -63.5 -8t-62 -25t-49.5 -50.5t-19 -79.5q0 -49 43.5 -93.5t105.5 -82t124 -78.5t105.5 -99t43.5 -127q0 -75 -38 -134t-103 -93.5t-143.5 -52t-166.5 -17.5q-156 0 -239.5 55 t-83.5 134z" />
<glyph unicode="t" horiz-adv-x="638" d="M90 100q0 40 8 76l142 707h-123q0 1 1 4.5t1 5.5h123q110 31 190.5 111t124.5 202h6l-61 -313h237q0 -2 -1 -5.5t-1 -4.5h-237l-170 -867q106 63 225 189l6 -4q-101 -112 -191 -170t-149 -58q-63 0 -97 32t-34 95z" />
<glyph unicode="u" horiz-adv-x="1175" d="M47 702q202 224 322 224q145 0 145 -130q0 -35 -10 -79l-113 -488q-4 -18 -6 -28t-5.5 -29t-4 -30.5t-1 -27.5t4 -25.5t10.5 -19t17 -14t26 -4.5q50 0 119.5 108.5t132 268.5t98.5 317l17 72q79 9 145 35t133 88h8q-118 -539 -186 -932q55 32 105.5 79t117.5 122l6 -6 q-202 -230 -313 -230q-147 0 -147 129q0 37 27 194t59 284h-6q-46 -146 -97 -257.5t-95.5 -176t-91 -105.5t-82.5 -54.5t-71 -13.5q-65 0 -107 26t-56 68q-16 43 -18 95v15q0 45 13 91l131 621q-96 -53 -221 -193z" />
<glyph unicode="v" horiz-adv-x="966" d="M6 659q34 55 63 95.5t68 83.5t82 65.5t88 22.5q61 0 92.5 -35t46.5 -103q49 -214 78 -557q15 16 87 86t115.5 115t97 112.5t77.5 119.5q-65 2 -119.5 44t-54.5 109q0 11 3.5 26.5t13 39t33.5 39.5t59 16q49 0 81.5 -34.5t32.5 -98.5q0 -74 -45.5 -157.5t-122 -167 t-157.5 -162t-171 -171t-143 -165.5h-16q-14 178 -51 448t-68 430q-67 -51 -164 -205z" />
<glyph unicode="w" horiz-adv-x="1476" d="M6 659q34 55 63 95.5t68 83.5t82 65.5t88 22.5q61 0 92.5 -35t46.5 -103q53 -230 78 -528q174 210 250 326q-6 42 -45 274q-66 -52 -154 -188l-6 4q31 51 60.5 91t67 78.5t79 59.5t84.5 21q61 0 92.5 -35t46.5 -103q51 -221 78 -544q276 282 328 420q-66 2 -123 44 t-57 109q0 11 3.5 26.5t12.5 39t33 39.5t59 16q49 0 82 -34.5t33 -98.5q0 -74 -40 -157.5t-108.5 -167.5t-140.5 -161t-157.5 -171.5t-137.5 -165.5h-16q-22 244 -72 593q-72 -111 -239 -310.5t-226 -282.5h-16q-14 178 -51 448t-68 430q-67 -51 -164 -205z" />
<glyph unicode="x" horiz-adv-x="1097" d="M-45 76q0 50 34 77t77 27q58 0 95.5 -45.5t37.5 -109.5v-13q107 63 229 357q-70 207 -162 467q-64 -62 -151 -193l-9 4q40 59 69.5 98.5t72.5 86.5t85.5 71.5t84.5 24.5q72 0 112.5 -75t112.5 -298q90 190 165.5 279.5t170.5 89.5q53 0 95 -31t42 -78q0 -50 -35 -78 t-80 -28q-56 0 -94.5 43.5t-38.5 103.5q0 15 2 21q-100 -65 -221 -334q8 -25 170 -490q73 61 164 205l8 -6q-25 -37 -37 -54.5t-42 -58t-53.5 -63.5t-54.5 -50.5t-62.5 -40t-61.5 -12.5q-72 0 -110.5 47.5t-84.5 182.5l-51 153q-85 -199 -162.5 -294t-181.5 -95 q-54 0 -94.5 30t-40.5 79z" />
<glyph unicode="y" horiz-adv-x="952" d="M-6 659q34 55 63 95.5t68 83.5t82 65.5t88 22.5q61 0 92.5 -35t46.5 -103q49 -213 78 -559q17 18 87.5 88t115 116.5t97.5 113.5t77 117q-65 2 -119.5 44t-54.5 109q0 11 3.5 26.5t12.5 39t33 39.5t59 16q49 0 82 -34.5t33 -98.5q0 -48 -21 -101.5t-50.5 -98.5 t-82 -105.5t-92.5 -101t-107.5 -107.5t-103.5 -105q-18 -19 -63.5 -64t-74.5 -75t-69.5 -79.5t-64.5 -91t-41.5 -95t-17.5 -105.5q0 -47 25 -85t77 -52q0 3 -1 9.5t-1 9.5q0 80 39 137t100 57q44 0 71 -26t27 -64q0 -67 -54 -103t-126 -36q-74 0 -121 41.5t-47 107.5 q0 158 144 322q-14 176 -51 439t-68 427q-67 -51 -164 -205z" />
<glyph unicode="z" horiz-adv-x="958" d="M-49 -10q46 81 127.5 162t180 155.5t200 147.5t214.5 167t197 187l-2 4q-150 -129 -372 -129q-150 0 -346 61q-32 -96 -48 -202h-10q61 389 207 389q73 0 177.5 -29t196.5 -57.5t134 -28.5q81 0 154 117l10 -4q-60 -96 -158.5 -194t-206 -180t-213 -159t-205.5 -159 t-157 -152l2 -2q151 117 301 117q54 0 118 -20t112.5 -43.5t107.5 -43.5t104 -20q46 0 70 51q-49 6 -84.5 23.5t-53 41t-25 44t-7.5 38.5q0 42 25.5 75.5t76.5 33.5q48 0 76.5 -37t28.5 -92q0 -37 -11.5 -78.5t-37 -84t-61.5 -76t-90.5 -55t-119.5 -21.5q-61 0 -127 22.5 t-113.5 49t-106 49t-105.5 22.5q-98 0 -152 -94z" />
<glyph unicode="{" horiz-adv-x="686" d="M119 621v6q36 1 63.5 10t47 26.5t33 36t23.5 50t15.5 56.5t13.5 66l58 312q13 71 42 127.5t78.5 102t128.5 66.5t181 11l-2 -8q-48 6 -82.5 -3.5t-53.5 -22t-33.5 -49t-18.5 -54.5t-12 -68q-2 -11 -3 -16l-41 -246q-35 -207 -130 -298t-251 -99v-4q167 -17 220.5 -114.5 t19.5 -283.5l-74 -405q-19 -100 10 -146.5t135 -46.5v-8q-187 0 -275 86.5t-58 255.5l71 399q5 29 8 47t5 48.5t0 49.5t-9 43t-20 38t-36 24t-54 11z" />
<glyph unicode="|" horiz-adv-x="651" d="M313 -289v1813h25v-1813h-25z" />
<glyph unicode="}" horiz-adv-x="686" d="M-90 -375l2 8q46 -6 80 3t52.5 20.5t33.5 46.5t19 52t13 66q3 16 5 25l71 373q40 207 133 298t248 99v5q-166 17 -217 112t-22 285l43 278q15 102 -13 147.5t-133 45.5v8q186 0 273 -85.5t61 -256.5l-41 -272q-4 -24 -5 -32.5t-4.5 -33t-3 -35.5t0 -33t3.5 -33t9 -28.5 t14.5 -26.5t22 -19t30.5 -14t40 -5v-7q-31 -1 -56 -8.5t-42.5 -18t-32 -30t-23.5 -36t-18 -45.5t-13.5 -50t-11.5 -57l-88 -439q-11 -56 -31 -103t-54.5 -89.5t-81 -70t-114 -40t-149.5 -4.5z" />
<glyph unicode="~" horiz-adv-x="1107" d="M113 399q10 51 34 100t61 91.5t92 69t118 26.5q48 0 199 -41t225 -41q72 0 111.5 26t70.5 95l8 -4q-32 -126 -117.5 -208.5t-203.5 -82.5q-47 0 -193.5 42t-216.5 42q-62 0 -106.5 -26.5t-73.5 -90.5z" />
<glyph unicode="&#xa2;" d="M188 487q0 152 65.5 285.5t192 223t289.5 100.5l41 209h12l-40 -209q5 0 15 1t15 1q130 0 191 -48.5t61 -119.5q0 -49 -34 -79t-78 -30q-64 0 -98 42.5t-34 105.5q0 68 41 112q-6 2 -18 2q-33 0 -68 -12l-170 -858q48 -23 101 -23q125 0 284 146l5 -6 q-82 -79 -186 -131.5t-218 -55.5l-41 -209h-12l41 209q-173 0 -265 93.5t-92 250.5zM459 463q0 -182 102 -244l168 848q-65 -27 -118.5 -97t-85.5 -158t-49 -179t-17 -170z" />
<glyph unicode="&#xa3;" d="M-8 -18q199 112 283.5 240t84.5 282q0 56 -20 158h-215q0 2 1 5.5t1 4.5h211q-33 144 -33 223q0 147 66.5 256t181 164t260.5 55q147 0 232 -62.5t85 -146.5q0 -47 -30.5 -83t-79.5 -36q-64 0 -92.5 38t-28.5 91q0 107 55 168q-55 19 -106 19q-67 0 -115.5 -25.5 t-75.5 -71.5t-39 -101t-12 -122q0 -42 5 -119t5 -114q0 -77 -10 -133h307q0 -1 -1 -4.5t-1 -5.5h-305q-29 -184 -132.5 -323.5t-297.5 -258.5l2 -2q126 63 236 63q43 0 80 -6q58 -8 123.5 -36t122 -61t112 -65t112.5 -53.5t105 -21.5q42 0 70 22.5t53 67.5q-55 7 -94.5 29.5 t-56.5 51t-24 51t-7 40.5q0 45 28.5 83t85.5 38q53 0 86 -43t33 -103q0 -52 -24.5 -111.5t-68.5 -114t-118.5 -90.5t-163.5 -36q-75 0 -151 28t-139.5 68.5t-124.5 81t-125.5 68.5t-122.5 28q-33 0 -72 -14.5t-62.5 -27.5t-74.5 -44q-1 1 -2 5t-2 6z" />
<glyph unicode="&#xa5;" d="M84 1343v5h647v-2q0 -9 -27 -14t-59 -10.5t-59 -30.5t-27 -68q0 -20 10 -62l129 -516l273 475q51 89 51 123q0 35 -26.5 55t-58.5 24t-58.5 8.5t-26.5 12.5v5h444v-2q0 -8 -18.5 -11.5t-51.5 -11.5t-71.5 -24.5t-84 -60.5t-83.5 -110l-291 -507h310q0 -1 -1 -5.5t-1 -5.5 h-883q0 1 1 5.5t1 5.5h285l-152 565q-10 36 -24.5 63t-30.5 41.5t-33 24t-32 12.5t-27 5t-18.5 4t-6.5 7zM90 434q0 2 1 5.5t1 4.5h883q0 -1 -1 -4.5t-1 -5.5h-303l-37 -211q-8 -50 -8 -65q0 -50 18.5 -81.5t45.5 -42.5t54 -15.5t45.5 -7t18.5 -9.5v-2h-690v2q0 7 14.5 10 t37 4t50.5 12.5t53.5 30.5t48 61.5t33.5 102.5l37 211h-301z" />
<glyph unicode="&#xa8;" horiz-adv-x="1030" d="M334 1204q0 64 46.5 114t106.5 50q47 0 77 -32.5t30 -80.5q0 -65 -48 -113t-106 -48q-47 0 -76.5 31t-29.5 79zM713 1204q0 64 46 114t107 50q47 0 77 -32.5t30 -80.5q0 -65 -48 -113t-108 -48q-47 0 -75.5 31t-28.5 79z" />
<glyph unicode="&#xa9;" horiz-adv-x="1710" d="M141 711q0 148 56.5 282t154 231.5t235.5 154.5t294 57q157 0 295 -57t235.5 -154.5t154 -231.5t56.5 -282q0 -150 -56.5 -284.5t-154 -231.5t-235.5 -154t-295 -57q-222 0 -392 97.5t-259 262t-89 367.5zM186 711q0 -142 49.5 -268.5t138 -220t220 -148t287.5 -54.5 q196 0 356 93t250 251t90 347q0 141 -53 268t-145 220t-221.5 147.5t-276.5 54.5t-277 -54.5t-221.5 -147.5t-144 -220t-52.5 -268zM399 692q0 208 139 349t365 141q54 0 113.5 -14t92.5 -24t64 -1.5t50 47.5h4v-346h-2q-7 0 -12.5 11t-14.5 44q-11 40 -23 71t-35 70.5 t-51 65.5t-72 44.5t-97 18.5q-269 0 -269 -481q0 -230 65.5 -340t203.5 -110q77 0 133 24t90 69t53 93.5t31 112.5q8 42 12.5 55.5t11.5 13.5h4v-381h-6q-21 38 -55 45t-70.5 -5.5t-103.5 -28t-129 -15.5q-224 0 -358 133t-134 338z" />
<glyph unicode="&#xaa;" horiz-adv-x="782" d="M84 801q0 103 40 196t122.5 155t189.5 62q104 0 174 -61q112 12 176 70h15q-55 -202 -117 -580q63 37 139 109l6 -7q-134 -143 -243 -143q-82 0 -82 90q0 63 33 207h-5q-60 -155 -131 -229t-141 -74q-79 0 -127.5 50t-48.5 155zM279 774q0 -47 14.5 -79.5t46.5 -32.5 q58 0 117.5 104.5t109.5 275.5l31 107q-53 43 -102 43q-60 0 -111.5 -69t-78.5 -164.5t-27 -184.5z" />
<glyph unicode="&#xab;" horiz-adv-x="911" d="M84 426q0 24 39 57l446 357l6 -6l-311 -410l166 -412l-10 -8l-316 365q-20 20 -20 57zM387 426q0 22 41 57l446 357l7 -6l-312 -410q127 -316 164 -412l-8 -8q-32 37 -97.5 114.5t-117 137.5t-100.5 113q-10 10 -16.5 28t-6.5 29z" />
<glyph unicode="&#xac;" horiz-adv-x="1126" d="M184 575l13 68h813q-46 -251 -84 -473h-62l72 405h-752z" />
<glyph unicode="&#xad;" horiz-adv-x="606" d="M63 465l15 80h479q-8 -35 -14 -80h-480z" />
<glyph unicode="&#xae;" horiz-adv-x="1441" d="M213 915q0 144 68.5 264t191 190.5t272.5 70.5q151 0 274.5 -70.5t192 -190.5t68.5 -264q0 -142 -68.5 -261t-192 -189t-274.5 -70q-160 0 -282.5 70.5t-186 188t-63.5 261.5zM250 915q0 -213 137 -351t358 -138q220 0 360 140.5t140 348.5q0 210 -142 352t-358 142 q-215 0 -355 -140t-140 -354zM461 649v4q0 5 11.5 7t25.5 4t25.5 17t11.5 42v426q0 29 -11.5 44t-25.5 17t-25.5 4t-11.5 7v4h260q59 0 104 -6.5t84.5 -23t60.5 -47.5t21 -75q0 -70 -67 -108.5t-181 -38.5q-31 0 -41 2q22 -24 74 -32.5t96 -6.5l134 -184q17 -24 37 -33.5 t31 -11t11 -7.5v-4h-194l-199 279h-18v-205q0 -27 11 -42t24.5 -17.5t24.5 -4.5t11 -6v-4h-284zM674 936h24q64 0 104 41t40 98q0 63 -41.5 101t-102.5 38h-24v-278z" />
<glyph unicode="&#xb1;" horiz-adv-x="1126" d="M82 18q2 7 12 64h813l-10 -64h-815zM182 590q5 29 15 67h376q14 73 37.5 209t30.5 176h64q-14 -73 -37.5 -209t-30.5 -176h373q-5 -28 -15 -67h-372q-2 -13 -28.5 -167t-41.5 -233h-61q12 65 34 199t35 201h-379z" />
<glyph unicode="&#xb4;" horiz-adv-x="1030" d="M492 1061q67 40 119.5 94t81.5 101t55 89t54 66.5t64 24.5q41 0 62 -26t18 -60q-1 -16 -14.5 -40.5t-47 -59.5t-81.5 -68.5t-129 -69t-180 -61.5z" />
<glyph unicode="&#xb8;" horiz-adv-x="919" d="M227 -516q0 1 1 5t1 5h37q110 0 183 55t73 132q0 49 -43.5 83t-130.5 35l111 203q2 0 5 -1t5 -1l-70 -131h45q116 0 191.5 -45t75.5 -119q0 -91 -104.5 -158t-282.5 -67q-62 0 -97 4z" />
<glyph unicode="&#xba;" horiz-adv-x="784" d="M121 838q0 99 49.5 185.5t141 141t204.5 54.5q140 0 210.5 -67t70.5 -175q0 -69 -29.5 -136t-81.5 -121.5t-131 -88t-170 -33.5q-136 0 -200 66.5t-64 173.5zM309 748q0 -140 82 -140q52 0 95.5 48.5t68.5 120.5t39 146.5t14 135.5q0 70 -20 108.5t-72 38.5 q-58 0 -107 -76t-74.5 -180.5t-25.5 -201.5z" />
<glyph unicode="&#xbb;" horiz-adv-x="911" d="M10 10q127 169 316 414l-162 407q1 2 8 9q31 -36 143 -165t172 -200q21 -24 21 -43q0 -15 -17.5 -42.5t-56.5 -55.5q-83 -61 -236.5 -184.5t-181.5 -145.5zM317 10q127 169 316 414l-162 407q1 2 8 9q37 -44 147 -169.5t169 -195.5q20 -23 20 -43q0 -15 -17.5 -42.5 t-56.5 -55.5q-82 -61 -233 -182.5t-184 -147.5z" />
<glyph unicode="&#xf7;" horiz-adv-x="1126" d="M180 575l13 66h813l-13 -66h-813zM426 279q0 56 42.5 100.5t94.5 44.5q42 0 68 -28t26 -70q0 -59 -41 -101.5t-96 -42.5q-41 0 -67.5 27t-26.5 70zM530 883q0 57 43 100t95 43q43 0 69.5 -28t26.5 -72q0 -57 -42.5 -99.5t-96.5 -42.5q-41 0 -68 28t-27 71z" />
<glyph unicode="&#x192;" d="M-84 -98q0 52 33 88.5t84 36.5q63 0 97 -49.5t34 -118.5q0 -45 -10 -74q26 4 49.5 33.5t43.5 84.5t37 119.5t35.5 154t34.5 172.5t38 190t42 192h-180v12h184q29 117 73.5 223.5t106.5 199.5t145 148.5t175 55.5q77 0 141 -38t64 -107q0 -46 -31.5 -79.5t-79.5 -33.5 q-69 0 -103 45t-34 113q0 42 16 88q-18 -1 -33.5 -10.5t-29 -30.5t-24 -43.5t-21.5 -61t-19.5 -72t-19 -86.5t-18 -93.5t-19 -106t-20.5 -111.5h192v-12h-197q-28 -140 -56 -252.5t-66.5 -226.5t-85 -197t-104 -149.5t-131 -100.5t-159.5 -34q-40 0 -79.5 11.5t-72 43 t-32.5 76.5z" />
<glyph unicode="&#x2c6;" horiz-adv-x="1030" d="M307 1063l355 344q22 18 26 18q9 0 25 -16l219 -346l-6 -6l-269 178l-344 -178z" />
<glyph unicode="&#x2da;" horiz-adv-x="1030" d="M461 1210q0 98 68 167t167 69q69 0 113.5 -45t44.5 -115q0 -97 -69 -166t-160 -69q-73 0 -118.5 44.5t-45.5 114.5zM514 1219q0 -53 32 -86t89 -33q63 0 113.5 53t50.5 119q0 53 -30.5 89t-84.5 36q-69 0 -119.5 -54.5t-50.5 -123.5z" />
<glyph unicode="&#x2dc;" horiz-adv-x="1071" d="M315 1087q14 36 33.5 72t49.5 75.5t71 64t86 24.5q39 0 150 -35t161 -35q51 0 84 21.5t64 79.5l6 -2q-33 -103 -98 -172.5t-148 -69.5q-44 0 -150 30.5t-153 30.5q-31 0 -52 -4t-47.5 -24t-47.5 -58z" />
<glyph unicode="&#x3a9;" horiz-adv-x="1529" d="M-133 -178q0 100 94 177t262 77q56 0 129 -13q-65 30 -112.5 83t-74 119t-38.5 134.5t-12 143.5q0 126 35.5 250.5t106 235t167 196t227 135t277.5 49.5q144 0 256 -44t179.5 -119t101.5 -168t34 -199q0 -212 -92 -399.5t-246 -310.5t-338 -161q0 -1 1 -2t1 -2 q127 29 234 29q88 0 162.5 -26.5t125 -68.5t93.5 -93t77 -102.5t65.5 -93.5t68.5 -68.5t78 -26.5q54 0 116 51q-75 42 -105 98t-30 107q0 56 37.5 101.5t97.5 45.5q55 0 89 -39.5t34 -93.5q0 -33 -10 -70t-37 -80t-67.5 -76.5t-109.5 -56t-155 -22.5q-81 0 -150.5 26.5 t-119.5 69t-94.5 93.5t-83 102.5t-77 94t-85 69t-98.5 26.5q-66 0 -142 -29l-4 9q100 43 180.5 131.5t131 195.5t84.5 232.5t47.5 239t13.5 220.5q0 189 -55 291.5t-183 102.5q-106 0 -197 -70.5t-152 -181t-105 -247.5t-64 -269.5t-20 -247.5q0 -87 9.5 -152t42.5 -127.5 t89 -93.5l-4 -8q-76 32 -166.5 49.5t-163.5 17.5q-166 0 -256 -74t-90 -169q0 -57 37 -100t100 -52q-6 21 -6 47q0 81 40.5 141t121.5 60q46 0 76 -29t30 -71q0 -43 -19.5 -75.5t-51.5 -50.5t-68 -27t-74 -9q-90 0 -143 46.5t-53 121.5z" />
<glyph unicode="&#x3c0;" horiz-adv-x="1204" d="M-279 -197q0 51 34 81t83 30t91 -47t42 -137v-19q37 11 57 49t33 107q35 175 100.5 514t98.5 502h-170q0 1 1 4.5t1 5.5h1143q0 -2 -1 -5.5t-1 -4.5h-152l-168 -877q56 32 106 77t114 112l6 -7q-107 -118 -185 -169.5t-145 -51.5q-66 0 -100.5 35t-34.5 98q0 52 20 152 l125 631h-293l-102 -521q-17 -86 -46 -173t-77.5 -179t-108 -162t-142.5 -114.5t-175 -44.5q-68 0 -111 31.5t-43 82.5z" />
<glyph unicode="&#x401;" horiz-adv-x="1363" d="M68 262q0 65 22.5 133t75.5 138t130.5 126t198 95.5t267.5 48.5l-4 6q-393 34 -393 252q0 146 151.5 246t396.5 100q172 0 263.5 -62.5t91.5 -154.5q0 -62 -37.5 -97.5t-87.5 -35.5q-63 0 -95 42.5t-32 98.5q0 50 17.5 97t49.5 77q-47 23 -129 23q-136 0 -218.5 -103 t-82.5 -258q0 -213 254 -225q0 -1 -1 -4.5t-1 -5.5q-98 -2 -193 -46.5t-170.5 -122t-122 -195.5t-46.5 -255q0 -142 84.5 -225.5t236.5 -83.5q130 0 243.5 41.5t190.5 110.5t121.5 158.5t44.5 185.5q0 111 -72 181t-202 70q-60 0 -122.5 -21.5t-109.5 -64.5 q74 -13 114 -61.5t40 -108.5q0 -46 -31 -82t-82 -36q-56 0 -87 37t-31 92q0 80 47.5 140t116.5 88t145 28q140 0 213.5 -73.5t73.5 -186.5q0 -96 -43.5 -187t-123 -164.5t-203 -118t-271.5 -44.5q-153 0 -270 31.5t-187.5 87.5t-105.5 128.5t-35 159.5zM573 1618 q0 64 47 114t107 50q45 0 74.5 -32.5t29.5 -80.5q0 -64 -47.5 -113t-105.5 -49q-47 0 -76 31.5t-29 79.5zM952 1618q0 65 46.5 114.5t107.5 49.5q47 0 76.5 -32.5t29.5 -80.5q0 -65 -48.5 -113.5t-108.5 -48.5q-45 0 -74 31.5t-29 79.5z" />
<glyph unicode="&#x402;" horiz-adv-x="1681" d="M-41 1044q0 67 15.5 125t52.5 111t93 90.5t142.5 59.5t196.5 22q99 0 237 -21.5t250 -47t220.5 -47t154.5 -21.5q109 0 141 94q-103 0 -157 50.5t-54 107.5t33.5 89t79.5 32q52 0 91.5 -43.5t39.5 -122.5q0 -150 -119 -232t-319 -82q-87 0 -160 11l-86 -492 q180 76 342 76q214 0 344.5 -121.5t130.5 -325.5q0 -105 -26 -209t-78 -197t-122 -165t-165.5 -114t-202.5 -42q-98 0 -157.5 41.5t-59.5 126.5q0 47 33 90t84 43q53 0 80.5 -33.5t27.5 -86.5q0 -40 -17 -85t-44 -75q6 -2 18 -2q86 0 159 102.5t115 275t42 371.5 q0 172 -79 266.5t-224 94.5q-104 0 -205 -45l-70 -398q-20 -125 -20 -157q0 -50 21 -81.5t51 -42.5t60.5 -15.5t51.5 -7t21 -9.5v-2h-740v2q0 7 14.5 10t37 4t50.5 12.5t54 30.5t48.5 61.5t33.5 102.5l184 1034q-194 31 -317 31q-151 0 -235.5 -64t-84.5 -192q0 -34 13 -88 q20 38 65.5 60t99.5 22q68 0 105 -36t37 -85q0 -50 -36.5 -87.5t-98.5 -37.5q-32 0 -61.5 10.5t-61 37t-51 82t-19.5 134.5z" />
<glyph unicode="&#x403;" horiz-adv-x="921" d="M-258 -305q0 62 40.5 98.5t98.5 36.5q66 0 113 -58t47 -155q0 -33 -10 -66q43 9 73 27.5t52.5 46.5t40 81t31.5 115.5t32 164.5l45 254q26 143 45 234.5t46.5 191t58.5 166.5t74.5 130.5t99.5 114.5l-2 2q-73 -53 -120 -83.5t-115 -57.5t-126 -27q-182 0 -182 183 q0 182 158 303t422 121q101 0 239 -30t248 -65.5t219 -65.5t160 -30q99 0 133 100q-104 0 -157.5 49.5t-53.5 106.5t32.5 89t78.5 32q52 0 91.5 -43.5t39.5 -122.5q0 -152 -120 -238t-319 -86q-109 0 -393.5 57.5t-412.5 57.5q-160 0 -255.5 -80t-95.5 -176q0 -71 44 -111 t122 -40q69 0 146 35t137.5 79t144.5 94t156 72q0 -2 1 -5.5t1 -4.5q-64 -24 -90 -105t-65 -335q-2 -18 -4 -28t-4.5 -27t-4.5 -31q-56 -344 -116.5 -548.5t-128.5 -306t-173 -171.5q-162 -105 -307 -105q-93 0 -154 43.5t-61 116.5zM670 1622q78 33 139 78.5t94 85t60 75.5 t53.5 57t58.5 21q39 0 61.5 -26t22.5 -60q0 -12 -12.5 -35t-47.5 -55.5t-86 -62t-141 -54t-200 -32.5q0 1 -1 3.5t-1 4.5z" />
<glyph unicode="&#x404;" horiz-adv-x="1409" d="M92 309q0 128 30.5 259.5t86 252.5t138.5 227.5t182.5 185t223.5 124t257 45.5q68 0 159.5 -17.5t122.5 -17.5q92 0 152 90h4l-72 -573q-5 -1 -7.5 5t-5.5 25t-5 43v3q-8 68 -20 123.5t-36 115t-56.5 99.5t-84 66t-117.5 26q-130 0 -252 -116t-209.5 -302t-133.5 -408 q99 166 262 166q49 0 134.5 -24.5t117.5 -24.5q60 0 98 68q1 0 3.5 -1t4.5 -1q-42 -94 -109 -144.5t-135 -50.5q-49 0 -133.5 25.5t-122.5 25.5q-78 0 -127 -59q-32 -157 -32 -340q0 -84 7 -151t27.5 -133.5t54.5 -110.5t90 -71.5t132 -27.5q150 0 286 70.5t218 187.5 t82 246q0 98 -69.5 166t-203.5 68q-57 0 -121.5 -23t-109.5 -64q72 -14 108.5 -59.5t36.5 -103.5q0 -47 -32 -85t-85 -38q-55 0 -83.5 33.5t-28.5 87.5q0 79 48.5 140.5t120 91.5t148.5 30q131 0 207 -68t76 -172q0 -101 -48.5 -196t-131.5 -167.5t-203.5 -116.5t-255.5 -44 q-146 0 -259.5 47.5t-184.5 131.5t-107.5 194.5t-36.5 240.5z" />
<glyph unicode="&#x405;" horiz-adv-x="1495" d="M-2 6q0 84 30.5 161t87 138.5t146 98t197.5 36.5q119 0 207 -71t88 -168q0 -84 -54.5 -144.5t-132.5 -60.5q-50 0 -79 30t-29 72q0 77 54.5 122.5t131.5 45.5q42 0 88 -16q-14 69 -93.5 123.5t-176.5 54.5q-148 0 -240 -116t-92 -300q0 -219 136.5 -351t361.5 -132 q119 0 216 37t159 101t95.5 147t33.5 178q0 78 -32.5 157t-84.5 147t-115 135.5t-126 133t-115 129.5t-84.5 136t-32.5 141q0 83 33 155t87.5 122t125 86.5t146.5 53.5t150 17q191 0 303.5 -70.5t112.5 -171.5q0 -62 -38.5 -101.5t-88.5 -39.5q-71 0 -106 43.5t-35 108.5 q0 51 20 101.5t54 82.5q-30 12 -87.5 22.5t-101.5 10.5q-138 0 -215.5 -75.5t-77.5 -180.5q0 -61 33.5 -128.5t86.5 -130.5t118 -130.5t129.5 -138.5t117.5 -143.5t86.5 -157t33.5 -167.5q0 -130 -57 -244t-161.5 -197.5t-261.5 -132t-346 -48.5q-124 0 -233.5 32.5 t-192.5 93t-131.5 154.5t-48.5 209z" />
<glyph unicode="&#x406;" horiz-adv-x="841" d="M-12 0v2q0 7 14.5 10t36.5 4t50 12.5t53.5 30.5t48.5 61.5t34 102.5l172 965q4 32 4 43q0 39 -14 66t-34.5 39t-44.5 19.5t-44.5 8.5t-34.5 4t-14 8v4h709v-4q0 -5 -20 -7.5t-50 -9t-61.5 -21t-59 -53.5t-37.5 -97l-172 -965q-6 -37 -6 -65q0 -50 21 -81.5t51 -42.5 t59.5 -15.5t50.5 -7t21 -9.5v-2h-733z" />
<glyph unicode="&#x407;" horiz-adv-x="841" d="M-12 0v2q0 7 14.5 10t36.5 4t50 12.5t53.5 30.5t48.5 61.5t34 102.5l172 965q4 32 4 43q0 39 -14 66t-34.5 39t-44.5 19.5t-44.5 8.5t-34.5 4t-14 8v4h709v-4q0 -5 -20 -7.5t-50 -9t-61.5 -21t-59 -53.5t-37.5 -97l-172 -965q-6 -37 -6 -65q0 -50 21 -81.5t51 -42.5 t59.5 -15.5t50.5 -7t21 -9.5v-2h-733zM301 1571q0 64 47 114t107 50q47 0 76.5 -32.5t29.5 -80.5q0 -65 -47.5 -113.5t-105.5 -48.5q-47 0 -77 31.5t-30 79.5zM680 1571q0 64 46.5 114t107.5 50q47 0 76.5 -32.5t29.5 -80.5q0 -65 -48 -113.5t-108 -48.5q-47 0 -75.5 31.5 t-28.5 79.5z" />
<glyph unicode="&#x408;" horiz-adv-x="888" d="M-182 -270q0 62 42.5 100.5t100.5 38.5q66 0 113 -57t47 -154q0 -30 -10 -68q62 15 95 55t54 130q39 172 94.5 481.5t87.5 427.5h-202q0 1 1 4.5t1 5.5h202q51 203 145 342t259 252q0 1 -1 2t-1 2q-92 -62 -191.5 -94.5t-187.5 -32.5q-168 0 -328 56q-22 -61 -49 -201 q-1 0 -4 1t-4 1q8 48 13.5 75.5t17.5 76.5t24 79t32 67.5t43 58.5t55.5 36t70.5 15q51 0 115.5 -19.5t116.5 -43t114.5 -43t110.5 -19.5q67 0 184 92l6 -8q-51 -39 -82.5 -74t-55 -73.5t-40.5 -102.5t-29 -130.5t-30 -189.5l-19 -125h197q-1 -2 -2 -5.5t-2 -4.5h-195 q-51 -299 -110 -495.5t-122 -300t-149 -173.5q-157 -147 -332 -147q-84 0 -140 46t-56 116z" />
<glyph unicode="&#x409;" horiz-adv-x="3065" d="M31 248q0 128 76 240t209.5 179.5t291.5 67.5q38 0 73.5 -6.5t72 -21.5t58.5 -45.5t22 -73.5q0 -52 -37 -82.5t-90 -30.5q-69 0 -114.5 48t-45.5 128q0 43 10 72q-83 -4 -149 -51t-105 -119t-59.5 -153t-20.5 -162q0 -157 72.5 -248.5t220.5 -91.5q115 0 241.5 47 t245.5 125t247 191t241 234t231 266t212.5 274t191.5 270q92 12 180 53.5t139 101.5h6l-116 -661q83 18 186 18q79 0 149.5 -10.5t137.5 -37t115 -66.5t77 -103t29 -143q0 -57 -17 -116t-61 -121.5t-108.5 -110.5t-170 -78.5t-235.5 -30.5h-737q-1 8 13 11t37 4t51 11 t54.5 28.5t49 60.5t32.5 102q33 197 97.5 558t89.5 507q-971 -1403 -1620 -1403q-75 0 -141.5 11t-128.5 38t-106 68.5t-70.5 105.5t-26.5 146zM2218 104q0 -48 27 -72t88 -24q70 0 138.5 34.5t123 95t88 150.5t33.5 193q0 158 -86.5 236t-219.5 78q-36 0 -77 -9 q-32 -174 -101 -571q-14 -75 -14 -111z" />
<glyph unicode="&#x40a;" horiz-adv-x="2056" d="M-344 -254q0 59 40 95t97 36q66 0 112 -52t46 -142q0 -37 -8 -64q46 11 74 40t60 119t66 261q7 34 19 98q94 470 136 619q61 215 152 335q75 100 228 212q-92 -60 -171.5 -86.5t-170.5 -26.5q-135 0 -275 51q-26 -80 -49 -199q-2 0 -5 1t-5 1q8 41 13.5 69t17 74.5t23 78 t29 69.5t37 61t45.5 38.5t56 15.5q52 0 111.5 -20t104.5 -43.5t100 -43.5t100 -20q42 0 75.5 12.5t90.5 46.5l4 -8q-33 -16 -58 -36t-43.5 -39.5t-33 -51t-24 -56.5t-19.5 -71.5t-16 -80.5t-17 -98.5t-20 -111.5l-19 -96h461l82 455q4 32 4 47q0 46 -18 74.5t-43.5 38 t-51 13t-43.5 7t-18 12.5h698q0 -9 -14.5 -13t-36.5 -5t-49 -10t-52 -24t-46.5 -51.5t-30.5 -88.5l-74 -422q98 20 207 20q72 0 137.5 -10t130 -34.5t111 -62.5t75.5 -98.5t29 -136.5q0 -60 -18 -118.5t-64.5 -118.5t-116.5 -105t-183.5 -73.5t-256.5 -28.5h-686q-1 8 13 11 t36.5 4t51 11t55 28.5t49 60.5t33.5 102l88 506h-461q-53 -320 -100.5 -498.5t-107 -286.5t-156.5 -190q-184 -154 -345 -154q-80 0 -136 44.5t-56 107.5zM1212 104q0 -48 25.5 -72t87.5 -24q71 0 139 32.5t122 90t87 146.5t33 194q0 150 -74 221.5t-202 71.5 q-47 0 -105 -10l-96 -543l-12 -61q-5 -40 -5 -46z" />
<glyph unicode="&#x40b;" horiz-adv-x="1701" d="M-18 1044q0 67 15.5 125t52 111t92.5 90.5t142.5 59.5t196.5 22q99 0 237 -21.5t250 -47t220.5 -47t154.5 -21.5q110 0 142 94q-103 0 -157 50.5t-54 107.5t33 89t79 32q52 0 92 -43.5t40 -122.5q0 -149 -119 -231.5t-320 -82.5q-86 0 -159 11l-86 -484q174 82 354 82 q348 0 348 -278q0 -39 -6 -86l-39 -230q-6 -37 -6 -65q0 -50 17.5 -81.5t42 -42.5t49 -15.5t42 -7t17.5 -9.5v-2h-666v2q0 7 12.5 10t31.5 4t43.5 12.5t47.5 30.5t43 61.5t31 102.5q51 295 51 377q0 93 -45 137.5t-125 44.5q-112 0 -246 -57l-71 -410q-21 -131 -21 -157 q0 -50 18 -81.5t43.5 -42.5t51 -15.5t43.5 -7t18 -9.5v-2h-708v2q0 7 14.5 10t37 4t50.5 12.5t53.5 30.5t48 61.5t33.5 102.5l185 1034q-194 31 -318 31q-151 0 -235 -64t-84 -192q0 -38 12 -88q20 38 66 60t100 22q67 0 104 -36t37 -85q0 -50 -36.5 -87.5t-98.5 -37.5 q-24 0 -47.5 5.5t-50.5 23.5t-47 45.5t-33.5 76.5t-13.5 113z" />
<glyph unicode="&#x40c;" horiz-adv-x="1386" d="M-45 0v2q0 7 14.5 10t37 4t50 12.5t53.5 30.5t49 61.5t34 102.5l172 965q4 32 4 43q0 46 -19.5 75.5t-46.5 40t-54.5 14.5t-47 6.5t-19.5 8.5v4h709v-4q0 -5 -20 -7.5t-49.5 -9t-61 -21t-59 -53.5t-37.5 -97l-86 -486h100l467 431q98 91 98 157q0 31 -24.5 48.5 t-54.5 21.5t-54.5 7.5t-24.5 8.5v4h519v-4q0 -5 -18 -7t-57.5 -11.5t-90.5 -30.5t-130.5 -75t-164.5 -134l-273 -252q50 -150 107 -287.5t128.5 -274.5t148.5 -252t170 -215t191.5 -169.5t214 -109t236.5 -39.5q118 0 240 49q-72 78 -72 170q0 56 42.5 110t99.5 54 q51 0 83.5 -33t32.5 -84q0 -41 -16.5 -79.5t-58 -77.5t-105 -67.5t-166 -46.5t-231.5 -18q-140 0 -272 35.5t-243 99t-211.5 152.5t-181.5 193t-149.5 223.5t-118.5 242t-86 250.5h-78l-83 -469q-7 -44 -7 -65q0 -50 21 -81.5t50.5 -42.5t59.5 -15.5t51 -7t21 -9.5v-2h-733z M698 1511q78 33 139 78.5t94.5 85.5t60.5 76t53.5 57t58.5 21q39 0 61.5 -26t22.5 -60q0 -12 -12.5 -35t-47.5 -56t-86.5 -62.5t-141.5 -54t-200 -32.5q0 1 -1 3.5t-1 4.5z" />
<glyph unicode="&#x40e;" horiz-adv-x="1357" d="M-139 -150q0 58 38.5 98t92.5 40q95 0 147 -73.5t54 -180.5q250 66 532 348l-485 1135q-24 57 -61 90.5t-68 41t-53.5 13t-22.5 12.5v4h686v-4q0 -7 -34.5 -12.5t-70 -16.5t-55 -47t9.5 -102l373 -870q163 207 278 424.5t150 386.5q-12 -2 -37 -2q-90 0 -154.5 51 t-64.5 133q0 53 32.5 97t102.5 44q66 0 108 -49.5t42 -134.5q0 -124 -61.5 -292.5t-162.5 -341.5t-239 -343.5t-284 -302.5t-303.5 -213.5t-291.5 -81.5q-81 0 -139.5 40.5t-58.5 108.5zM645 1681q0 51 32.5 84t78.5 33q48 0 73 -35.5t25 -83.5q0 -67 -47 -129q10 -2 31 -2 q106 0 218.5 56t198.5 151l11 -6q-55 -62 -120.5 -107.5t-126.5 -67.5t-109.5 -32t-88.5 -10q-87 0 -131.5 45t-44.5 104z" />
<glyph unicode="&#x40f;" horiz-adv-x="1581" d="M-27 0v4q1 6 21.5 8.5t51 8t62 19.5t59 53t38.5 100l26 153q31 175 61 298t68 225.5t89 178.5t115.5 139t154.5 124q0 1 -1 3t-1 3q-100 -60 -182.5 -87.5t-176.5 -27.5q-123 0 -262 53q-27 -84 -49 -198h-8q8 41 13.5 69.5t17 74.5t22.5 78.5t29 70t37 60.5t45 38.5 t55 15.5q53 0 113.5 -20t105.5 -43.5t100.5 -43.5t100.5 -20q41 0 74.5 13t91.5 47l6 -8q-48 -24 -81.5 -56t-55.5 -69t-39 -96.5t-28.5 -119t-27.5 -155.5q-5 -32 -8 -49l-145 -834h514l195 1112q13 72 7 118t-23 71t-39.5 37t-43 15t-34.5 5t-13 8v4h682v-4 q-1 -6 -15.5 -8.5t-36 -3.5t-49 -13t-52.5 -32t-47 -64t-33 -106l-166 -956q-9 -50 2 -86t33.5 -52t51 -26t54 -11.5t42 -4.5t15.5 -9v-4h-710q-84 -5 -84 -102q0 -21 7 -74.5t7 -83.5q0 -36 -12 -69.5t-37.5 -64t-74 -49t-113.5 -18.5q-52 0 -134 19q0 2 4 10q21 -6 44 -6 q53 0 88.5 28t51.5 70.5t33 95t32 99.5t49 86t83 53q0 1 -1 3t-1 3h-768z" />
<glyph unicode="&#x410;" horiz-adv-x="2543" d="M31 248q0 128 76 240t209.5 179.5t291.5 67.5q50 0 99.5 -14.5t88 -49t38.5 -81.5q0 -49 -36.5 -82t-90.5 -33q-69 0 -114.5 48t-45.5 128q0 43 10 72q-83 -4 -149 -51t-105 -119t-59.5 -153t-20.5 -162q0 -160 73.5 -250t219.5 -90q115 0 240.5 47t243.5 124.5t245 192 t237.5 233.5t228.5 266t211 273.5t192 270.5q92 12 178 53.5t137 101.5l6 -2l-199 -1235q-6 -38 -6 -65q1 -50 20.5 -81.5t47.5 -42.5t56 -15.5t47.5 -7t19.5 -9.5v-2h-719v2q0 7 15 10t37.5 4t50.5 12t54 30.5t48 62t32 102.5l50 303h-463q-585 -647 -1022 -647 q-75 0 -141.5 11t-128.5 38t-106 68.5t-70.5 105.5t-26.5 146zM1534 537h457l118 745q-306 -446 -575 -745z" />
<glyph unicode="&#x411;" horiz-adv-x="1363" d="M-12 0v2q0 7 14 10t35 4t47.5 12.5t51.5 30.5t46.5 61.5t32.5 102.5l57 332q38 214 90 339t150 222l-4 6q-23 -19 -62.5 -53.5t-61 -51.5t-52 -37.5t-59.5 -29t-60 -8.5q-68 0 -111 41.5t-43 124.5q0 77 27 148t80.5 132.5t146.5 98.5t213 37q102 0 257 -38.5t289 -77 t185 -38.5q76 0 101 74q-98 0 -151.5 51t-53.5 107q0 55 32.5 86.5t76.5 31.5q51 0 89 -43.5t38 -122.5q0 -145 -90.5 -212.5t-247.5 -67.5q-95 0 -327 29.5t-308 29.5q-155 0 -250.5 -65.5t-95.5 -173.5q0 -67 41 -105.5t104 -38.5q45 0 90.5 24t90 62.5t94 79t122 80 t154.5 59.5q0 -8 2 -10q-63 -23 -90 -109t-66 -337q73 16 199 16q76 0 144 -10t134 -36t113 -65.5t76 -102t29 -142.5q0 -57 -17 -116t-60.5 -122t-108 -111t-170 -79t-236.5 -31h-727zM498 104q0 -48 25 -72t85 -24q70 0 138.5 35t123.5 96.5t89 153t34 196.5 q0 78 -24.5 138.5t-67.5 96t-95 53.5t-112 18q-40 0 -84 -9l-98 -571q-14 -75 -14 -111z" />
<glyph unicode="&#x412;" horiz-adv-x="1771" d="M-6 737q0 93 50.5 189t147.5 181.5t224.5 153t294 107t344.5 39.5q115 0 212.5 -10t184.5 -34t147 -60.5t95 -92.5t35 -127q0 -57 -29.5 -111.5t-87.5 -101.5t-155.5 -78t-221.5 -36q129 -6 228.5 -38t156.5 -82t85 -106.5t28 -117.5q0 -62 -21.5 -119.5t-73 -111.5 t-129 -93.5t-197.5 -63.5t-270 -24h-688v2q0 7 15 10t38.5 5t53 16.5t57 39.5t52.5 79.5t38 130.5l187 1083q-110 -14 -222 -51t-217 -96t-190.5 -146t-130.5 -190q55 -4 98 -25t66.5 -50t35 -58.5t11.5 -57.5q0 -55 -36 -90t-85 -35q-56 0 -93.5 44.5t-37.5 125.5zM879 106 q0 -47 25 -72.5t87 -25.5h58q161 0 265.5 131t104.5 334q0 127 -85 198.5t-210 76.5v8q124 2 216 106t92 248q0 273 -338 276l-211 -1230q-4 -36 -4 -50z" />
<glyph unicode="&#x413;" horiz-adv-x="921" d="M-258 -305q0 62 40.5 98.5t98.5 36.5q66 0 113 -58t47 -155q0 -33 -10 -66q43 9 73 27.5t52.5 46.5t40 81t31.5 115.5t32 164.5l45 254q26 143 45 234.5t46.5 191t58.5 166.5t74.5 130.5t99.5 114.5l-2 2q-73 -53 -120 -83.5t-115 -57.5t-126 -27q-182 0 -182 183 q0 182 158 303t422 121q101 0 239 -30t248 -65.5t219 -65.5t160 -30q99 0 133 100q-104 0 -157.5 49.5t-53.5 106.5t32.5 89t78.5 32q52 0 91.5 -43.5t39.5 -122.5q0 -152 -120 -238t-319 -86q-109 0 -393.5 57.5t-412.5 57.5q-160 0 -255.5 -80t-95.5 -176q0 -71 44 -111 t122 -40q69 0 146 35t137.5 79t144.5 94t156 72q0 -2 1 -5.5t1 -4.5q-64 -24 -90 -105t-65 -335q-2 -18 -4 -28t-4.5 -27t-4.5 -31q-56 -344 -116.5 -548.5t-128.5 -306t-173 -171.5q-162 -105 -307 -105q-93 0 -154 43.5t-61 116.5z" />
<glyph unicode="&#x414;" horiz-adv-x="1933" d="M-6 739q0 94 49 190t142.5 181.5t218.5 152.5t289.5 106.5t342.5 39.5q73 0 139.5 -4t156 -19.5t163 -40.5t149 -71t127.5 -108t84.5 -154.5t32.5 -206.5q0 -107 -35.5 -218t-110 -216.5t-177 -188t-248 -132.5t-311.5 -50h-623v2q0 7 15 10t38.5 4t52.5 12t55.5 30.5 t49.5 62t33 102.5l133 783q6 30 6 51q0 42 -26.5 65t-58.5 26t-58.5 5t-26.5 8v4l496 70l4 -4l-183 -1067q-6 -42 -6 -62q0 -41 24 -67.5t81 -26.5h22q97 0 184 57.5t149.5 151t108.5 211t68.5 240t22.5 235.5q0 114 -32 201.5t-84 141.5t-126 88.5t-150.5 47.5t-164.5 13 q-153 0 -306.5 -35.5t-286 -100t-235 -162.5t-149.5 -214q55 -4 97.5 -23t65 -47t33.5 -56.5t11 -56.5q0 -55 -36 -91t-85 -36q-55 0 -90 43t-35 123z" />
<glyph unicode="&#x415;" horiz-adv-x="1363" d="M68 262q0 65 22.5 133t75.5 138t130.5 126t198 95.5t267.5 48.5l-4 6q-393 34 -393 252q0 146 151.5 246t396.5 100q172 0 263.5 -62.5t91.5 -154.5q0 -62 -37.5 -97.5t-87.5 -35.5q-63 0 -95 42.5t-32 98.5q0 50 17.5 97t49.5 77q-47 23 -129 23q-136 0 -218.5 -103 t-82.5 -258q0 -213 254 -225q0 -1 -1 -4.5t-1 -5.5q-98 -2 -193 -46.5t-170.5 -122t-122 -195.5t-46.5 -255q0 -142 84.5 -225.5t236.5 -83.5q130 0 243.5 41.5t190.5 110.5t121.5 158.5t44.5 185.5q0 111 -72 181t-202 70q-60 0 -122.5 -21.5t-109.5 -64.5 q74 -13 114 -61.5t40 -108.5q0 -46 -31 -82t-82 -36q-56 0 -87 37t-31 92q0 80 47.5 140t116.5 88t145 28q140 0 213.5 -73.5t73.5 -186.5q0 -96 -43.5 -187t-123 -164.5t-203 -118t-271.5 -44.5q-153 0 -270 31.5t-187.5 87.5t-105.5 128.5t-35 159.5z" />
<glyph unicode="&#x416;" horiz-adv-x="2062" d="M-678 -57q0 51 38 88t91 37q74 0 122 -61t48 -159q0 -40 -8 -71q159 0 346 143.5t371.5 388.5t369.5 580l-237 301q-42 54 -92 91.5t-91 53t-75.5 23.5t-54 11t-19.5 7v4h512v-2q0 -6 -29.5 -11t-64.5 -11.5t-64.5 -30.5t-29.5 -63q0 -48 34 -91l373 -471h94l88 488 q5 40 5 43q0 46 -19.5 75.5t-46.5 40t-54.5 14.5t-47 6.5t-19.5 8.5v4h709v-4q0 -5 -20 -7.5t-50 -9t-61.5 -21t-59 -53.5t-37.5 -97l-86 -486h101l467 431q98 91 98 157q0 31 -24.5 48.5t-54.5 21.5t-54.5 7.5t-24.5 8.5v4h519v-4q0 -5 -17.5 -7.5t-57 -12t-90.5 -30.5 t-131 -75t-165 -133l-273 -252q50 -150 107 -287.5t128.5 -274.5t148.5 -252t170 -215t191.5 -169.5t214 -109t236.5 -39.5q118 0 240 49q-72 78 -72 170q0 56 42.5 110t99.5 54q51 0 83.5 -33t32.5 -84q0 -41 -16.5 -79.5t-58 -77.5t-105 -67.5t-166 -46.5t-231.5 -18 q-140 0 -272 35.5t-243 99t-211.5 152.5t-181.5 193t-149.5 223.5t-118.5 242t-86 250.5h-78l-84 -469q-6 -37 -6 -65q0 -50 21 -81.5t50.5 -42t59.5 -15t51 -7t21 -10.5v-2h-733v2q0 7 14.5 10t37 5t50.5 13.5t54 30.5t48.5 61t32.5 101l82 467h-69q-84 -152 -182 -284 t-222 -252t-259 -205t-297.5 -135t-332.5 -50q-126 0 -198 46t-72 133z" />
<glyph unicode="&#x417;" horiz-adv-x="1337" d="M-10 229q0 173 110 287.5t277 114.5q109 0 189.5 -63t80.5 -179q0 -75 -46 -130.5t-112 -55.5q-55 0 -87.5 32t-32.5 82q0 84 61 135.5t145 51.5q21 0 31 -2q-29 58 -93.5 88.5t-135.5 30.5q-171 0 -274 -116t-103 -276q0 -156 119 -259t332 -103q100 0 182 36t134.5 93 t89 131t52 148t15.5 147q0 171 -102 271.5t-255 105.5v10q64 4 127.5 30t117 69.5t87 111.5t33.5 147q0 109 -64.5 166.5t-165.5 57.5q-79 0 -161 -29q67 -61 67 -160q0 -67 -42.5 -119.5t-108.5 -52.5q-64 0 -98.5 37.5t-34.5 85.5q0 110 121 181t323 71q211 0 330 -73 t119 -189q0 -96 -72.5 -172t-201.5 -118.5t-290 -43.5l2 -4q127 -2 228.5 -27t166.5 -63.5t108 -91.5t61 -108t18 -116q0 -110 -52.5 -208t-148.5 -173t-242.5 -119t-322.5 -44q-235 0 -358 106.5t-123 267.5z" />
<glyph unicode="&#x418;" horiz-adv-x="1550" d="M-322 -176q0 59 40.5 95t97.5 36q58 0 107.5 -52.5t49.5 -144.5q0 -36 -8 -63q80 18 115.5 89t73.5 273q89 489 130 643q60 227 150 350q81 109 246 222l-2 4q-93 -60 -174 -86.5t-176 -26.5q-137 0 -265 51q-23 -60 -49 -198h-10q8 41 13.5 69.5t17 74.5t22.5 78.5 t29 70t37 60.5t45 38.5t55 15.5q53 0 112.5 -20t104 -43.5t99.5 -43.5t100 -20q42 0 76 13t92 47l4 -8q-110 -54 -147.5 -146t-75.5 -333q-10 -60 -15 -93q-61 -361 -114 -541t-125 -296q5 -5 6 -5q57 55 112 119t94.5 116t92 131.5t81.5 126.5t85 140q34 55 82 137 t79.5 136t76.5 126t78.5 120.5t78 106.5t83 95.5t86 75.5t93.5 60t100 35.5t111 13.5q84 0 138.5 -38t54.5 -104q0 -59 -39.5 -94t-97.5 -35q-90 0 -132.5 73.5t-17.5 176.5q-44 -9 -77 -64.5t-56 -193.5l-148 -879q-20 -125 -20 -157q0 -50 20 -81.5t49 -42.5t57.5 -15.5 t48.5 -7t20 -9.5v-2h-725v2q0 7 14.5 10t37 4t50.5 12.5t53.5 30.5t48 61.5t33.5 102.5l100 561q42 240 121 394q-1 0 -3 1t-3 1q-104 -138 -352 -564q-72 -122 -132.5 -217t-142 -208t-170.5 -207.5t-180 -163.5q-94 -70 -176.5 -109t-175.5 -39q-81 0 -137 44.5t-56 107.5 z" />
<glyph unicode="&#x419;" horiz-adv-x="1585" d="M-322 -176q0 59 40.5 95t97.5 36q58 0 107.5 -52.5t49.5 -144.5q0 -36 -8 -63q80 18 115.5 89t73.5 273q89 489 130 643q60 227 150 350q81 109 246 222l-2 4q-93 -60 -174 -86.5t-176 -26.5q-137 0 -265 51q-23 -60 -49 -198h-10q8 41 13.5 69.5t17 74.5t22.5 78.5 t29 70t37 60.5t45 38.5t55 15.5q53 0 112.5 -20t104 -43.5t99.5 -43.5t100 -20q42 0 76 13t92 47l4 -8q-110 -54 -147.5 -146t-75.5 -333q-10 -60 -15 -93q-61 -361 -114 -541t-125 -296q5 -5 6 -5q57 55 112 119t94.5 116t92 131.5t81.5 126.5t85 140q34 55 82 137 t79.5 136t76.5 126t78.5 120.5t78 106.5t83 95.5t86 75.5t93.5 60t100 35.5t111 13.5q84 0 138.5 -38t54.5 -104q0 -59 -39.5 -94t-97.5 -35q-90 0 -132.5 73.5t-17.5 176.5q-44 -9 -77 -64.5t-56 -193.5l-148 -879q-20 -125 -20 -157q0 -50 20 -81.5t49 -42.5t57.5 -15.5 t48.5 -7t20 -9.5v-2h-725v2q0 7 14.5 10t37 4t50.5 12.5t53.5 30.5t48 61.5t33.5 102.5l100 561q42 240 121 394q-1 0 -3 1t-3 1q-104 -138 -352 -564q-72 -122 -132.5 -217t-142 -208t-170.5 -207.5t-180 -163.5q-94 -70 -176.5 -109t-175.5 -39q-81 0 -137 44.5t-56 107.5 zM791 1681q0 51 32.5 84t77.5 33q48 0 73 -35.5t25 -83.5q0 -67 -47 -129q10 -2 31 -2q106 0 219 56t199 151l10 -6q-55 -62 -120.5 -107.5t-126 -67.5t-109 -32t-88.5 -10q-87 0 -131.5 45t-44.5 104z" />
<glyph unicode="&#x41a;" horiz-adv-x="1374" d="M-45 0v2q0 7 14.5 10t37 4t50 12.5t53.5 30.5t49 61.5t34 102.5l172 965q4 32 4 43q0 46 -19.5 75.5t-46.5 40t-54.5 14.5t-47 6.5t-19.5 8.5v4h709v-4q0 -5 -20 -7.5t-49.5 -9t-61 -21t-59 -53.5t-37.5 -97l-86 -486h100l467 431q98 91 98 157q0 31 -24.5 48.5 t-54.5 21.5t-54.5 7.5t-24.5 8.5v4h519v-4q0 -5 -18 -7t-57.5 -11.5t-90.5 -30.5t-130.5 -75t-164.5 -134l-273 -252q50 -150 107 -287.5t128.5 -274.5t148.5 -252t170 -215t191.5 -169.5t214 -109t236.5 -39.5q118 0 240 49q-72 78 -72 170q0 56 42.5 110t99.5 54 q51 0 83.5 -33t32.5 -84q0 -41 -16.5 -79.5t-58 -77.5t-105 -67.5t-166 -46.5t-231.5 -18q-140 0 -272 35.5t-243 99t-211.5 152.5t-181.5 193t-149.5 223.5t-118.5 242t-86 250.5h-78l-83 -469q-7 -44 -7 -65q0 -50 21 -81.5t50.5 -42.5t59.5 -15.5t51 -7t21 -9.5v-2h-733z " />
<glyph unicode="&#x41b;" horiz-adv-x="2543" d="M31 248q0 128 76 240t209.5 179.5t291.5 67.5q50 0 99.5 -14.5t88 -49t38.5 -81.5q0 -49 -36.5 -82t-90.5 -33q-69 0 -114.5 48t-45.5 128q0 43 10 72q-83 -4 -149 -51t-105 -119t-59.5 -153t-20.5 -162q0 -160 73.5 -250t219.5 -90q115 0 240.5 47t243.5 124.5t245 192 t237.5 233.5t228.5 266t211 273.5t192 270.5q92 12 178 53.5t137 101.5l6 -2l-199 -1235q-6 -38 -6 -65q1 -50 20.5 -81.5t47.5 -42.5t56 -15.5t47.5 -7t19.5 -9.5v-2h-719v2q0 7 14.5 10t37 4t50.5 12t54 30.5t48.5 62t32.5 102.5l170 1059q-65 -93 -119.5 -170 t-140.5 -191.5t-162.5 -207.5t-176.5 -204t-191 -197t-198.5 -170.5t-206 -139.5t-205.5 -89t-205 -34q-75 0 -141.5 11t-128.5 38t-106 68.5t-70.5 105.5t-26.5 146z" />
<glyph unicode="&#x41c;" horiz-adv-x="2799" d="M31 109q0 88 40 170.5t108.5 144t166.5 98.5t207 37q91 0 147 -36t56 -99q0 -44 -33 -74.5t-82 -30.5q-63 0 -103 44t-40 116q0 45 8 68q-61 -3 -112.5 -31.5t-87 -72.5t-60.5 -100.5t-37 -117t-12 -121.5q0 -65 15 -121.5t46 -104t86.5 -75.5t130.5 -28 q169 0 316.5 80.5t256 219t191 326.5t131 401t66.5 445q-117 17 -209 17q-85 0 -156 -10.5t-133 -35t-97.5 -70t-35.5 -108.5q0 -51 22 -87t56 -52q7 86 50.5 135t102.5 49q41 0 67.5 -26.5t26.5 -63.5q0 -54 -40.5 -90.5t-100.5 -36.5q-87 0 -144 47.5t-57 133.5 q0 98 52 170t140.5 111.5t190.5 58t218 18.5q152 0 311 -29l225 -1020l559 1022h438v-4q0 -5 -20 -7.5t-50.5 -9t-62 -21t-58.5 -53.5t-36 -97l-135 -873q-20 -125 -20 -157q0 -50 20.5 -81.5t49.5 -42.5t58 -15.5t49.5 -7t20.5 -9.5v-2h-723v2q0 7 15 10t37.5 4t51 12 t54.5 30.5t48 62t32 102.5l164 998l-7 2l-681 -1248q-46 187 -91.5 388.5t-107 481t-86.5 390.5q-9 -139 -32.5 -280t-65.5 -287t-98.5 -277t-135.5 -247t-172.5 -200t-214.5 -133t-256 -49q-69 0 -130.5 11t-118.5 37.5t-98.5 65.5t-66 99t-24.5 134z" />
<glyph unicode="&#x41d;" horiz-adv-x="1589" d="M-270 -281q0 59 40 95t97 36q66 0 111 -53t45 -143q0 -34 -9 -64q65 14 103 62t59 155q49 244 91 468t50 266q41 205 96.5 336t132 217.5t206.5 177.5v6q-93 -60 -175.5 -87.5t-175.5 -27.5q-135 0 -266 51q-27 -81 -49 -198h-10q8 42 12 60.5t14.5 64t19 70t22 63 t28.5 60.5t34 45t42 33.5t49 10.5q52 0 111.5 -20t104.5 -43.5t100 -43.5t100 -20q41 0 74.5 13t91.5 47l4 -8q-36 -17 -63 -39.5t-47.5 -45.5t-36.5 -60t-26.5 -69t-21.5 -87t-18 -100t-18 -122q-10 -66 -15 -102h469l16 100q24 150 70.5 272.5t116 217t168.5 146.5t219 52 q88 0 144 -37.5t56 -105.5q0 -59 -39.5 -94t-97.5 -35q-68 0 -110.5 56.5t-42.5 144.5q0 15 4 51q-28 -6 -50 -27t-44.5 -79t-38.5 -154l-162 -1008q-7 -41 -4 -65q1 -50 21.5 -81.5t49.5 -42.5t57 -15.5t48 -7t20 -9.5v-2h-712v2q0 7 14.5 10t37 4t50.5 12t53.5 30.5t47 62 t30.5 102.5l76 490h-469q-52 -320 -105 -509.5t-115.5 -297t-160.5 -191.5q-172 -147 -332 -147q-80 0 -136 44t-56 107z" />
<glyph unicode="&#x41e;" horiz-adv-x="1513" d="M109 530q0 111 28 221t83.5 210.5t132 184.5t180.5 146.5t223 91.5l6 -12q-90 -41 -163 -154t-116 -260t-65.5 -302.5t-22.5 -301.5q0 -74 12 -136t39 -116t78 -85t121 -31q80 0 151 40t123.5 107t96 155.5t72.5 183t48.5 192.5t28.5 182t9 153q0 162 -66.5 259.5 t-187.5 97.5q-63 0 -121.5 -40.5t-99.5 -103.5t-67.5 -138.5t-31.5 -147.5q34 12 72 12q66 0 115 -35.5t49 -93.5q0 -37 -28.5 -69.5t-80.5 -32.5q-64 0 -101.5 52t-37.5 124q0 68 16.5 139t51.5 138t83 119t116 84t146 32q145 0 255 -72.5t167.5 -197t57.5 -281.5 q0 -126 -37.5 -251.5t-111 -236t-172.5 -196t-231 -135.5t-278 -50q-255 0 -398.5 146t-143.5 409z" />
<glyph unicode="&#x41f;" horiz-adv-x="1759" d="M-119 -281q0 59 40 95t97 36q59 0 108.5 -51t49.5 -145q0 -31 -10 -64q64 14 102 64t62 160q21 96 96 518q134 785 526 901q-350 31 -450 31q-189 0 -282 -60t-93 -198q0 -47 10 -88q21 38 63.5 58.5t94.5 20.5q65 0 104 -36t39 -84t-35.5 -85.5t-95.5 -37.5 q-37 0 -69.5 14.5t-61.5 46.5t-46 92t-17 142q0 61 17.5 120.5t59.5 119t104 104t160 72.5t218 28q110 0 281.5 -30.5t320.5 -67t313 -67t262 -30.5q139 0 181 115q-53 0 -94.5 15.5t-64 40t-33.5 51t-11 51.5q0 57 32 89t78 32q52 0 91.5 -43.5t39.5 -122.5 q0 -140 -131 -240t-327 -100l-144 -871q-20 -125 -20 -157q0 -50 20 -81.5t48.5 -42.5t57 -15.5t48.5 -7t20 -9.5v-2h-708v2q0 7 14 10t35 4t47.5 12.5t51.5 30.5t46.5 61.5t32.5 102.5l172 979l-356 29q-84 -21 -117 -116t-69 -332q-5 -29 -7 -44q-61 -403 -106 -575 q-32 -122 -86 -227.5t-128.5 -189t-174.5 -131.5t-213 -48q-81 0 -137 44t-56 107z" />
<glyph unicode="&#x420;" horiz-adv-x="1751" d="M-6 750q0 95 46.5 189.5t139 178.5t218.5 149.5t297 103.5t362 38q109 0 204.5 -10.5t191.5 -38t163.5 -70.5t110 -113.5t42.5 -162.5q0 -108 -55 -196.5t-145.5 -142.5t-199.5 -83t-224 -29q-57 0 -109 6l2 11q40 -5 60 -5q110 0 193.5 66t124 170t40.5 227 q0 71 -21.5 133t-63 110.5t-109 76.5t-154.5 28l-188 -1071q-21 -131 -21 -157q0 -50 21 -81.5t51 -42.5t60.5 -15.5t51.5 -7t21 -9.5v-2h-735v2q0 7 14.5 10t37 4t50.5 12.5t53.5 30.5t48 61.5t33.5 102.5l207 1153q-118 -12 -235.5 -48.5t-224.5 -95t-192 -146.5 t-128 -193q58 -3 101.5 -23t65.5 -49t32 -56.5t10 -53.5q0 -55 -37 -91t-86 -36q-55 0 -90 43t-35 123z" />
<glyph unicode="&#x421;" horiz-adv-x="1492" d="M104 346q0 156 42 309t124.5 288t196 238.5t267 163.5t325.5 60q62 0 138.5 -14t117.5 -21.5t88.5 11.5t85.5 77l4 -2l-72 -569h-2q-2 0 -3.5 2.5t-2.5 8.5t-2 13.5t-2.5 21.5t-3.5 28q-10 70 -23.5 127.5t-39.5 116.5t-61 99t-89.5 65.5t-122.5 25.5q-138 0 -262 -106.5 t-207 -274t-131.5 -372t-48.5 -402.5q0 -79 8 -142.5t30.5 -128t59.5 -108t99.5 -70.5t146.5 -27q157 0 298 80.5t226.5 217.5t85.5 292q0 148 -82 247t-239 99q-103 0 -184 -58t-103 -140q29 10 78 10q69 0 118.5 -34t49.5 -101q0 -44 -32.5 -78.5t-86.5 -34.5 q-66 0 -105.5 48t-39.5 124q0 115 91 195t218 80q150 0 238.5 -98t88.5 -257q0 -118 -51 -229.5t-137 -194.5t-206.5 -133.5t-252.5 -50.5q-139 0 -248.5 32t-181 86.5t-118 131.5t-66 163t-19.5 185z" />
<glyph unicode="&#x422;" horiz-adv-x="1226" d="M-2 1044q0 67 15.5 125t52.5 111t93 90.5t142.5 59.5t196.5 22q99 0 237 -21.5t250 -47t220.5 -47t154.5 -21.5q109 0 141 94q-103 0 -157 50.5t-54 107.5t33.5 89t79.5 32q52 0 91.5 -43.5t39.5 -122.5q0 -150 -119 -232t-319 -82q-87 0 -160 11l-160 -904 q-20 -125 -20 -157q0 -50 21 -81.5t51 -42.5t60.5 -15.5t51.5 -7t21 -9.5v-2h-740v2q0 7 14.5 10t37 4t50.5 12.5t54 30.5t48.5 61.5t33.5 102.5l184 1034q-194 31 -317 31q-151 0 -235.5 -64t-84.5 -192q0 -38 12 -88q20 38 66 60t100 22q68 0 105 -36t37 -85t-37 -87 t-99 -38q-24 0 -47.5 5.5t-50.5 23.5t-47 45.5t-33.5 76.5t-13.5 113z" />
<glyph unicode="&#x423;" horiz-adv-x="1306" d="M-139 -150q0 58 38.5 98t92.5 40q95 0 147 -73.5t54 -180.5q250 66 532 348l-485 1135q-24 57 -61 90.5t-68 41t-53.5 13t-22.5 12.5v4h686v-4q0 -7 -34.5 -12.5t-70 -16.5t-55 -47t9.5 -102l373 -870q163 207 278 424.5t150 386.5q-12 -2 -37 -2q-90 0 -154.5 51 t-64.5 133q0 53 32.5 97t102.5 44q66 0 108 -49.5t42 -134.5q0 -124 -61.5 -292.5t-162.5 -341.5t-239 -343.5t-284 -302.5t-303.5 -213.5t-291.5 -81.5q-81 0 -139.5 40.5t-58.5 108.5z" />
<glyph unicode="&#x424;" horiz-adv-x="1689" d="M78 561q0 156 95.5 291t271 223t397.5 107q163 368 501 368q76 0 133.5 -42t57.5 -103t-39 -96t-98 -35t-96.5 40.5t-49 96.5t-4.5 117q-32 -8 -54.5 -34t-46.5 -102.5t-48 -213.5q270 -21 419.5 -150.5t149.5 -316.5q0 -113 -51 -216t-146 -186.5t-243.5 -138 t-331.5 -66.5q-42 -128 -98 -210.5t-144 -159.5q-169 -148 -331 -148q-83 0 -137 44.5t-54 107.5q0 61 37 96t96 35q67 0 113.5 -53.5t46.5 -143.5q0 -36 -8 -63q71 15 113.5 86.5t68.5 228.5l29 182q-270 28 -409.5 152t-139.5 303zM381 477q0 -151 66 -245.5t182 -114.5 q39 223 125 741q27 175 86 313q-87 -10 -170 -66.5t-147 -146t-103 -216t-39 -265.5zM899 115q95 8 180 59.5t149 138.5t101 214.5t37 277.5q0 146 -71 246t-197 118q-10 -51 -15 -88q-8 -50 -28.5 -172.5t-28.5 -172.5t-25 -147t-27 -147.5t-23.5 -119t-26 -117.5 t-25.5 -90z" />
<glyph unicode="&#x425;" horiz-adv-x="2160" d="M18 -45q0 99 44 189.5t120 157.5t185.5 107t234.5 40q32 0 66.5 -7.5t68 -23.5t55 -46t21.5 -69q0 -51 -37 -80.5t-90 -29.5q-60 0 -109 46t-49 132q0 29 9 63q-103 -4 -180 -75t-113.5 -175.5t-36.5 -224.5q0 -71 16.5 -134t50 -116t92 -84t134.5 -31q84 0 166 30 t153 79.5t143.5 127t132 157.5t125 188t116 200.5t110.5 211.5l-234 727q-82 -56 -202 -217l-9 8q52 69 93.5 115.5t92 90.5t104 65.5t110.5 21.5q68 0 110.5 -57t83.5 -193l119 -363q44 95 86 174t103.5 169t123 152t140.5 103t160 41q51 0 87.5 -14.5t52.5 -36.5t23 -40 t7 -34q0 -50 -34.5 -77t-84.5 -27q-70 0 -114 47t-44 127q0 17 2 27q-75 -24 -149.5 -88.5t-138.5 -155.5t-116 -184t-100 -199l234 -711q33 23 72.5 64t58.5 63.5t71 87.5l9 -6q-46 -58 -76 -94t-73 -78.5t-79 -66t-81.5 -40t-92.5 -16.5q-69 0 -110.5 57t-83.5 193 l-115 350q-58 -116 -108 -208t-115.5 -199t-126 -187.5t-135.5 -159t-149 -128.5t-161 -80.5t-176 -30.5q-71 0 -134.5 10.5t-125 38t-105.5 68.5t-71 107.5t-27 150.5z" />
<glyph unicode="&#x426;" horiz-adv-x="1613" d="M-35 0v4q1 6 22.5 8.5t52.5 8t63.5 19.5t60.5 53t39 100l35 190q16 87 30.5 154t37.5 151.5t48.5 150.5t62 139t79 130t99.5 110.5t124 92.5l-4 6q-98 -60 -182 -87.5t-181 -27.5q-123 0 -256 53q-27 -84 -49 -198h-10q8 41 13.5 69.5t17 74.5t22.5 78.5t29 70t37 60.5 t45 38.5t55 15.5q53 0 113.5 -20t105.5 -43.5t101.5 -43.5t101.5 -20q40 0 74.5 13t91.5 47l4 -8q-28 -14 -50.5 -29t-40.5 -36.5t-31.5 -39.5t-25.5 -50t-19.5 -55t-17 -67.5t-15.5 -75t-16 -89.5q-1 -5 -1.5 -9t-1.5 -8l-166 -918h522l201 1129q12 66 5.5 109t-23 66 t-38.5 34t-42 13.5t-33.5 4.5t-12.5 8v4h670v-4q-1 -6 -15 -8.5t-35 -3.5t-47.5 -13t-50.5 -32t-46 -64t-33 -106l-164 -926q-6 -48 -6 -69q0 -47 23 -77.5t55.5 -41.5t65.5 -16t57.5 -7t25.5 -8v-4q-51 -11 -68.5 -35.5t-17.5 -66.5q0 -21 7 -74.5t7 -83.5q0 -37 -11.5 -70 t-37 -63.5t-73.5 -49t-113 -18.5q-49 0 -135 19l4 10q16 -4 45 -4q62 0 99.5 38.5t55.5 96.5t34.5 117.5t52.5 110.5t94 67v6h-1520z" />
<glyph unicode="&#x427;" horiz-adv-x="1665" d="M178 1036q37 199 68 285q61 168 155 168q47 0 101 -18.5t95 -40t92 -40t93 -18.5q61 0 107 41l6 -6q-64 -55 -120 -212t-56 -300q0 -114 47 -183t149 -69q121 0 228 72l86 473q1 5 3.5 20.5t2.5 22.5q0 39 -13 66t-32.5 39t-42.5 19.5t-42.5 8.5t-32.5 4t-13 8v4h696v-4 q0 -5 -20 -7.5t-49.5 -9t-61 -21t-59 -53.5t-37.5 -97l-172 -965q-6 -37 -6 -65q0 -50 20 -81.5t49 -42.5t58 -15.5t49 -7t20 -9.5v-2h-727v2q0 7 14.5 10t37 4t50.5 12.5t54 30.5t48.5 61.5t33.5 102.5l84 479q-73 -52 -176.5 -79t-196.5 -27q-158 0 -247 67.5t-89 182.5 q0 267 373 504l-4 6q-103 -63 -185 -94t-167 -31q-96 0 -203 45q-29 -91 -58 -240h-10z" />
<glyph unicode="&#x428;" horiz-adv-x="2158" d="M-43 0v4q1 6 22.5 8.5t52.5 8t63.5 19.5t60.5 53t39 100l34 190q19 102 37 180t46 175t63.5 173.5t83 153.5t111.5 139t141 107l-4 6q-98 -60 -182 -87.5t-181 -27.5q-123 0 -256 53q-27 -84 -49 -198h-10q8 41 13.5 69.5t17 74.5t22.5 78.5t29 70t37 60.5t45 38.5 t55 15.5q53 0 113.5 -20t105.5 -43.5t101.5 -43.5t101.5 -20q40 0 74.5 13t91.5 47l4 -8q-28 -14 -50.5 -29t-40.5 -36.5t-31.5 -39.5t-25.5 -50t-19.5 -55t-17 -67.5t-15.5 -75t-16 -89.5q-1 -5 -1.5 -9t-1.5 -8l-166 -918h372l172 979q26 148 72 268.5t116 218 t172.5 151.5t229.5 54q79 0 133 -41t54 -102q0 -59 -38.5 -93t-95.5 -34q-88 0 -126.5 74.5t-20.5 171.5q-43 -8 -75 -64t-56 -196l-238 -1387h396l194 1098q12 66 5.5 109t-22.5 66t-38 34t-42 13.5t-33.5 5t-12.5 8.5v4h670v-4q-1 -6 -15 -8.5t-35 -4t-47.5 -13t-51 -31.5 t-46.5 -64.5t-33 -106.5l-160 -915q-9 -54 2 -91.5t34 -55t51.5 -28t54.5 -12t43 -4t16 -8.5v-4h-2099z" />
<glyph unicode="&#x429;" horiz-adv-x="2158" d="M-43 0v4q1 6 22.5 8.5t52.5 8t63.5 19.5t60.5 53t39 100l34 190q19 102 37 180t46 175t63.5 173.5t83 153.5t111.5 139t141 107l-4 6q-98 -60 -182 -87.5t-181 -27.5q-123 0 -256 53q-27 -84 -49 -198h-10q8 41 13.5 69.5t17 74.5t22.5 78.5t29 70t37 60.5t45 38.5 t55 15.5q53 0 113.5 -20t105.5 -43.5t101.5 -43.5t101.5 -20q40 0 74.5 13t91.5 47l4 -8q-28 -14 -50.5 -29t-40.5 -36.5t-31.5 -39.5t-25.5 -50t-19.5 -55t-17 -67.5t-15.5 -75t-16 -89.5q-1 -5 -1.5 -9t-1.5 -8l-166 -918h372l172 979q26 148 72 268.5t116 218 t172.5 151.5t229.5 54q79 0 133 -41t54 -102q0 -59 -38.5 -93t-95.5 -34q-88 0 -126.5 74.5t-20.5 171.5q-43 -8 -75 -64t-56 -196l-238 -1387h396l194 1098q12 66 5.5 109t-22.5 66t-38 34t-42 13.5t-33.5 5t-12.5 8.5v4h670v-4q-1 -6 -15 -8.5t-35 -4t-47.5 -13t-51 -31.5 t-46.5 -64.5t-33 -106.5l-157 -895q-7 -56 -7 -69q0 -47 23 -77.5t56 -41.5t66 -16t57.5 -7t25.5 -8v-4q-51 -11 -68.5 -35.5t-17.5 -66.5q0 -21 7 -74.5t7 -83.5q0 -37 -11.5 -70t-37 -63.5t-73.5 -49t-113 -18.5q-50 0 -136 19l4 10q16 -4 46 -4q46 0 78 20.5t50 54.5 t31 75.5t26 85.5t29.5 82.5t47 69t73.5 42.5v6h-2064z" />
<glyph unicode="&#x42a;" horiz-adv-x="1515" d="M35 1051q14 79 34.5 147.5t49 128t67.5 93.5t84 34q86 0 206.5 -26t228.5 -52t163 -26q38 0 71.5 10.5t98.5 46.5l4 -6q-109 -62 -159 -187.5t-95 -414.5q82 18 193 18q76 0 144.5 -10.5t134.5 -36.5t113.5 -65.5t76.5 -102.5t29 -143q0 -140 -87.5 -246.5t-225 -159.5 t-298.5 -53h-718v2q0 7 14.5 10t37 4t50.5 12.5t53.5 30.5t48 61.5t33.5 102.5l16 94q30 174 58 295.5t65.5 232.5t85 191.5t112 150.5t150.5 132q-2 2 -2 4q-185 -131 -430 -131q-176 0 -342 61q-24 -64 -57 -204q-1 0 -4 1t-4 1zM670 106q0 -48 25 -72t85 -24 q70 0 138.5 35t123.5 95.5t89 152t34 196.5q0 153 -84.5 229.5t-210.5 76.5q-40 0 -84 -9l-102 -569q-14 -75 -14 -111z" />
<glyph unicode="&#x42b;" horiz-adv-x="2017" d="M-12 0v2q0 7 14 10t35 4t47.5 12.5t51.5 30.5t46.5 61.5t32.5 102.5l172 965q4 32 4 43q0 39 -14 66t-34.5 39t-44.5 19.5t-44.5 8.5t-34.5 4t-14 8v4h708v-4q0 -5 -20 -7.5t-49.5 -9t-61 -21t-59 -53.5t-37.5 -97l-70 -389q82 16 183 16q78 0 146.5 -9.5t136.5 -34 t116.5 -63.5t78.5 -103t30 -146q0 -57 -17 -116t-60.5 -122t-108 -111t-170 -79t-236.5 -31h-727zM498 106q0 -48 25 -72t85 -24q70 0 138.5 35t123.5 95.5t89 152t34 196.5q0 153 -84.5 229.5t-210.5 76.5q-40 0 -84 -9q0 -1 -1 -3t-1 -3l-100 -563q-14 -75 -14 -111z M1161 0v2q0 7 14.5 10t37 4t50 12.5t53.5 30.5t49 61.5t34 102.5l172 965q4 32 4 43q0 39 -14 66t-34.5 39t-44.5 19.5t-44.5 8.5t-34.5 4t-14 8v4h708v-4q0 -5 -20 -7.5t-49.5 -9t-61 -21t-59 -53.5t-37.5 -97l-172 -965q-6 -37 -6 -65q0 -50 21 -81.5t50.5 -42.5t59 -15.5 t50.5 -7t21 -9.5v-2h-733z" />
<glyph unicode="&#x42c;" horiz-adv-x="1339" d="M-12 0v2q0 7 14 10t35 4t47.5 12.5t51.5 30.5t46.5 61.5t32.5 102.5l172 965q4 32 4 43q0 39 -14 66t-34.5 39t-44.5 19.5t-44.5 8.5t-34.5 4t-14 8v4h708v-4q0 -5 -20 -7.5t-49.5 -9t-61 -21t-59 -53.5t-37.5 -97l-70 -389q82 16 183 16q78 0 146.5 -9.5t136.5 -34 t116.5 -63.5t78.5 -103t30 -146q0 -57 -17 -116t-60.5 -122t-108 -111t-170 -79t-236.5 -31h-727zM498 104q0 -48 25 -72t85 -24q70 0 138.5 35t123.5 96.5t89 153t34 196.5q0 153 -84.5 229.5t-210.5 76.5q-40 0 -84 -9q0 -1 -1 -3t-1 -3l-100 -565q-14 -75 -14 -111z" />
<glyph unicode="&#x42d;" horiz-adv-x="1406" d="M-27 59q0 168 104 277.5t265 109.5q71 0 132 -24.5t102.5 -80.5t41.5 -134q0 -68 -40 -124t-107 -56q-54 0 -86.5 30t-32.5 82q0 74 59 127t138 53q5 0 15.5 -1t15.5 -1q-29 57 -97.5 88t-140.5 31q-160 0 -260 -109.5t-100 -267.5q0 -146 109.5 -247t301.5 -101 q88 0 166 33.5t136.5 90t108 135t83.5 163t60.5 180t41.5 180.5t23 169q-39 -74 -94 -111t-113 -37q-41 0 -130 25.5t-134 25.5q-79 0 -127 -59l-8 6q84 180 264 180q53 0 146 -27.5t122 -27.5q28 0 46 18t25 52t9 58.5t2 59.5q0 264 -86.5 412.5t-259.5 148.5 q-48 0 -119 -15t-115 -44q44 -27 68 -79.5t24 -104.5q0 -66 -41.5 -115t-109.5 -49q-60 0 -93.5 37.5t-33.5 83.5q0 122 135 212.5t350 90.5q146 0 262 -53t189 -145.5t111 -212.5t38 -259q0 -122 -28 -245.5t-79.5 -239t-132 -216.5t-179 -176t-226 -118t-268.5 -43 q-214 0 -333.5 101t-119.5 263z" />
<glyph unicode="&#x42e;" horiz-adv-x="2211" d="M-27 0v2q0 7 14.5 10t37 4t50 12.5t53.5 30.5t49 61.5t34 102.5l172 965q4 32 4 43q0 39 -14 66t-34.5 39t-44.5 19.5t-44.5 8.5t-34.5 4t-14 8v4h708v-4q0 -5 -20 -7.5t-49.5 -9t-61 -21t-59 -53.5t-37.5 -97l-82 -455h242q58 241 228.5 422.5t393.5 226.5q4 -8 4 -12 q-86 -37 -157.5 -147t-115 -255t-67.5 -301.5t-24 -301.5q0 -83 11 -147t38 -118.5t77.5 -84t123.5 -29.5q91 0 169 51t132.5 135.5t96.5 188.5t66 217.5t36 214t12 184.5q0 177 -59 277t-179 100q-84 0 -160 -68.5t-120.5 -166.5t-51.5 -195q25 10 64 10q65 0 118.5 -34 t53.5 -91q0 -37 -28.5 -70.5t-80.5 -33.5q-64 0 -101.5 52.5t-37.5 123.5q0 85 29.5 174t81.5 165t135 124.5t180 48.5q217 0 342 -154t125 -397q0 -170 -58 -326.5t-162 -276.5t-259.5 -192t-337.5 -72q-255 0 -398 145.5t-143 409.5q0 98 21 193h-242l-88 -500 q-6 -37 -6 -65q0 -50 21 -81.5t51 -42.5t59.5 -15.5t50.5 -7t21 -9.5v-2h-734z" />
<glyph unicode="&#x42f;" horiz-adv-x="1333" d="M-1210 -279q0 66 41 104t100 38q68 0 108.5 -51t40.5 -131q0 -89 -32 -154q62 -10 108 -10q160 0 332 84t325.5 226.5t289 326.5t237.5 389q120 0 214.5 29.5t160.5 109.5q-54 0 -108 5t-119.5 17t-120 35.5t-101.5 57t-73.5 85.5t-26.5 117q0 66 22 121t60 93.5t92 68.5 t113.5 48t130 29.5t136 16t136.5 4.5h557v-4q0 -5 -19 -7.5t-47.5 -9t-59 -21t-57 -53.5t-36.5 -97l-172 -965q-6 -38 -6 -65q0 -50 20.5 -81.5t49.5 -42.5t58 -15.5t49.5 -7t20.5 -9.5v-2h-722v2q0 7 14 10t35.5 4t48.5 12.5t52 30.5t47.5 61.5t33.5 102.5l82 459h-80 q-106 -213 -217.5 -385t-250 -324t-289 -254t-334 -160.5t-384.5 -58.5q-460 0 -460 221zM475 946q0 -115 82.5 -184.5t249.5 -69.5l119 676h-58q-163 0 -278 -123.5t-115 -298.5z" />
<glyph unicode="&#x430;" horiz-adv-x="1185" d="M66 285q0 94 21.5 185.5t65.5 173t104.5 143.5t144.5 98.5t180 36.5q150 0 245 -101q162 24 260 125h13q-79 -284 -178 -919q66 38 108.5 74.5t99.5 99.5l7 -6q-99 -112 -186.5 -162.5t-149.5 -50.5q-61 0 -90 30t-29 97q0 41 27.5 192t50.5 227h-6q-176 -553 -430 -553 q-114 0 -186 75t-72 235zM330 272q0 -239 98 -239q83 0 186 181t164 437q20 90 39 166q-34 36 -77.5 59t-84.5 23q-83 0 -160 -101t-121 -246t-44 -280z" />
<glyph unicode="&#x431;" horiz-adv-x="1093" d="M66 338q0 97 36 252q67 276 204.5 447.5t314.5 242.5q58 23 137.5 38t140.5 23t117 21t86.5 41t30.5 74q0 12 -3 24q8 4 13 4q2 -16 2 -45q0 -126 -74 -219t-217 -106q-33 -6 -97.5 -12t-84.5 -9q-128 -17 -215 -50.5t-159 -101.5t-120 -176.5t-84 -273.5h8 q71 185 211 286t312 101q191 0 296 -98t105 -264q0 -101 -42 -201t-116.5 -180.5t-188 -130.5t-245.5 -50q-100 0 -173.5 29.5t-114.5 82t-60.5 115t-19.5 136.5zM324 225q0 -119 27 -179t93 -60q63 0 117 44t90.5 115t62.5 159.5t38 176.5t12 168q0 117 -31 178.5 t-106 61.5q-87 0 -158 -102.5t-108 -253.5t-37 -308z" />
<glyph unicode="&#x432;" horiz-adv-x="1003" d="M63 291q0 175 77 318.5t221.5 229t328.5 85.5q126 0 188 -44t62 -112q0 -89 -88.5 -159.5t-284.5 -96.5q0 -1 -1 -3t-1 -3q75 6 90 6q42 0 79 -4t76 -16t66.5 -30.5t45.5 -51t18 -74.5q0 -62 -37.5 -125.5t-103 -116.5t-166.5 -87t-217 -34q-96 0 -167.5 27.5 t-110.5 74.5t-57 101t-18 115zM317 172q0 -92 24.5 -138t84.5 -46q61 0 109.5 33t75.5 84.5t41 106t14 105.5q0 70 -45 121t-115 51q-22 0 -68 -8v11q71 12 129 51.5t91.5 90t51 101.5t17.5 94q0 82 -74 82q-69 0 -134 -77.5t-108 -192.5t-68.5 -241t-25.5 -228z" />
<glyph unicode="&#x433;" horiz-adv-x="821" d="M47 176q0 54 28.5 107t73.5 97.5t100 88.5t110 85t100 80t73.5 82t28.5 83q0 56 -39.5 81t-101.5 25q-79 0 -144 -33q62 -50 62 -129q0 -56 -33 -93.5t-84 -37.5q-40 0 -66 24.5t-26 65.5q0 89 89 155.5t259 66.5q86 0 152.5 -19.5t109.5 -65t43 -112.5q0 -52 -27 -104.5 t-70.5 -97t-95.5 -88.5t-104.5 -86.5t-96 -83t-70.5 -85t-27 -86.5q0 -43 29 -65.5t77 -22.5q90 0 183.5 50t158.5 128l9 -8q-74 -90 -185.5 -147.5t-240.5 -57.5q-78 0 -137 18t-98.5 65t-39.5 120z" />
<glyph unicode="&#x434;" horiz-adv-x="1134" d="M68 319q0 157 71 294t194.5 219.5t268.5 82.5q89 0 135.5 -38t46.5 -93q0 -39 -27 -64.5t-63 -25.5q-53 0 -81.5 36.5t-28.5 90.5q0 41 18 82q-73 3 -137.5 -101t-100.5 -261t-36 -314q0 -241 133 -241q90 0 167 93t124.5 235t73.5 298t26 295q0 259 -78 412.5 t-227 153.5q-103 0 -223 -72l-7 10q149 86 312 86q147 0 252.5 -74t157 -202.5t51.5 -300.5q0 -58 -9 -131.5t-31.5 -165.5t-55.5 -181t-86 -175t-118.5 -150.5t-157.5 -104t-198 -39.5q-167 0 -266.5 93.5t-99.5 252.5z" />
<glyph unicode="&#x435;" horiz-adv-x="948" d="M68 340q0 87 23.5 171t72 159t115.5 132t160 90.5t200 33.5q144 0 215.5 -55t71.5 -152q0 -73 -50 -132t-135 -97.5t-184 -62t-211 -34.5q-6 -44 -6 -84q0 -286 203 -286q77 0 151 38t164 136l6 -4q-80 -92 -191.5 -155t-242.5 -63q-177 0 -269.5 97.5t-92.5 267.5z M346 403q82 7 147 34.5t105.5 67t67 91t37 101.5t10.5 104q0 56 -24 84t-66 28q-70 0 -128 -73t-93 -184t-56 -253z" />
<glyph unicode="&#x436;" horiz-adv-x="2007" d="M10 141q0 48 32.5 78.5t76.5 30.5q62 0 96.5 -44t34.5 -104q0 -66 -43 -112h20q68 0 125 42t93 107.5t61.5 149t36 163t10.5 152.5q0 128 -44 199t-134 71q-134 0 -293 -153l-6 6q199 199 411 199q159 0 230 -94.5t71 -249.5q0 -69 -19.5 -175.5t-59.5 -179.5h6 q190 247 256 666h227q-19 -93 -39.5 -197.5t-45 -232t-38.5 -197.5q1 0 2 -1t2 -1q17 57 39 114t56 124t73.5 126t93 115t112.5 96t133.5 64.5t154.5 24.5q129 0 189.5 -51.5t60.5 -116.5q0 -50 -32 -80.5t-77 -30.5q-62 0 -95.5 44t-33.5 106q0 68 41 112q-72 0 -132 -39.5 t-99 -103t-65.5 -146t-38 -164t-11.5 -161.5q0 -126 46.5 -199t143.5 -73q135 0 281 143l6 -8q-81 -79 -188.5 -132t-223.5 -53q-82 0 -141.5 26.5t-93.5 74t-50 106.5t-16 131q0 65 18 161.5t44 160.5h-6q-71 -100 -126 -225.5t-95 -327.5l-17 -82h-227l121 616q-1 0 -2 1 t-2 1q-28 -95 -67 -182t-98.5 -173t-130 -148.5t-166 -101t-202.5 -38.5q-128 0 -187 49.5t-59 116.5z" />
<glyph unicode="&#x437;" horiz-adv-x="944" d="M0 176q0 63 35 96t76 33q51 0 81.5 -36t30.5 -87q0 -38 -15.5 -84t-45.5 -82q52 -28 137 -28q54 0 99 19.5t73.5 50t48 70t27.5 76.5t8 72q0 98 -64 151.5t-178 53.5h-26l2 13q154 9 248 81t94 185q0 67 -33 109t-98 42q-197 0 -338 -321q-20 -45 -25 -45h-4l76 395 q1 0 3 1t3 1q18 -47 76 -47q26 0 122 19.5t165 19.5q160 0 231.5 -53t71.5 -133q0 -25 -9.5 -53.5t-35 -62t-65 -60t-105.5 -46.5t-150 -24q0 -1 1 -3t1 -3q165 -3 239 -60.5t74 -142.5q0 -44 -15.5 -87.5t-53 -86t-93 -74.5t-142 -52t-193.5 -20q-154 0 -244 61t-90 142z " />
<glyph unicode="&#x438;" horiz-adv-x="1175" d="M47 702q202 224 322 224q184 0 135 -209l-113 -488q-4 -18 -6 -28t-5.5 -29t-4 -30.5t-0.5 -27.5t4 -25.5t10 -19t17 -14t26 -4.5q50 0 119.5 108.5t132 268.5t98.5 317l17 72q79 9 145 35t133 88h8q-118 -539 -186 -932q55 32 105.5 79t117.5 122l6 -6 q-202 -230 -313 -230q-147 0 -147 129q0 37 27 194t59 284h-6q-46 -146 -97 -257.5t-95.5 -176t-91 -105.5t-82.5 -54.5t-71 -13.5q-65 0 -107 26t-56.5 68t-17 94.5t12.5 106.5l131 621q-96 -53 -221 -193z" />
<glyph unicode="&#x439;" horiz-adv-x="1175" d="M47 702q202 224 322 224q184 0 135 -209l-113 -488q-4 -18 -6 -28t-5.5 -29t-4 -30.5t-0.5 -27.5t4 -25.5t10 -19t17 -14t26 -4.5q50 0 119.5 108.5t132 268.5t98.5 317l17 72q79 9 145 35t133 88h8q-118 -539 -186 -932q55 32 105.5 79t117.5 122l6 -6 q-202 -230 -313 -230q-147 0 -147 129q0 37 27 194t59 284h-6q-46 -146 -97 -257.5t-95.5 -176t-91 -105.5t-82.5 -54.5t-71 -13.5q-65 0 -107 26t-56.5 68t-17 94.5t12.5 106.5l131 621q-96 -53 -221 -193zM473 1245q0 49 31.5 81t75.5 32q49 0 74.5 -36.5t25.5 -88.5 q0 -72 -41 -123q8 -2 29 -2q106 0 221.5 56t191.5 151l9 -6q-52 -62 -115.5 -107.5t-124 -67.5t-108.5 -32t-87 -10q-90 0 -136 45t-46 108z" />
<glyph unicode="&#x43a;" horiz-adv-x="1173" d="M53 698q104 118 181 174t139 56q143 0 143 -135q0 -44 -33 -213.5t-67 -296.5h6q38 131 98.5 243t125 184.5t134 124.5t127.5 74.5t103 22.5q63 0 104 -32.5t41 -84.5q0 -49 -33.5 -77.5t-81.5 -28.5q-60 0 -98.5 44.5t-38.5 108.5q0 27 4 39q-136 -60 -239 -180 q58 -181 137.5 -379.5t144.5 -306.5q81 56 170 168l8 -6q-34 -40 -52 -59.5t-57 -56.5t-69 -56.5t-71.5 -35.5t-81.5 -16q-45 0 -89.5 47.5t-81 127t-65 163t-51.5 174.5q-75 -152 -115 -348l-26 -137h-256l172 893q-86 -45 -226 -201z" />
<glyph unicode="&#x43b;" horiz-adv-x="1177" d="M-33 84q0 48 30.5 75t72.5 27q56 0 99.5 -42.5t47.5 -127.5q100 55 180 231t129 455q4 36 4 50q0 53 -29.5 82.5t-64.5 34.5t-64.5 9t-29.5 11v4h426q138 0 197 -52t59 -157q0 -42 -14 -121l-113 -553q106 61 227 199l6 -6q-198 -230 -337 -230q-65 0 -100.5 36t-35.5 97 q0 24 21 127l72 359q18 106 18 147q0 144 -127 144h-68q-13 -79 -24 -138t-30 -146.5t-39.5 -153.5t-48 -142.5t-60.5 -131t-72.5 -101.5t-89.5 -71t-105 -24q-51 0 -94 31t-43 78z" />
<glyph unicode="&#x43c;" horiz-adv-x="1640" d="M-33 84q0 48 30.5 75t72.5 27q53 0 97 -43.5t50 -126.5q99 51 180 232.5t123 453.5q4 36 4 50q0 53 -29.5 82.5t-64.5 34.5t-64.5 9t-29.5 11v4h426q60 -186 170 -545h4l313 500q169 8 285 108h8q-89 -400 -192 -944q110 63 227 199l6 -6q-199 -230 -342 -230 q-69 0 -96 36.5t-27 101.5q0 35 15 123q61 333 110 573h-4l-479 -760h-4l-213 690h-4q-122 -764 -435 -764q-60 0 -98.5 31t-38.5 78z" />
<glyph unicode="&#x43d;" horiz-adv-x="1187" d="M45 702q97 109 181.5 164.5t146.5 55.5q137 0 137 -125q0 -47 -18 -135l-35 -166h286q37 187 66 321q79 9 145 35t133 88h9q-123 -562 -187 -932q56 32 107 80t117 121l6 -6q-202 -230 -314 -230q-147 0 -147 129q0 58 63 385h-286l-103 -487h-260l182 887 q-85 -44 -221 -191z" />
<glyph unicode="&#x43e;" horiz-adv-x="1107" d="M66 340q0 113 42 218.5t115.5 187t182 131t233.5 49.5q102 0 181 -29t126.5 -80t71.5 -116.5t24 -143.5q0 -84 -26.5 -168.5t-79 -159t-123 -132t-166.5 -91t-203 -33.5q-100 0 -175 29t-118 80.5t-64 116t-21 141.5zM332 207q0 -223 123 -223q77 0 142 74t103 185 t59 227t21 212q0 113 -30.5 173t-110.5 60q-67 0 -126.5 -68.5t-98 -174t-60.5 -228.5t-22 -237z" />
<glyph unicode="&#x43f;" horiz-adv-x="1198" d="M47 698q202 230 315 230q148 0 148 -129q0 -37 -27 -195t-59 -285h6q46 138 99 247t100.5 175t97 109t88 59.5t72.5 16.5q65 0 107 -26t56.5 -68t17 -94.5t-12.5 -106.5l-131 -621q96 53 221 193l6 -6q-202 -224 -322 -224q-184 0 -135 209l113 488q4 18 6 28t5.5 29 t4 30.5t0.5 27.5t-4 25.5t-10 19t-17 14t-26 4.5q-37 0 -91.5 -64t-107.5 -162t-100.5 -225t-71.5 -245l-30 -152h-259l173 893q-93 -53 -226 -201z" />
<glyph unicode="&#x440;" horiz-adv-x="1173" d="M-166 -434q1 7 26.5 11t57.5 10.5t65 43t46 101.5q35 183 111.5 571.5t115.5 589.5q-96 -54 -225 -205l-8 6q203 234 317 234q83 0 115 -36.5t32 -98.5q0 -30 -26 -184t-47 -238h6q86 278 196 416.5t232 138.5q114 0 186 -75.5t72 -234.5q0 -92 -20.5 -183t-63 -173.5 t-101.5 -146t-141.5 -101t-177.5 -37.5q-152 0 -246 88l-63 -337q-6 -42 -6 -45q0 -45 29 -70t64 -28.5t63.5 -6.5t27.5 -10v-4h-637v4zM360 74q76 -72 156 -72q87 0 164.5 106t120.5 256.5t43 290.5q0 91 -23.5 151t-77.5 60q-51 0 -117 -81.5t-129.5 -230t-101.5 -321.5z " />
<glyph unicode="&#x441;" horiz-adv-x="923" d="M66 317q0 94 26.5 183.5t77.5 166.5t121.5 135.5t164.5 92t199 33.5q129 0 190.5 -48.5t61.5 -119.5q0 -49 -34 -79t-78 -30q-64 0 -97.5 42.5t-33.5 105.5q0 68 41 112q-6 2 -19 2q-68 0 -127.5 -42.5t-99 -109.5t-68.5 -150t-42 -164.5t-13 -153.5q0 -57 11.5 -104.5 t35.5 -86t66.5 -60.5t99.5 -22q126 0 285 146l4 -6q-84 -80 -191.5 -133.5t-224.5 -53.5q-172 0 -264 93.5t-92 250.5z" />
<glyph unicode="&#x442;" horiz-adv-x="1697" d="M45 696q109 124 184.5 178t143.5 54q66 0 101.5 -34t35.5 -97q0 -38 -28 -182t-64 -289h6q45 141 94 249.5t93 173.5t89.5 106t82 56t71.5 15q92 0 135 -48.5t43 -127.5q0 -104 -65 -383h4q52 158 108 271t109 173.5t100 87.5t92 27q96 0 138.5 -52.5t42.5 -138.5 q0 -46 -13 -106l-131 -617q94 50 221 191l7 -6q-203 -224 -330 -224q-64 0 -100.5 35t-36.5 88q0 48 24 150l98 426q15 72 15 98q0 70 -53 70q-48 0 -114 -100t-125 -252.5t-95 -307.5l-41 -180h-260l149 684q4 20 6 32t5 33.5t0.5 34.5t-7 27.5t-17 21.5t-30.5 7 q-50 0 -120 -105.5t-131.5 -267t-90.5 -317.5l-29 -150h-258l175 893q-55 -30 -109 -80t-119 -123z" />
<glyph unicode="&#x443;" horiz-adv-x="952" d="M-6 659q34 55 63 95.5t68 83.5t82 65.5t88 22.5q61 0 92.5 -35t46.5 -103q49 -213 78 -559q17 18 87.5 88t115 116.5t97.5 113.5t77 117q-65 2 -119.5 44t-54.5 109q0 11 3.5 26.5t12.5 39t33 39.5t59 16q49 0 82 -34.5t33 -98.5q0 -48 -21 -101.5t-50.5 -98.5 t-82 -105.5t-92.5 -101t-107.5 -107.5t-103.5 -105q-18 -19 -63.5 -64t-74.5 -75t-69.5 -79.5t-64.5 -91t-41.5 -95t-17.5 -105.5q0 -47 25 -85t77 -52q0 3 -1 9.5t-1 9.5q0 80 39 137t100 57q44 0 71 -26t27 -64q0 -67 -54 -103t-126 -36q-74 0 -121 41.5t-47 107.5 q0 158 144 322q-14 176 -51 439t-68 427q-67 -51 -164 -205z" />
<glyph unicode="&#x444;" horiz-adv-x="1576" d="M68 285q0 93 21 183.5t63.5 172.5t102.5 144.5t144 99.5t181 37q96 0 161 -41q69 299 216 469t321 170q66 0 109 -34t43 -79q0 -49 -35 -78t-86 -29q-67 0 -103.5 55.5t-31.5 131.5q-40 -14 -71 -68.5t-52 -181.5q-14 -81 -48.5 -308t-56.5 -341q1 0 3 -1t3 -1 q62 169 148.5 254.5t169.5 85.5q107 0 173 -76.5t66 -233.5q0 -90 -20 -180t-62 -172.5t-100 -146.5t-140.5 -102t-176.5 -38q-114 0 -197 60q-91 -271 -208 -386.5t-267 -115.5q-69 0 -115.5 37t-46.5 86q0 45 31 78t80 33q72 0 105 -58t28 -155q51 13 75.5 48t43.5 117 l8 37q29 151 96 584h-4q-60 -184 -143.5 -274.5t-180.5 -90.5q-115 0 -181 74.5t-66 233.5zM324 231q0 -75 22.5 -124.5t69.5 -49.5q67 0 129 97.5t104 263.5q24 98 52 253t38 199q-36 19 -69 19q-87 0 -168.5 -100t-129.5 -253t-48 -305zM817 49q54 -45 115 -45 q84 0 159.5 111t116.5 266.5t41 298.5q0 73 -21.5 118.5t-68.5 45.5q-65 0 -143 -141t-129 -386q-25 -129 -70 -268z" />
<glyph unicode="&#x445;" horiz-adv-x="1097" d="M-45 76q0 50 34 77t77 27q58 0 95.5 -45.5t37.5 -109.5v-13q107 63 229 357q-70 207 -162 467q-64 -62 -151 -193l-9 4q40 59 69.5 98.5t72.5 86.5t85.5 71.5t84.5 24.5q72 0 112.5 -75t112.5 -298q90 190 165.5 279.5t170.5 89.5q53 0 95 -31t42 -78q0 -50 -35 -78 t-80 -28q-56 0 -94.5 43.5t-38.5 103.5q0 15 2 21q-100 -65 -221 -334q8 -25 170 -490q73 61 164 205l8 -6q-25 -37 -37 -54.5t-42 -58t-53.5 -63.5t-54.5 -50.5t-62.5 -40t-61.5 -12.5q-72 0 -110.5 47.5t-84.5 182.5l-51 153q-85 -199 -162.5 -294t-181.5 -95 q-54 0 -94.5 30t-40.5 79z" />
<glyph unicode="&#x446;" horiz-adv-x="1175" d="M47 702q202 224 322 224q184 0 135 -209l-113 -488q-4 -18 -6 -28t-5.5 -29t-4 -30.5t-0.5 -27.5t4 -25.5t10 -19t17 -14t26 -4.5q50 0 120 108.5t133 268.5t99 317l17 72q78 9 143.5 34.5t132.5 88.5h8q-74 -341 -188 -932q36 18 79 54.5t72 67.5t72 81l8 -6 q-3 -3 -16 -18t-16 -19t-11.5 -16.5t-11 -20.5t-5.5 -20t-3 -25q0 -42 31.5 -135.5t31.5 -128.5q0 -24 -4 -45.5t-23.5 -53.5t-52.5 -55t-98 -40t-153 -17v10q42 2 73 12t48.5 24t28 34t13.5 38.5t3 41.5q0 18 -2.5 56.5t-2.5 59.5q0 130 99 234q-1 0 -2 1t-2 1 q-74 -76 -130.5 -113t-111.5 -37q-143 0 -143 129q0 37 27 194t59 284h-6q-46 -146 -97 -257.5t-95.5 -176t-91 -105.5t-82.5 -54.5t-71 -13.5q-65 0 -107 26t-56.5 68t-17 94.5t12.5 106.5l131 621q-96 -53 -221 -193z" />
<glyph unicode="&#x447;" horiz-adv-x="1130" d="M18 702q205 224 320 224q173 0 141 -174l-18 -103q-7 -40 -18 -94.5t-16 -82t-5 -42.5q0 -63 55 -63q71 0 150 114t118 301l9 39q176 19 276 119h8q-125 -580 -186 -932q94 53 223 201l6 -6q-198 -230 -317 -230q-143 0 -143 131q0 42 14 119l78 393h-8 q-118 -317 -349 -317q-100 0 -144 49.5t-44 130.5q0 55 12.5 123.5t34 155.5t29.5 129q-88 -49 -219 -191z" />
<glyph unicode="&#x448;" horiz-adv-x="1695" d="M45 702q202 224 328 224q139 0 139 -127q0 -42 -25 -148l-96 -426q-16 -83 -16 -98q0 -70 55 -70q48 0 113.5 96t125.5 247t93 305l41 188h262l-147 -668q-15 -69 -15 -96q0 -72 55 -72q50 0 118.5 106.5t129 265.5t94.5 316l15 68q178 22 278 125h11 q-102 -472 -187 -930q89 51 223 201l7 -6q-109 -124 -183.5 -177t-136.5 -53q-71 0 -106 36t-35 100q0 42 26 190.5t60 280.5q-1 0 -3 -1t-3 -1q-53 -172 -111.5 -296t-114.5 -188.5t-105 -92.5t-97 -28q-92 0 -135.5 46t-43.5 126q0 96 66 367l-6 -2q-41 -123 -87 -219 t-88 -154.5t-86 -96.5t-79 -52.5t-68 -14.5q-180 0 -180 187q0 50 12 106l131 621q-95 -51 -221 -191z" />
<glyph unicode="&#x449;" horiz-adv-x="1697" d="M45 702q202 224 328 224q139 0 139 -127q0 -42 -25 -148l-96 -426q-16 -83 -16 -98q0 -70 55 -70q48 0 113.5 96t125.5 247t93 305l41 188h262l-147 -668q-15 -69 -15 -96q0 -72 55 -72q50 0 118.5 106.5t129 265.5t94.5 316l15 68q178 22 278 125h11 q-102 -472 -187 -930q83 43 221 201l9 -6q-4 -5 -18.5 -21t-19 -22.5t-13 -20t-11 -26t-2.5 -27.5q0 -45 32 -137.5t32 -126.5q0 -18 -3.5 -35.5t-13.5 -44t-33.5 -48t-58 -41t-92 -31t-131.5 -11.5v10q42 2 73 12t48.5 24t28 34t13.5 38.5t3 41.5q0 18 -2 56.5t-2 59.5 q0 131 98 234q-1 0 -2 1t-2 1q-76 -79 -134 -114.5t-116 -35.5q-135 0 -135 136q0 42 26 190.5t60 280.5q-1 0 -3 -1t-3 -1q-53 -172 -111.5 -296t-114.5 -188.5t-105 -92.5t-97 -28q-92 0 -135.5 46t-43.5 126q0 96 66 367l-6 -2q-41 -123 -87 -219t-88 -154.5t-86 -96.5 t-79 -52.5t-68 -14.5q-180 0 -180 187q0 50 12 106l131 621q-95 -51 -221 -191z" />
<glyph unicode="&#x44a;" horiz-adv-x="1091" d="M20 653q50 312 197 312q53 0 171.5 -38t193.5 -38q69 0 141 51l6 -10q-89 -68 -154 -162t-94 -172t-45 -158h6q30 68 69 114t82.5 68t81 30.5t81.5 8.5q124 0 196 -59.5t72 -175.5q0 -88 -38 -170t-105.5 -145t-168 -100.5t-216.5 -37.5q-168 0 -263.5 77.5t-95.5 234.5 q8 137 118 282.5t300 268.5q0 1 -1 3t-1 3q-94 -60 -219 -60q-43 0 -103 7.5t-92 7.5q-39 0 -65.5 -28.5t-42.5 -113.5h-11zM385 150q0 -73 25.5 -120.5t83.5 -47.5q52 0 97.5 37.5t75 95t51 127t31 132t9.5 111.5q0 138 -96 138q-76 0 -141.5 -77.5t-100.5 -185.5t-35 -210 z" />
<glyph unicode="&#x44b;" horiz-adv-x="1595" d="M37 698q197 230 313 230q147 0 150 -131q0 -36 -25 -178t-57 -273l6 -2q25 78 58.5 137.5t68 94t73.5 56.5t71.5 29t66.5 7q105 0 180.5 -64t75.5 -188q0 -113 -62 -214.5t-173 -165t-242 -63.5q-221 0 -426 105l151 815q-53 -28 -104 -76.5t-117 -124.5zM358 6 q37 -18 111 -18t140 74t103.5 182.5t37.5 214.5q0 70 -24.5 109.5t-74.5 39.5q-74 0 -143.5 -103t-106.5 -284zM1075 106q0 26 19 130l114 577q183 18 285 123h8q-134 -639 -184 -924q99 55 223 199l8 -6q-95 -110 -179.5 -171t-141.5 -61q-75 0 -113.5 36t-38.5 97z" />
<glyph unicode="&#x44c;" horiz-adv-x="1083" d="M37 698q197 230 313 230q147 0 150 -131q0 -36 -25 -178t-57 -273l6 -2q25 78 58.5 137.5t68 94t73.5 56.5t71.5 29t66.5 7q105 0 180.5 -64t75.5 -188q0 -113 -62 -214.5t-173 -165t-242 -63.5q-221 0 -426 105l151 815q-53 -28 -104 -76.5t-117 -124.5zM358 6 q37 -18 111 -18t140 74t103.5 182.5t37.5 214.5q0 70 -24.5 109.5t-74.5 39.5q-74 0 -143.5 -103t-106.5 -284z" />
<glyph unicode="&#x44d;" horiz-adv-x="909" d="M-12 135q0 43 32.5 74t73.5 31q61 0 93 -42.5t32 -101.5q0 -63 -37 -106q2 0 11.5 -1t11.5 -1q76 0 141.5 46.5t109 123t72 163.5t39.5 179q-73 -92 -164 -92q-44 0 -103 24.5t-81 24.5q-27 0 -53 -33l-6 4q33 62 78 92.5t88 30.5q40 0 97.5 -25.5t84.5 -25.5q43 0 59 14 q6 43 6 92q0 271 -200 271q-135 0 -264 -132l-9 9q177 174 387 174q172 0 263.5 -93.5t91.5 -250.5q0 -117 -43.5 -227.5t-120 -195.5t-190.5 -136.5t-246 -51.5q-128 0 -191 47.5t-63 114.5z" />
<glyph unicode="&#x44e;" horiz-adv-x="1642" d="M45 700q105 118 180 173t137 55q144 0 144 -135q0 -34 -21 -142l-28 -155h174q48 183 195.5 306.5t351.5 123.5q103 0 181.5 -29.5t125 -81t69.5 -116.5t23 -142q0 -104 -42 -207.5t-116.5 -187t-188.5 -135.5t-247 -52q-100 0 -174 29t-116.5 81t-62.5 115.5t-20 139.5 q0 67 19 145h-174q-28 -146 -97 -485h-262l178 893q-82 -42 -223 -199zM872 250q0 -133 26 -198.5t95 -65.5q63 0 118 48.5t92 124.5t63.5 169.5t38.5 184t12 167.5q0 235 -137 235q-87 0 -159.5 -105t-110.5 -256.5t-38 -303.5z" />
<glyph unicode="&#x44f;" horiz-adv-x="1087" d="M-41 90q0 41 30 68.5t81 27.5q53 0 95.5 -47t51.5 -129q79 31 170.5 132t167.5 264q-45 -5 -57 -5q-58 0 -116 11.5t-115.5 36.5t-93.5 73.5t-36 112.5q0 92 58 159t150.5 99.5t205.5 32.5q89 0 202.5 -24t211.5 -71l-154 -823q40 23 83.5 60.5t68 64t71.5 78.5l6 -6 q-197 -230 -315 -230q-75 0 -112.5 32t-37.5 87q0 10 7 45q13 68 55.5 314.5t79.5 441.5q-37 12 -74 12q-107 0 -173.5 -94t-66.5 -227q0 -86 46 -127t114 -41l4 -10q-43 -91 -93.5 -167.5t-109 -137t-125.5 -94.5t-135 -34t-106.5 30t-38.5 85z" />
<glyph unicode="&#x451;" horiz-adv-x="948" d="M68 340q0 87 23.5 171t72 159t115.5 132t160 90.5t200 33.5q144 0 215.5 -55t71.5 -152q0 -73 -50 -132t-135 -97.5t-184 -62t-211 -34.5q-6 -44 -6 -84q0 -286 203 -286q77 0 151 38t164 136l6 -4q-80 -92 -191.5 -155t-242.5 -63q-177 0 -269.5 97.5t-92.5 267.5z M346 403q82 7 147 34.5t105.5 67t67 91t37 101.5t10.5 104q0 56 -24 84t-66 28q-70 0 -128 -73t-93 -184t-56 -253zM369 1219q0 64 46.5 113.5t106.5 49.5q47 0 77 -32t30 -80q0 -65 -48 -113.5t-106 -48.5q-47 0 -76.5 31.5t-29.5 79.5zM748 1219q0 64 46 113.5t107 49.5 q47 0 77 -32t30 -80q0 -65 -48 -113.5t-108 -48.5q-47 0 -75.5 31.5t-28.5 79.5z" />
<glyph unicode="&#x452;" horiz-adv-x="1112" d="M27 0l221 1133h-137q0 1 1 4.5t1 5.5h137l29 153q6 30 6 52q0 41 -22.5 62.5t-49.5 24t-49.5 4t-22.5 7.5v4l439 51l4 -4l-68 -354h324q0 -2 -1 -5.5t-1 -4.5h-324l-63 -338q-40 -235 -99 -445l4 -2q84 271 197.5 414t249.5 143q111 0 176 -75.5t65 -241.5 q0 -94 -20.5 -201.5t-58.5 -218t-97.5 -212.5t-132 -181t-168 -126.5t-200.5 -47.5q-67 0 -119.5 34.5t-52.5 100.5q0 44 26.5 75t71.5 31q59 0 90 -41.5t31 -105.5q0 -37 -13 -84q90 16 165 125t119.5 265t68.5 323.5t24 318.5q0 82 -23 132t-61 50q-70 0 -146 -98 t-132.5 -239t-85.5 -287l-41 -201h-262z" />
<glyph unicode="&#x453;" horiz-adv-x="821" d="M47 176q0 54 28.5 107t73.5 97.5t100 88.5t110 85t100 80t73.5 82t28.5 83q0 56 -39.5 81t-101.5 25q-79 0 -144 -33q62 -50 62 -129q0 -56 -33 -93.5t-84 -37.5q-40 0 -66 24.5t-26 65.5q0 89 89 155.5t259 66.5q86 0 152.5 -19.5t109.5 -65t43 -112.5q0 -52 -27 -104.5 t-70.5 -97t-95.5 -88.5t-104.5 -86.5t-96 -83t-70.5 -85t-27 -86.5q0 -43 29 -65.5t77 -22.5q90 0 183.5 50t158.5 128l9 -8q-74 -90 -185.5 -147.5t-240.5 -57.5q-78 0 -137 18t-98.5 65t-39.5 120zM373 1061q67 40 119.5 94t82 101t55 89t54 66.5t64.5 24.5q41 0 61.5 -26 t17.5 -60q-1 -16 -14.5 -40.5t-47 -59.5t-81.5 -68.5t-129 -69t-180 -61.5z" />
<glyph unicode="&#x454;" horiz-adv-x="923" d="M66 317q0 94 26.5 183.5t77.5 166.5t121.5 135.5t164.5 92t199 33.5q129 0 189.5 -47t60.5 -115q0 -43 -32.5 -72.5t-73.5 -29.5q-61 0 -94 41.5t-33 99.5q0 61 39 106q-2 0 -11.5 1t-11.5 1q-72 0 -133 -41.5t-102.5 -111.5t-68.5 -152t-40 -172q77 94 164 94 q44 0 103 -25.5t81 -25.5q29 0 53 35l7 -4q-33 -63 -77.5 -93t-88.5 -30q-40 0 -96 25t-84 26q-41 0 -62 -16q-8 -78 -8 -123q0 -42 5 -78t18.5 -73t35.5 -63t58.5 -42t83.5 -16q146 0 292 161l9 -8q-85 -94 -191 -150.5t-225 -56.5q-172 0 -264 93.5t-92 250.5z" />
<glyph unicode="&#x455;" horiz-adv-x="897" d="M25 162q0 56 33 85t73 29q52 0 82.5 -34.5t30.5 -83.5q0 -38 -15.5 -79.5t-44.5 -70.5q60 -22 146 -22q91 0 155 50.5t64 131.5q0 53 -42 100.5t-101.5 85t-119 75.5t-101.5 90.5t-42 113.5q0 72 35 130t93 92.5t128.5 52.5t145.5 18q140 0 222.5 -52.5t82.5 -130.5 q0 -53 -32.5 -82.5t-72.5 -29.5q-55 0 -83.5 34t-28.5 85q0 90 53 143q-47 20 -115 20q-32 0 -63.5 -8t-62 -25t-49.5 -50.5t-19 -79.5q0 -49 43.5 -93.5t105.5 -82t124 -78.5t105.5 -99t43.5 -127q0 -75 -38 -134t-103 -93.5t-143.5 -52t-166.5 -17.5q-156 0 -239.5 55 t-83.5 134z" />
<glyph unicode="&#x456;" horiz-adv-x="661" d="M51 700q103 119 181 171.5t145 52.5q141 0 141 -138q0 -49 -20 -147q-21 -109 -64.5 -317t-62.5 -306q101 58 225 189l6 -4q-95 -105 -187 -166.5t-145 -61.5q-139 0 -139 127q0 26 19 133l133 658q-93 -44 -226 -197zM313 1231q0 72 54.5 131t126.5 59q59 0 95 -37.5 t36 -95.5q0 -74 -57 -131t-128 -57q-54 0 -90.5 37.5t-36.5 93.5z" />
<glyph unicode="&#x457;" horiz-adv-x="661" d="M51 700q103 119 181 171.5t145 52.5q137 0 137 -138q0 -69 -16 -147q-21 -109 -64.5 -317t-62.5 -306q97 55 223 189l8 -4q-95 -105 -187 -166.5t-145 -61.5q-139 0 -139 127q0 26 19 133l133 662q-53 -29 -106 -79t-118 -122zM113 1204q0 64 46.5 114t106.5 50 q47 0 77 -32.5t30 -80.5q0 -65 -48 -113t-106 -48q-47 0 -76.5 31t-29.5 79zM492 1204q0 64 46 114t107 50q47 0 77 -32.5t30 -80.5q0 -65 -48 -113t-108 -48q-47 0 -75.5 31t-28.5 79z" />
<glyph unicode="&#x458;" horiz-adv-x="581" d="M-307 -350q0 53 34 85t87 32q47 0 89 -44t42 -131q0 -27 -2 -41q46 10 66 55t46 171l224 1114q-93 -44 -226 -197l-6 6q103 119 181 171.5t145 52.5q137 0 137 -142q0 -23 -10 -88q-32 -202 -123 -622q-17 -78 -48 -153t-79 -145.5t-106 -123.5t-133.5 -85t-157.5 -32 q-62 0 -111 33.5t-49 83.5zM303 1231q0 72 54 131t126 59q59 0 94 -37.5t35 -95.5q0 -74 -56 -131t-126 -57q-54 0 -90.5 37.5t-36.5 93.5z" />
<glyph unicode="&#x459;" horiz-adv-x="1611" d="M-33 84q0 48 30.5 75t72.5 27q56 0 99.5 -42.5t47.5 -127.5q100 55 180 231t129 455q4 36 4 50q0 53 -29.5 82.5t-64.5 34.5t-64.5 9t-29.5 11v4h393q149 0 212 -44.5t63 -148.5q0 -89 -64 -354q1 0 3 -1t3 -1q30 97 73 164.5t90.5 99.5t88.5 45t84 13q105 0 181.5 -63 t76.5 -187q0 -84 -37 -164.5t-100 -142t-153 -99t-189 -37.5q-219 0 -424 105l96 500q23 135 23 174q0 62 -29 96.5t-100 34.5h-60q-13 -79 -24 -138t-30 -146.5t-39.5 -153.5t-48 -142.5t-60.5 -131t-72.5 -101.5t-89.5 -71t-105 -24q-51 0 -94 31t-43 78zM885 8 q55 -20 110 -20q75 0 141.5 73.5t104 181.5t37.5 214q0 71 -24.5 110t-73.5 39q-75 0 -144.5 -103t-105.5 -284z" />
<glyph unicode="&#x45a;" horiz-adv-x="1611" d="M45 702q97 109 181.5 164.5t146.5 55.5q137 0 137 -125q0 -47 -18 -135l-35 -166h268l59 325q178 12 281 115h8q-13 -60 -35 -175t-43 -209t-51 -206q1 0 4 -1t4 -1q30 97 73 164.5t90.5 99.5t88.5 45t84 13q105 0 181.5 -63t76.5 -187q0 -181 -139.5 -312t-339.5 -131 q-221 0 -424 105l80 409h-268l-103 -487h-260l182 887q-85 -44 -221 -191zM885 4q44 -16 110 -16q75 0 141.5 73.5t104 181.5t37.5 214q0 71 -24.5 110t-73.5 39q-74 0 -142.5 -102.5t-107.5 -284.5z" />
<glyph unicode="&#x45b;" horiz-adv-x="1140" d="M49 0l223 1145h-151l2 8h151l29 143q9 45 2 72.5t-22.5 41.5t-36.5 20t-39.5 6.5t-31 2.5t-11.5 7l2 4l440 53l6 -4l-69 -346h317l-2 -8h-317l-41 -205q-88 -430 -127 -588h4q42 134 93.5 239t100 166.5t100 101t91 53.5t74.5 14q65 0 106 -25.5t56 -69.5t15.5 -93 t-12.5 -107l-131 -619q97 54 220 191l8 -6q-202 -224 -324 -224q-180 0 -131 209l113 488q41 178 -41 178q-56 0 -128.5 -87.5t-137.5 -240.5t-97 -323l-37 -197h-266z" />
<glyph unicode="&#x45c;" horiz-adv-x="1173" d="M53 698q104 118 181 174t139 56q143 0 143 -135q0 -44 -33 -213.5t-67 -296.5h6q38 131 98.5 243t125 184.5t134 124.5t127.5 74.5t103 22.5q63 0 104 -32.5t41 -84.5q0 -49 -33.5 -77.5t-81.5 -28.5q-60 0 -98.5 44.5t-38.5 108.5q0 27 4 39q-136 -60 -239 -180 q58 -181 137.5 -379.5t144.5 -306.5q81 56 170 168l8 -6q-34 -40 -52 -59.5t-57 -56.5t-69 -56.5t-71.5 -35.5t-81.5 -16q-45 0 -89.5 47.5t-81 127t-65 163t-51.5 174.5q-75 -152 -115 -348l-26 -137h-256l172 893q-86 -45 -226 -201zM512 1061q67 40 119.5 94t82 101 t55 89t54 66.5t64.5 24.5q41 0 62 -26t18 -60q-1 -16 -14.5 -40.5t-47 -59.5t-82 -68.5t-129.5 -69t-180 -61.5z" />
<glyph unicode="&#x45e;" horiz-adv-x="952" d="M-6 659q34 55 63 95.5t68 83.5t82 65.5t88 22.5q61 0 92.5 -35t46.5 -103q49 -213 78 -559q17 18 87.5 88t115 116.5t97.5 113.5t77 117q-65 2 -119.5 44t-54.5 109q0 11 3.5 26.5t12.5 39t33 39.5t59 16q49 0 82 -34.5t33 -98.5q0 -48 -21 -101.5t-50.5 -98.5 t-82 -105.5t-92.5 -101t-107.5 -107.5t-103.5 -105q-18 -19 -63.5 -64t-74.5 -75t-69.5 -79.5t-64.5 -91t-41.5 -95t-17.5 -105.5q0 -47 25 -85t77 -52q0 3 -1 9.5t-1 9.5q0 80 39 137t100 57q44 0 71 -26t27 -64q0 -67 -54 -103t-126 -36q-74 0 -121 41.5t-47 107.5 q0 158 144 322q-14 176 -51 439t-68 427q-67 -51 -164 -205zM375 1272q0 49 31 80.5t75 31.5q49 0 75 -36t26 -88q0 -72 -41 -123q8 -2 28 -2q107 0 223 55.5t191 150.5l8 -6q-52 -62 -115.5 -107.5t-123.5 -67.5t-108 -32t-87 -10q-90 0 -136 45.5t-46 108.5z" />
<glyph unicode="&#x45f;" horiz-adv-x="1175" d="M47 702q202 224 322 224q184 0 135 -209l-113 -488q-4 -18 -6 -28t-5.5 -29t-4 -30.5t-0.5 -27.5t4 -25.5t10 -19t17 -14t26 -4.5q50 0 119.5 108.5t132 268.5t98.5 317l17 72q79 9 145 35t133 88h8q-118 -539 -186 -932q55 32 105.5 79t117.5 122l6 -6 q-202 -230 -313 -230q-147 0 -147 129q0 37 27 194t59 284h-6q-46 -146 -97 -257.5t-95.5 -176t-91 -105.5t-82.5 -54.5t-71 -13.5q-65 0 -107 26t-56.5 68t-17 94.5t12.5 106.5l131 621q-96 -53 -221 -193zM289 -455q0 2 1 5.5t1 5.5q93 7 127.5 47.5t34.5 115.5 q0 54 2.5 82t15.5 71.5t44.5 85t84.5 89.5l6 -4q-35 -43 -35 -92q0 -31 23.5 -102.5t23.5 -112.5q0 -22 -5.5 -43.5t-26 -49.5t-54 -48.5t-96.5 -35t-147 -14.5z" />
<glyph unicode="&#x490;" horiz-adv-x="1140" d="M-35 0q0 9 20 11t51 8t63.5 22.5t63 62.5t44.5 119l10 53q21 125 158 908q4 32 4 47q0 46 -19.5 75.5t-47.5 39.5t-55.5 14t-47 6.5t-19.5 9.5v4h670q176 0 290 80.5t218 288.5q14 33 23 33h6l-135 -475q-82 61 -342 61h-211q-40 -219 -205 -1147q-6 -35 -6 -59 q0 -54 21 -87.5t51 -44t60 -14t51 -6t21 -10.5h-737z" />
<glyph unicode="&#x491;" horiz-adv-x="851" d="M-12 117q0 50 33 76t71 26q54 0 87.5 -36.5t38 -87t-6.5 -105.5q36 7 58 29.5t36 85t14 169.5q0 43 -9 152.5t-9 161.5q0 75 17 132.5t44.5 92t68 57.5t80 32.5t87.5 12.5q27 2 69.5 4t66.5 3t57 5t51.5 11t40 20.5t33 33t19.5 49t9 67.5h10q-1 -113 -14 -177.5t-35 -87 t-57 -22.5q-30 0 -95.5 41t-97.5 41q-67 0 -67 -108q0 -37 5 -119t5 -117q0 -283 -104 -434.5t-299 -151.5q-207 0 -207 144z" />
<glyph unicode="&#x4d9;" horiz-adv-x="968" d="M68 182q0 73 49.5 132t135 97.5t184 62t210.5 34.5q6 44 6 84q0 287 -202 287q-77 0 -151.5 -38t-164.5 -136l-6 4q80 92 191.5 154.5t242.5 62.5q178 0 270.5 -97.5t92.5 -267.5q0 -109 -38.5 -213t-109 -187.5t-181 -134.5t-243.5 -51q-143 0 -214.5 55t-71.5 152z M281 100q0 -56 24 -84t66 -28q53 0 99 41t80 113.5t58 161.5t39 194q-99 -11 -173 -51t-114.5 -97.5t-59.5 -120t-19 -129.5z" />
<glyph unicode="&#x2010;" horiz-adv-x="606" d="M63 465l15 80h479q-8 -35 -14 -80h-480z" />
<glyph unicode="&#x2011;" horiz-adv-x="606" d="M63 465l15 80h479q-8 -35 -14 -80h-480z" />
<glyph unicode="&#x2012;" horiz-adv-x="606" d="M63 465l15 80h479q-8 -35 -14 -80h-480z" />
<glyph unicode="&#x2013;" horiz-adv-x="1081" d="M76 492l12 67h936l-12 -67h-936z" />
<glyph unicode="&#x2014;" horiz-adv-x="1658" d="M76 492l12 67h1514l-13 -67h-1513z" />
<glyph unicode="&#x2018;" horiz-adv-x="458" d="M207 1034q0 92 81 225t191 222l8 -11q-86 -75 -152.5 -168.5t-92.5 -177.5q51 54 118 54q48 0 78.5 -30.5t30.5 -80.5q0 -59 -42 -107.5t-105 -48.5q-57 0 -86 33.5t-29 89.5z" />
<glyph unicode="&#x2019;" horiz-adv-x="471" d="M231 915q87 73 154 167.5t92 177.5q-26 -27 -59 -40.5t-60 -13.5q-48 0 -78 30.5t-30 80.5q0 60 42.5 109t106.5 49q55 0 84 -34.5t29 -90.5q0 -92 -81 -225t-191 -222z" />
<glyph unicode="&#x201a;" horiz-adv-x="456" d="M20 -311q87 74 154.5 168t93.5 176q-51 -51 -118 -51q-49 0 -80 29t-31 79q0 60 43.5 109t105.5 49q55 0 85 -34.5t30 -90.5q0 -92 -80.5 -223.5t-191.5 -221.5z" />
<glyph unicode="&#x201c;" horiz-adv-x="751" d="M199 1038q0 92 81 225t191 222l8 -10q-87 -74 -153 -168.5t-93 -178.5q49 54 119 54q48 0 78.5 -30.5t30.5 -80.5q0 -58 -44 -107t-106 -49q-55 0 -83.5 33.5t-28.5 89.5zM500 1038q0 92 80.5 225.5t191.5 221.5l8 -10q-86 -75 -152.5 -169t-92.5 -178q49 54 118 54 q48 0 78.5 -30.5t30.5 -80.5q0 -61 -43.5 -108.5t-106.5 -47.5q-55 0 -83.5 33.5t-28.5 89.5z" />
<glyph unicode="&#x201d;" horiz-adv-x="763" d="M229 905q88 74 154.5 167.5t93.5 178.5q-50 -53 -119 -53q-50 0 -80 29t-30 80q0 60 43.5 108.5t105.5 48.5q56 0 85.5 -34.5t29.5 -90.5q0 -92 -81 -224t-191 -222q-1 2 -11 12zM532 905q86 75 153 169t93 177q-50 -53 -119 -53q-48 0 -78 29.5t-30 79.5q0 60 42 108.5 t105 48.5q56 0 85.5 -34.5t29.5 -90.5q0 -92 -81 -224.5t-191 -221.5z" />
<glyph unicode="&#x201e;" horiz-adv-x="741" d="M2 -307q86 72 153.5 166.5t94.5 175.5q-51 -51 -119 -51q-49 0 -80 29t-31 79q0 60 44 109t106 49q55 0 85 -34.5t30 -90.5q0 -91 -81.5 -223t-191.5 -221zM303 -307q86 72 153.5 166.5t94.5 175.5q-48 -51 -119 -51q-48 0 -79 29t-31 79q0 60 43.5 109t105.5 49 q55 0 85 -34.5t30 -90.5q0 -91 -81.5 -223t-191.5 -221z" />
<glyph unicode="&#x2026;" horiz-adv-x="1300" d="M25 102q0 72 51 125.5t114 53.5q50 0 81.5 -33.5t31.5 -85.5q0 -70 -50.5 -124t-115.5 -54q-49 0 -80.5 33.5t-31.5 84.5zM446 104q0 71 51.5 124t114.5 53q50 0 81.5 -33.5t31.5 -85.5q0 -70 -50.5 -124t-115.5 -54q-49 0 -81 33.5t-32 86.5zM879 102q0 72 51 125.5 t114 53.5q50 0 81.5 -33.5t31.5 -85.5q0 -70 -50.5 -124t-115.5 -54q-49 0 -80.5 33.5t-31.5 84.5z" />
<glyph unicode="&#x2030;" horiz-adv-x="2467" d="M164 897q0 64 15.5 133.5t49 139.5t81 125t117.5 89.5t151 34.5q73 0 126.5 -23.5t84 -66t45 -93.5t14.5 -112q0 -55 -14 -121t-47 -138t-79 -130.5t-118.5 -96.5t-157.5 -38q-71 0 -124.5 23.5t-84 65.5t-45 94t-14.5 114zM348 -80l995 1555h15l-991 -1555h-19zM348 762 q0 -152 88 -152q57 0 112 109.5t86.5 259.5t31.5 278q0 154 -91 154q-58 0 -112.5 -116t-84.5 -266t-30 -267zM883 283q0 82 25.5 170t74 168t130.5 132t183 52q59 0 105.5 -16t77 -43t51 -65t29 -80.5t8.5 -90.5q0 -55 -14 -121t-47 -138t-79 -130.5t-118.5 -96.5 t-157.5 -38q-71 0 -124.5 23.5t-84 65.5t-45 94t-14.5 114zM1067 147q0 -151 88 -151q57 0 112 109.5t86 259.5t31 278q0 154 -90 154q-58 0 -112.5 -116t-84.5 -266.5t-30 -267.5zM1675 283q0 64 15.5 133.5t49 139.5t81 125t117.5 89.5t151 34.5q73 0 126.5 -23.5t84 -66 t45 -93.5t14.5 -112q0 -46 -10.5 -99.5t-30.5 -113.5t-54.5 -114.5t-78.5 -99t-106.5 -71t-134.5 -26.5q-139 0 -204 83t-65 214zM1860 147q0 -151 88 -151q57 0 112 109.5t86 259.5t31 278q0 154 -90 154q-58 0 -112.5 -116t-84.5 -266.5t-30 -267.5z" />
<glyph unicode="&#x2039;" horiz-adv-x="610" d="M84 426q0 24 39 57l446 357l6 -6l-311 -410l166 -412l-10 -8l-316 365q-20 20 -20 57z" />
<glyph unicode="&#x203a;" horiz-adv-x="610" d="M10 10q127 169 316 414l-162 407q1 2 8 9q31 -36 143 -165t172 -200q21 -24 21 -43q0 -15 -17.5 -42.5t-56.5 -55.5q-83 -61 -236.5 -184.5t-181.5 -145.5z" />
<glyph unicode="&#x2044;" horiz-adv-x="286" d="M-387 -80l995 1555h15l-992 -1555h-18z" />
<glyph unicode="&#x20ac;" d="M37 594l2 10h838l-3 -10h-442q-24 -144 -24 -252q0 -58 7.5 -108t26 -95.5t47 -77t72.5 -50.5t101 -19q103 0 169 28q-24 24 -37.5 66.5t-13.5 81.5q0 76 37 129t107 53q43 0 77.5 -32.5t34.5 -88.5q0 -109 -110.5 -179t-307.5 -70q-241 0 -369 137t-128 364q0 55 6 113 h-90zM68 788v11h98q70 278 251.5 425.5t430.5 147.5q164 0 250 -64.5t86 -158.5q0 -66 -37.5 -104.5t-87.5 -38.5q-61 0 -91 38t-30 95q0 54 23.5 113.5t52.5 82.5q-50 23 -119 23t-129.5 -32.5t-105 -85t-82 -127t-62 -151t-43.5 -163.5h436v-11h-841z" />
<glyph unicode="&#x2116;" horiz-adv-x="2166" d="M-68 0v4q1 6 19.5 9.5t46 7t62 19.5t66.5 42.5t60 81.5t41 131l158 893q9 50 -1 85t-31 51.5t-47.5 26.5t-50.5 11.5t-39.5 4.5t-14.5 9v4h487l459 -903l106 606q9 54 7.5 94.5t-11.5 70t-26 49.5t-35.5 32.5t-40 19t-39.5 10t-33.5 5.5t-23 4.5t-7.5 7.5v4h521v-4 q-1 -6 -20 -9.5t-47.5 -6t-63.5 -18t-67 -41.5t-60.5 -82.5t-42.5 -135.5l-201 -1136h-8l-654 1282l-163 -934q-14 -79 -4 -131t34 -81t55.5 -43.5t60 -18.5t47.5 -7.5t18 -9.5v-4h-517zM1436 604l6 19h649q-1 -3 -2 -10t-2 -9h-651zM1499 1006q0 99 48.5 185.5t140.5 140.5 t206 54q140 0 210.5 -67t70.5 -174q0 -69 -29.5 -136t-81.5 -121.5t-131.5 -88t-171.5 -33.5q-134 0 -198 66.5t-64 173.5zM1688 946q0 -83 17.5 -127.5t61.5 -44.5q67 0 119 73t75.5 168t23.5 185q0 40 -3.5 69t-13 54t-28 38t-46.5 13q-57 0 -105.5 -66.5t-74.5 -164.5 t-26 -197z" />
<glyph unicode="&#x2122;" horiz-adv-x="1763" d="M113 1149q8 86 28 258q111 -27 328 -27q221 0 309 27q25 -215 29 -258q-12 0 -16 20q-33 112 -85 155.5t-145 43.5h-20v-537q0 -42 13.5 -68.5t32 -35t37.5 -11.5t32.5 -4t13.5 -5v-7h-420v7q0 5 20 7.5t44.5 7.5t44.5 33.5t20 78.5v534h-19q-96 0 -147 -42t-84 -157 q-4 -13 -7 -16.5t-9 -3.5zM776 700v5q1 6 19 8.5t39.5 6.5t40.5 28t20 67l12 449q1 41 -13 64.5t-32.5 29t-33.5 9t-15 9.5v4h246l229 -487q122 289 201 487h248v-4q0 -6 -16 -7.5t-35.5 -4t-35.5 -21.5t-16 -55q0 -75 15 -475q1 -42 17.5 -65.5t35 -27.5t34 -6.5t15.5 -8.5 v-5h-360v5q0 6 16 10.5t34.5 10.5t33.5 31t14 66l-16 486l-252 -619h-15l-286 606l-13 -481q-1 -43 16.5 -67t39.5 -27.5t41 -6t20 -9.5v-5h-248z" />
<glyph unicode="&#x25fc;" horiz-adv-x="931" d="M0 0v932h932v-932h-932z" />
</font>
</defs>
</svg>
