<?xml version="1.0" encoding="utf-8"?>
<!-- Generator: Adobe Illustrator 16.0.1, SVG Export Plug-In . SVG Version: 6.00 Build 0)  -->
<!DOCTYPE svg PUBLIC "-//W3C//DTD SVG 1.1//EN" "http://www.w3.org/Graphics/SVG/1.1/DTD/svg11.dtd">
<svg version="1.1" id="Слой_1" xmlns="http://www.w3.org/2000/svg" xmlns:xlink="http://www.w3.org/1999/xlink" x="0px" y="0px"
	 width="161.556px" height="109.383px" viewBox="0 0 161.556 109.383" enable-background="new 0 0 161.556 109.383"
	 xml:space="preserve">
<g>
	<g>
		<path fill="#FFFFFF" d="M147.269,24.771c0.046-0.072,0.103-0.125,0.16-0.158c0.08-0.098,0.177-0.185,0.292-0.258
			c0.479-0.299,1.068-0.118,1.395,0.311c0.328,0.436,0.338,1.029-0.03,1.445c-0.327,0.375-0.827,0.537-1.307,0.586
			c-0.196,0.021-0.369-0.125-0.442-0.301c-0.095-0.053-0.17-0.147-0.206-0.281C147.011,25.658,147.022,25.186,147.269,24.771z"/>
		<path fill="#FFFFFF" d="M12.092,26.111c-0.367-0.416-0.359-1.01-0.028-1.445c0.32-0.429,0.915-0.609,1.391-0.311
			c0.113,0.073,0.212,0.16,0.293,0.258c0.06,0.033,0.112,0.088,0.16,0.158c0.248,0.414,0.256,0.891,0.14,1.344
			c-0.033,0.135-0.113,0.229-0.208,0.281c-0.073,0.176-0.247,0.322-0.443,0.301C12.913,26.648,12.419,26.486,12.092,26.111z"/>
		<path fill="#FFFFFF" d="M13.907,84.611c-0.048,0.072-0.103,0.122-0.16,0.16c-0.081,0.096-0.18,0.18-0.293,0.256
			c-0.476,0.301-1.07,0.115-1.391-0.309c-0.333-0.441-0.343-1.029,0.027-1.447c0.328-0.373,0.822-0.539,1.303-0.588
			c0.198-0.02,0.372,0.127,0.445,0.301c0.095,0.055,0.173,0.146,0.206,0.287C14.163,83.724,14.155,84.195,13.907,84.611z"/>
		<path fill="#FFFFFF" d="M149.085,83.271c0.364,0.418,0.358,1.006,0.026,1.447c-0.322,0.424-0.912,0.608-1.391,0.308
			c-0.115-0.075-0.212-0.159-0.292-0.255c-0.058-0.038-0.114-0.09-0.16-0.162c-0.246-0.414-0.258-0.886-0.139-1.338
			c0.036-0.141,0.111-0.232,0.206-0.287c0.073-0.177,0.246-0.32,0.442-0.3C148.256,82.731,148.756,82.898,149.085,83.271z"/>
		<path fill="#FAFDCD" d="M156.783,65.803c-1.645,3.307-2.837,5.38-5.137,7.963c-1.45,1.627-2.446,3.567-3.911,5.029
			c-0.419,0.776-0.803,1.574-1.472,2.162c-0.084,0.139-0.183,0.258-0.314,0.351c-3.322,1.327-7.161-0.049-9.93,1.106
			c-0.824,0.346-2.957,1.848-3.418,2.537c-0.691,1.028-0.474,2.795-0.906,4.296s-1.157,2.492-1.885,3.618
			c-3.676,2.41-10.474,2.259-15.568,2.848c-3.248,0.376-7.641,0.889-9.777,2.334c-4.993,6.697-13.962,10.234-23.876,10.352
			c-9.919-0.117-18.886-3.654-23.878-10.352c-2.141-1.445-6.531-1.958-9.779-2.334c-5.092-0.589-11.893-0.438-15.57-2.848
			c-0.729-1.126-1.447-2.117-1.88-3.618c-0.435-1.501-0.219-3.268-0.906-4.296c-0.466-0.689-2.599-2.191-3.421-2.537
			c-2.769-1.155-6.607,0.221-9.93-1.106c-0.127-0.091-0.23-0.212-0.311-0.351c-0.676-0.588-1.056-1.386-1.477-2.162
			c-1.463-1.463-2.46-3.401-3.906-5.029c-2.304-2.582-2.8-2.988-4.441-6.295c-0.311-0.625-1.294-2.768-1.585-3.455
			c-0.946-2.232-2.261-5.711-1.94-10.259c0.461-3.493,1.286-6.02,2.168-8.095c0.291-0.688,0.353-1.457,0.659-2.08
			c1.643-3.309,2.836-5.385,5.14-7.965c1.446-1.626,2.443-3.568,3.906-5.029c0.421-0.777,0.801-1.571,1.477-2.164
			c0.082-0.137,0.184-0.256,0.311-0.35c3.322-1.326,7.161,0.049,9.934-1.105c0.821-0.346,2.951-1.848,3.417-2.538
			c0.688-1.024,0.472-2.796,0.906-4.296c0.433-1.502,1.15-2.489,1.88-3.618c3.678-2.411,10.479-2.259,15.574-2.849
			c3.244-0.373,7.635-0.887,9.775-2.332C61.703,4.639,70.676,1.103,80.589,0.984c9.914,0.118,18.883,3.654,23.876,10.352
			c2.137,1.445,6.529,1.959,9.777,2.332c5.095,0.59,11.893,0.438,15.568,2.849c0.729,1.13,1.452,2.114,1.885,3.618
			c0.433,1.5,0.215,3.271,0.909,4.296c0.458,0.69,2.591,2.192,3.415,2.538c2.769,1.154,6.607-0.221,9.93,1.105
			c0.132,0.094,0.23,0.213,0.314,0.35c0.669,0.593,1.053,1.386,1.472,2.163c1.465,1.462,2.461,3.404,3.911,5.03
			c2.3,2.58,3.492,4.656,5.137,7.965c0.307,0.623,0.369,1.392,0.66,2.078c0.882,2.076,2.001,4.912,2.553,7.971
			C160.543,57.529,157.09,65.18,156.783,65.803z"/>
	</g>
	<g>
		<g>
			<g>
				<g>
					<path d="M161.106,51.204c-0.841-4.415-2.771-9.126-5.153-12.417c-2.539-3.513-4.766-6.078-7.262-9.152
						c-0.704-0.957-0.704-1.394-0.524-1.805c0.902-0.004,2.261-0.672,2.536-1.938c0.555-3.777-4.558-3.754-4.995-0.169
						c-4.109,0.027-13.001,1.299-12.098-4.041c-0.94-2.394-1.885-5.542-4.049-6.826c-2.579-1.528-7.204-1.782-11.025-2.095
						c-4.093-0.33-9.103-0.21-12.264-2.09c-1.167-0.695-2.714-2.232-3.825-3.233c-1.188-1.069-2.438-2.302-3.822-3.093
						c-0.898-0.518-2.098-0.781-3.158-1.29c-0.982-0.472-1.913-1.208-2.879-1.56c-3.141-1.139-7.604-1.568-11.999-1.486
						c-4.398-0.082-8.864,0.348-12.003,1.486c-0.966,0.352-1.896,1.088-2.877,1.56c-1.059,0.509-2.258,0.772-3.158,1.29
						c-1.383,0.791-2.638,2.023-3.825,3.094c-1.11,1-2.655,2.537-3.822,3.232c-3.164,1.881-8.171,1.76-12.269,2.093
						c-3.813,0.31-8.445,0.563-11.02,2.092c-2.17,1.286-3.107,4.433-4.047,6.826c0.896,5.34-7.991,4.068-12.102,4.041
						c-0.438-3.585-5.55-3.608-4.995,0.169c0.276,1.266,1.636,1.933,2.539,1.938c0.179,0.411,0.179,0.848-0.528,1.805
						c-2.497,3.074-4.718,5.64-7.262,9.152c-2.384,3.291-4.182,7.18-4.994,12.324c-0.07,0.432-0.24,4.901-0.226,5.336
						c0.118,2.879,2.233,10.494,5.22,14.151c2.744,3.357,4.765,6.075,7.262,9.151c0.707,0.953,0.707,1.393,0.528,1.8
						c-0.903,0.007-2.263,0.673-2.539,1.938c-0.555,3.778,4.558,3.754,4.995,0.171c4.108-0.028,12.998-1.298,12.102,4.039
						c0.939,2.396,1.877,5.543,4.046,6.831c2.574,1.523,7.207,1.779,11.021,2.089c4.098,0.334,9.104,0.212,12.269,2.093
						c1.167,0.694,2.712,2.234,3.822,3.233c1.188,1.066,2.442,2.304,3.825,3.092c0.899,0.515,2.1,0.78,3.158,1.29
						c0.98,0.471,1.911,1.209,2.877,1.561c3.139,1.137,7.604,1.567,12.003,1.486c4.395,0.081,8.858-0.35,11.999-1.486
						c0.966-0.352,1.896-1.09,2.879-1.561c1.061-0.51,2.26-0.775,3.158-1.29c1.384-0.788,2.635-2.025,3.822-3.092
						c1.111-0.999,2.658-2.539,3.825-3.233c3.161-1.881,8.171-1.759,12.264-2.093c3.817-0.31,8.446-0.565,11.025-2.089
						c2.164-1.288,3.108-4.436,4.047-6.831c-0.901-5.337,7.99-4.067,12.1-4.04c0.438,3.584,5.547,3.607,4.995-0.17
						c-0.275-1.266-1.634-1.934-2.538-1.938c-0.178-0.407-0.178-0.849,0.526-1.8c2.496-3.076,4.975-5.473,7.262-9.151
						c4.049-6.515,5.505-13.048,5.6-15.326C161.598,54.203,161.188,51.634,161.106,51.204z M147.269,24.771
						c0.046-0.072,0.103-0.125,0.16-0.158c0.08-0.098,0.177-0.185,0.292-0.258c0.479-0.299,1.068-0.118,1.395,0.311
						c0.328,0.436,0.338,1.029-0.03,1.445c-0.327,0.375-0.827,0.537-1.307,0.586c-0.196,0.021-0.369-0.125-0.442-0.301
						c-0.095-0.053-0.17-0.147-0.206-0.281C147.011,25.658,147.022,25.186,147.269,24.771z M12.092,26.111
						c-0.367-0.416-0.359-1.01-0.028-1.445c0.32-0.429,0.915-0.609,1.391-0.311c0.113,0.073,0.212,0.16,0.293,0.258
						c0.06,0.033,0.112,0.088,0.16,0.158c0.248,0.414,0.256,0.891,0.14,1.344c-0.033,0.135-0.113,0.229-0.208,0.281
						c-0.073,0.176-0.247,0.322-0.443,0.301C12.913,26.648,12.419,26.486,12.092,26.111z M13.907,84.611
						c-0.048,0.072-0.103,0.122-0.16,0.16c-0.081,0.096-0.18,0.18-0.293,0.256c-0.476,0.301-1.07,0.115-1.391-0.309
						c-0.333-0.441-0.343-1.029,0.027-1.447c0.328-0.373,0.822-0.539,1.303-0.588c0.198-0.02,0.372,0.127,0.445,0.301
						c0.095,0.055,0.173,0.146,0.206,0.287C14.163,83.724,14.155,84.195,13.907,84.611z M149.085,83.271
						c0.364,0.418,0.358,1.006,0.026,1.447c-0.322,0.424-0.912,0.608-1.391,0.308c-0.115-0.075-0.212-0.159-0.292-0.255
						c-0.058-0.038-0.114-0.09-0.16-0.162c-0.246-0.414-0.258-0.886-0.139-1.338c0.036-0.141,0.111-0.232,0.206-0.287
						c0.073-0.177,0.246-0.32,0.442-0.3C148.256,82.731,148.756,82.898,149.085,83.271z M156.783,65.803
						c-1.645,3.307-2.837,5.38-5.137,7.963c-1.45,1.627-2.446,3.567-3.911,5.029c-0.419,0.776-0.803,1.574-1.472,2.162
						c-0.084,0.139-0.183,0.258-0.314,0.351c-3.322,1.327-7.161-0.049-9.93,1.106c-0.824,0.346-2.957,1.848-3.418,2.537
						c-0.691,1.028-0.474,2.795-0.906,4.296s-1.157,2.492-1.885,3.618c-3.676,2.41-10.474,2.259-15.568,2.848
						c-3.248,0.376-7.641,0.889-9.777,2.334c-4.993,6.697-13.962,10.234-23.876,10.352c-9.919-0.117-18.886-3.654-23.878-10.352
						c-2.141-1.445-6.531-1.958-9.779-2.334c-5.092-0.589-11.893-0.438-15.57-2.848c-0.729-1.126-1.447-2.117-1.88-3.618
						c-0.435-1.501-0.219-3.268-0.906-4.296c-0.466-0.689-2.599-2.191-3.421-2.537c-2.769-1.155-6.607,0.221-9.93-1.106
						c-0.127-0.091-0.23-0.212-0.311-0.351c-0.676-0.588-1.056-1.386-1.477-2.162c-1.463-1.463-2.46-3.401-3.906-5.029
						c-2.304-2.582-2.8-2.988-4.441-6.295c-0.311-0.625-1.294-2.768-1.585-3.455c-0.946-2.232-2.261-5.711-1.94-10.259
						c0.461-3.493,1.286-6.02,2.168-8.095c0.291-0.688,0.353-1.457,0.659-2.08c1.643-3.309,2.836-5.385,5.14-7.965
						c1.446-1.626,2.443-3.568,3.906-5.029c0.421-0.777,0.801-1.571,1.477-2.164c0.082-0.137,0.184-0.256,0.311-0.35
						c3.322-1.326,7.161,0.049,9.934-1.105c0.821-0.346,2.951-1.848,3.417-2.538c0.688-1.024,0.472-2.796,0.906-4.296
						c0.433-1.502,1.15-2.489,1.88-3.618c3.678-2.411,10.479-2.259,15.574-2.849c3.244-0.373,7.635-0.887,9.775-2.332
						C61.703,4.639,70.676,1.103,80.589,0.984c9.914,0.118,18.883,3.654,23.876,10.352c2.137,1.445,6.529,1.959,9.777,2.332
						c5.095,0.59,11.893,0.438,15.568,2.849c0.729,1.13,1.452,2.114,1.885,3.618c0.433,1.5,0.215,3.271,0.909,4.296
						c0.458,0.69,2.591,2.192,3.415,2.538c2.769,1.154,6.607-0.221,9.93,1.105c0.132,0.094,0.23,0.213,0.314,0.35
						c0.669,0.593,1.053,1.386,1.472,2.163c1.465,1.462,2.461,3.404,3.911,5.03c2.3,2.58,3.492,4.656,5.137,7.965
						c0.307,0.623,0.369,1.392,0.66,2.078c0.882,2.076,2.001,4.912,2.553,7.971C160.543,57.529,157.09,65.18,156.783,65.803z"/>
				</g>
				<g>
					<g>
						<g>
							<path fill-rule="evenodd" clip-rule="evenodd" d="M4.555,57.129c0.405,0.393,0.535,0.993,0.683,1.618
								c0.146,0.624,0.311,1.267,0.69,1.667c-0.01,0.313-0.707,0.247-0.387,1.037c-0.543-0.236-1.07-0.984-1.302-1.868
								C4.002,58.703,4.079,57.717,4.555,57.129z"/>
						</g>
						<g>
							<path fill-rule="evenodd" clip-rule="evenodd" d="M32.955,89.76c0.078,0.178,0.196,0.363,0.334,0.553
								c0.068,0.092,0.142,0.184,0.221,0.275l0.122,0.138l0.098,0.097c0.036,0.029,0.058,0.066,0.101,0.078
								c0.046,0.014,0.09,0.021,0.132,0.033l0.063,0.013c0.025,0.003,0.037,0.003,0.072,0.012l0.176,0.044
								c0.237,0.053,0.476,0.098,0.709,0.143c0.913,0.189,1.694,0.399,1.83,1.213c-0.919,0.166-2.006,0.155-2.92-0.233
								c-0.057-0.022-0.11-0.049-0.165-0.077l-0.084-0.039l-0.091-0.051c-0.152-0.078-0.289-0.168-0.419-0.25l-0.025-0.018
								c-0.006-0.01-0.009-0.021-0.015-0.025l-0.027-0.057L33.013,91.5c-0.034-0.074-0.062-0.141-0.089-0.209
								c-0.015-0.034-0.032-0.072-0.041-0.101l-0.021-0.077c-0.016-0.053-0.027-0.103-0.036-0.155
								C32.739,90.549,32.766,90.127,32.955,89.76z"/>
						</g>
						<g>
							<path fill-rule="evenodd" clip-rule="evenodd" d="M28.678,82.171c-0.583-0.382-1.229-0.716-1.761-1.06
								c-0.269-0.175-0.501-0.346-0.704-0.529c-0.215-0.186-0.399-0.394-0.543-0.648c0.216-0.145,0.489-0.18,0.789-0.14
								c0.146,0.019,0.316,0.067,0.468,0.125c0.161,0.063,0.313,0.137,0.467,0.224c0.606,0.332,1.168,0.794,1.653,1.047
								C28.738,81.588,28.9,81.812,28.678,82.171z"/>
						</g>
						<g>
							<path fill-rule="evenodd" clip-rule="evenodd" d="M64.473,101.25c0.367,0.207,0.959,0.43,1.488,0.694
								c0.525,0.266,0.995,0.587,1.122,1.063c-0.298,0.314-1.137,0.159-1.799-0.252C64.609,102.354,64.142,101.719,64.473,101.25z"
								/>
						</g>
						<g>
							<path fill-rule="evenodd" clip-rule="evenodd" d="M76.66,105.689c0.634-0.195,1.499-0.337,2.283-0.318
								c0.789,0.021,1.515,0.212,1.881,0.73c-0.573,0.318-1.484,0.501-2.32,0.447C77.667,106.496,76.917,106.217,76.66,105.689z"/>
						</g>
						<g>
							<path fill-rule="evenodd" clip-rule="evenodd" d="M70.244,104.148c0.434-0.006,1.271,0.03,2.012,0.188
								c0.751,0.159,1.422,0.446,1.549,1.049c-0.313,0.335-1.191,0.323-2,0.062C70.991,105.186,70.277,104.672,70.244,104.148z"/>
						</g>
						<g>
							<path fill-rule="evenodd" clip-rule="evenodd" d="M8.719,67.611c-0.733-0.154-1.244-0.685-1.637-1.359
								c-0.392-0.667-0.687-1.469-1.046-2.182c0.246-0.221,0.269-0.538,0.75-0.647c0.097,0.729,0.483,1.413,0.887,2.095
								c0.203,0.342,0.405,0.683,0.589,1.022C8.452,66.887,8.611,67.238,8.719,67.611z"/>
						</g>
						<g>
							<path fill-rule="evenodd" clip-rule="evenodd" d="M38.9,92.74c0.391,0.439,1.246,0.707,2.131,0.71
								c0.882,0.007,1.788-0.245,2.313-0.797c-0.87-0.688-2.551-0.106-3.554-0.596C39.482,92.16,39.751,92.804,38.9,92.74z"/>
						</g>
						<g>
							<path fill-rule="evenodd" clip-rule="evenodd" d="M57.28,94.781c-0.42-0.102-0.891-0.285-1.39-0.465
								c-0.495-0.18-1.015-0.361-1.511-0.473c-0.991-0.227-1.86-0.197-2.183,0.559c0.84,0.373,1.785,0.688,2.666,0.81
								C55.743,95.328,56.569,95.259,57.28,94.781z"/>
						</g>
						<g>
							<path fill-rule="evenodd" clip-rule="evenodd" d="M46.028,93.84c0.707,0.035,1.433,0.121,2.097,0.1
								c0.665-0.021,1.255-0.152,1.695-0.543c-0.629-0.814-2.448-0.416-3.503-0.566C46.326,93.334,46.068,93.421,46.028,93.84z"/>
						</g>
						<g>
							<path fill-rule="evenodd" clip-rule="evenodd" d="M58.873,96.604c0.079,0.64,0.501,1.498,1.088,2.113
								c0.585,0.622,1.309,0.998,1.868,0.832c-0.283-0.598-0.734-1.332-1.238-1.919C60.082,97.047,59.515,96.586,58.873,96.604z"/>
						</g>
						<g>
							<path fill-rule="evenodd" clip-rule="evenodd" d="M9.475,70.051c0.622,1.479,1.779,2.291,2.803,2.963
								c0.196-0.09,0.126-0.223,0.264-0.319c-0.246-0.239-0.488-0.56-0.727-0.886c-0.234-0.333-0.463-0.68-0.7-0.98
								C10.633,70.222,10.157,69.813,9.475,70.051z"/>
						</g>
						<g>
							<path fill-rule="evenodd" clip-rule="evenodd" d="M30.834,83.508c0.092,0.713,0.302,1.389,0.55,2.162
								c0.126,0.384,0.259,0.791,0.406,1.197c0.144,0.404,0.305,0.809,0.486,1.161c0.15-0.025,0.215-0.089,0.215-0.187
								c-0.189-0.751-0.093-1.539-0.227-2.347c-0.067-0.401-0.189-0.808-0.423-1.167C31.608,83.977,31.275,83.666,30.834,83.508z"/>
						</g>
						<g>
							<path fill-rule="evenodd" clip-rule="evenodd" d="M22.484,79.512c-0.326-0.406-0.81-0.56-1.329-0.609
								c-0.521-0.049-1.082,0.006-1.605-0.002c-0.206,0.097-0.561,0.25-0.542,0.451c0.024,0.268,0.161,0.49,0.322,0.697
								c0.467,0.111,0.992,0.229,1.53,0.195C21.398,80.207,21.937,80.014,22.484,79.512z"/>
						</g>
						<g>
							<path fill-rule="evenodd" clip-rule="evenodd" d="M14.335,75.508c-0.145,0.455-0.059,0.898,0.171,1.31
								c0.114,0.204,0.266,0.403,0.445,0.583c0.088,0.09,0.187,0.181,0.283,0.259c0.045,0.036,0.094,0.079,0.138,0.109l0.089,0.056
								l0.067,0.074c0.007,0.006,0.03,0.036,0.044,0.055l0.053,0.064l0.196,0.249c0.059-0.077,0.126-0.152,0.205-0.22
								c0.158-0.132,0.332-0.199,0.517-0.234l-0.107-0.273c-0.026-0.073-0.087-0.211-0.14-0.337l-0.157-0.182l-0.112-0.14
								l-0.199-0.244c-0.134-0.162-0.269-0.318-0.415-0.464C15.117,75.883,14.781,75.637,14.335,75.508z"/>
						</g>
					</g>
					<g>
						<g>
							<path fill-rule="evenodd" clip-rule="evenodd" d="M79.864,4.092c-0.411,0.379-1.036,0.465-1.682,0.538
								c-0.647,0.074-1.315,0.14-1.775,0.445c-0.313-0.058-0.127-0.731-0.961-0.554c0.327-0.494,1.146-0.879,2.029-0.986
								C78.364,3.42,79.306,3.588,79.864,4.092z"/>
						</g>
						<g>
							<path fill-rule="evenodd" clip-rule="evenodd" d="M35.828,18.316c-0.396,0.079-0.837,0.273-1.263,0.524
								c-0.106,0.061-0.21,0.128-0.314,0.196L34.1,19.143c-0.029,0.018-0.039,0.029-0.056,0.045l-0.041,0.039
								c-0.029,0.025-0.057,0.049-0.083,0.075c-0.021,0.027-0.027,0.073-0.042,0.104l-0.033,0.104l-0.078,0.162
								c-0.204,0.436-0.393,0.801-0.612,1.065c-0.227,0.263-0.498,0.444-0.909,0.479c-0.047-0.472,0.018-0.999,0.169-1.486
								c0.077-0.248,0.172-0.482,0.277-0.703l0.081-0.163c0.013-0.023,0.034-0.065,0.058-0.103l0.068-0.113
								c0.044-0.076,0.094-0.153,0.141-0.229c0.014-0.018,0.021-0.04,0.039-0.055l0.056-0.03l0.117-0.059
								c0.08-0.04,0.155-0.079,0.236-0.114l0.112-0.049l0.088-0.033c0.113-0.039,0.223-0.075,0.338-0.102
								c0.226-0.053,0.443-0.077,0.659-0.068C35.11,17.923,35.5,18.057,35.828,18.316z"/>
						</g>
						<g>
							<path fill-rule="evenodd" clip-rule="evenodd" d="M44.93,16.504c0.707-0.094,1.431-0.233,2.089-0.264
								c0.653-0.035,1.26,0.043,1.72,0.398c-0.281,0.433-0.879,0.588-1.545,0.666c-0.663,0.077-1.38,0.063-1.902,0.184
								C45.265,16.99,45.004,16.921,44.93,16.504z"/>
						</g>
						<g>
							<path fill-rule="evenodd" clip-rule="evenodd" d="M11.61,38.53c-0.255,0.338-0.556,0.894-0.89,1.381
								c-0.34,0.486-0.715,0.906-1.205,0.971c-0.274-0.339-0.007-1.149,0.49-1.756C10.502,38.518,11.188,38.141,11.61,38.53z"/>
						</g>
						<g>
							<path fill-rule="evenodd" clip-rule="evenodd" d="M5.51,49.979c0.088,0.658,0.094,1.525-0.038,2.301
								c-0.134,0.771-0.418,1.458-0.981,1.752c-0.237-0.607-0.295-1.537-0.117-2.36C4.543,50.846,4.948,50.142,5.51,49.979z"/>
						</g>
						<g>
							<path fill-rule="evenodd" clip-rule="evenodd" d="M7.945,43.855c-0.03,0.214-0.088,0.53-0.181,0.881
								c-0.048,0.174-0.099,0.357-0.161,0.538c-0.021,0.055-0.022,0.073-0.03,0.103c-0.005,0.031-0.005,0.045-0.008,0.091
								c-0.019,0.08-0.036,0.175-0.053,0.269c-0.074,0.376-0.206,0.767-0.41,1.047C7,46.926,6.88,47.037,6.753,47.114
								c-0.134,0.077-0.274,0.109-0.426,0.112c-0.067-0.092-0.105-0.22-0.124-0.355c-0.022-0.135-0.024-0.291-0.016-0.456
								c0.022-0.333,0.083-0.71,0.214-1.13c0.019-0.053,0.036-0.105,0.06-0.162c0.023-0.066,0.049-0.141,0.085-0.205l0.058-0.092
								l0.045-0.064l0.09-0.123c0.127-0.158,0.258-0.303,0.393-0.424C7.399,43.973,7.684,43.833,7.945,43.855z"/>
						</g>
						<g>
							<path fill-rule="evenodd" clip-rule="evenodd" d="M68.883,6.659c0.23-0.714,0.821-1.153,1.545-1.458
								c0.725-0.305,1.573-0.472,2.352-0.686c0.17,0.281,0.477,0.36,0.493,0.858c-0.734-0.048-1.471,0.21-2.195,0.512
								C70.352,6.188,69.643,6.533,68.883,6.659z"/>
						</g>
						<g>
							<path fill-rule="evenodd" clip-rule="evenodd" d="M31.895,23.314c-0.219,0.197-0.397,0.492-0.553,0.826
								c-0.15,0.331-0.274,0.695-0.39,1.064c-0.114,0.367-0.225,0.756-0.313,1.129c-0.102,0.385-0.188,0.788-0.169,1.173
								c0.283-0.049,0.542-0.206,0.78-0.44c0.119-0.121,0.232-0.258,0.335-0.42c0.097-0.15,0.18-0.316,0.254-0.482
								c0.15-0.338,0.258-0.686,0.357-1.016c0.103-0.325,0.199-0.632,0.342-0.893c-0.033-0.17-0.22-0.189-0.381-0.278
								C31.995,23.888,31.862,23.735,31.895,23.314z"/>
						</g>
						<g>
							<path fill-rule="evenodd" clip-rule="evenodd" d="M17.435,31.348c0.021-0.017,0.041-0.029,0.069-0.043l0.042-0.016
								c0.009-0.005,0.011-0.008,0.022-0.012l0.035-0.012c0.099-0.029,0.202-0.052,0.313-0.069c0.219-0.038,0.451-0.06,0.697-0.067
								c0.486-0.021,0.998,0.014,1.49,0.014c0.977,0.003,1.843-0.162,2.025-0.967c-0.891-0.213-1.9-0.375-2.84-0.234
								c-0.472,0.072-0.91,0.221-1.255,0.464c-0.172,0.116-0.325,0.259-0.443,0.421C17.458,30.99,17.415,31.162,17.435,31.348z"/>
						</g>
						<g>
							<path fill-rule="evenodd" clip-rule="evenodd" d="M27.701,28.424c-0.285,0.199-0.58,0.389-0.865,0.568l-0.426,0.255
								l-0.2,0.116l-0.204,0.115c-0.544,0.311-1.032,0.626-1.342,1.133c0.43,0.293,1.102,0.178,1.746-0.131
								c0.079-0.039,0.16-0.081,0.238-0.121c0.085-0.046,0.167-0.096,0.242-0.143c0.156-0.098,0.302-0.198,0.438-0.299
								c0.276-0.197,0.529-0.384,0.766-0.52C27.781,29.01,27.928,28.779,27.701,28.424z"/>
						</g>
						<g>
							<path fill-rule="evenodd" clip-rule="evenodd" d="M15.823,32.49l-0.041,0.023c-0.285,0.069-0.663,0.264-0.99,0.525
								c-0.328,0.256-0.633,0.581-0.872,0.918c-0.476,0.679-0.719,1.404-0.504,1.937c0.563-0.335,1.204-0.917,1.682-1.513
								c0.238-0.302,0.436-0.604,0.572-0.899c0.069-0.151,0.118-0.3,0.157-0.453c0.029-0.148,0.059-0.323,0.025-0.461
								C15.847,32.54,15.835,32.514,15.823,32.49z"/>
						</g>
						<g>
							<path fill-rule="evenodd" clip-rule="evenodd" d="M66.358,7.063c-0.775,0.147-1.441,0.472-2.002,0.882
								c-0.563,0.412-1.015,0.914-1.38,1.421c0.079,0.198,0.215,0.136,0.307,0.274c0.486-0.467,1.32-0.791,1.993-1.131
								C65.946,8.161,66.466,7.779,66.358,7.063z"/>
						</g>
						<g>
							<path fill-rule="evenodd" clip-rule="evenodd" d="M42.424,17.146c-0.642-0.335-1.48-0.378-2.338-0.233
								c-0.854,0.143-1.727,0.475-2.419,0.869c0.027,0.152,0.098,0.212,0.195,0.207c0.741-0.223,1.517-0.162,2.278-0.181
								C40.906,17.79,41.666,17.69,42.424,17.146z"/>
						</g>
						<g>
							<path fill-rule="evenodd" clip-rule="evenodd" d="M51.919,16.168c0.789,0.678,1.97,0.28,3.036,0.006
								c0.189-0.151,0.499-0.414,0.416-0.602c-0.111-0.244-0.311-0.412-0.521-0.567C53.938,15.053,52.804,14.978,51.919,16.168z"/>
						</g>
						<g>
							<path fill-rule="evenodd" clip-rule="evenodd" d="M60.685,11.646c-0.51-0.065-0.959,0.143-1.331,0.487
								c-0.189,0.173-0.355,0.376-0.502,0.597c-0.072,0.109-0.145,0.226-0.209,0.334l-0.047,0.084
								c-0.015,0.027-0.035,0.062-0.042,0.074l-0.043,0.112l-0.089,0.104l-0.149,0.148c0.081,0.051,0.16,0.11,0.238,0.183
								c0.144,0.144,0.232,0.31,0.284,0.487l0.083-0.043c0.022-0.012,0.05-0.022,0.088-0.047l0.226-0.123l0.171-0.189
								c0.031-0.037,0.048-0.053,0.068-0.077l0.064-0.067c0.089-0.092,0.164-0.174,0.244-0.264c0.157-0.174,0.31-0.35,0.44-0.536
								C60.444,12.541,60.637,12.144,60.685,11.646z"/>
						</g>
					</g>
					<g>
						<g>
							<path fill-rule="evenodd" clip-rule="evenodd" d="M157.518,54.313c-0.439-0.352-0.617-0.946-0.805-1.567
								c-0.184-0.617-0.373-1.26-0.762-1.655c0-0.319,0.7-0.264,0.363-1.05c0.548,0.232,1.081,0.958,1.351,1.814
								C157.94,52.711,157.939,53.687,157.518,54.313z"/>
						</g>
						<g>
							<path fill-rule="evenodd" clip-rule="evenodd" d="M129.129,21.531c-0.028-0.184-0.102-0.389-0.199-0.59
								c-0.103-0.204-0.227-0.402-0.379-0.596c-0.146-0.193-0.308-0.382-0.476-0.57l-0.249-0.277
								c-0.059-0.051-0.1-0.098-0.151-0.132c-0.064-0.018-0.121-0.032-0.179-0.049c-0.098-0.036-0.197-0.076-0.294-0.116
								c-0.191-0.078-0.363-0.166-0.512-0.268c-0.301-0.207-0.509-0.48-0.545-0.889c0.469-0.047,0.968-0.043,1.473,0.052
								c0.127,0.022,0.251,0.05,0.376,0.087c0.03,0.004,0.077,0.023,0.117,0.037c0.038,0.016,0.084,0.031,0.125,0.045
								c0.082,0.033,0.164,0.066,0.245,0.103l0.063,0.027c0.021,0.011,0.031,0.03,0.047,0.048l0.076,0.104
								c0.057,0.07,0.106,0.144,0.156,0.214l0.116,0.168c0.036,0.049,0.066,0.099,0.099,0.148c0.249,0.403,0.425,0.858,0.453,1.298
								C129.519,20.813,129.406,21.229,129.129,21.531z"/>
						</g>
						<g>
							<path fill-rule="evenodd" clip-rule="evenodd" d="M134.044,28.664c0.305,0.172,0.619,0.328,0.927,0.469
								c0.153,0.07,0.305,0.135,0.44,0.189l0.443,0.182c0.572,0.236,1.081,0.488,1.435,0.951c-0.387,0.346-1.057,0.311-1.727,0.09
								c-0.166-0.057-0.333-0.123-0.496-0.194c-0.172-0.073-0.339-0.161-0.487-0.244c-0.304-0.167-0.578-0.323-0.832-0.435
								C134.023,29.252,133.85,29.043,134.044,28.664z"/>
						</g>
						<g>
							<path fill-rule="evenodd" clip-rule="evenodd" d="M98.255,9.599c-0.351-0.231-0.93-0.483-1.445-0.778
								c-0.509-0.299-0.96-0.641-1.061-1.121c0.316-0.302,1.143-0.1,1.789,0.348C98.182,8.49,98.615,9.15,98.255,9.599z"/>
						</g>
						<g>
							<path fill-rule="evenodd" clip-rule="evenodd" d="M86.308,4.594c-0.639,0.176-1.507,0.282-2.292,0.239
								c-0.791-0.052-1.502-0.263-1.851-0.798c0.583-0.297,1.499-0.447,2.332-0.364C85.332,3.752,86.069,4.061,86.308,4.594z"/>
						</g>
						<g>
							<path fill-rule="evenodd" clip-rule="evenodd" d="M92.652,6.402c-0.432-0.016-1.262-0.092-2.005-0.279
								c-0.741-0.193-1.398-0.506-1.498-1.113c0.324-0.322,1.206-0.28,2.002,0.024C91.949,5.329,92.641,5.877,92.652,6.402z"/>
						</g>
						<g>
							<path fill-rule="evenodd" clip-rule="evenodd" d="M153.433,43.771c0.365,0.077,0.675,0.25,0.946,0.486
								c0.133,0.113,0.255,0.246,0.371,0.395c0.056,0.068,0.111,0.143,0.17,0.225c0.023,0.041,0.063,0.102,0.091,0.158
								c0.026,0.059,0.051,0.127,0.067,0.17c0.144,0.391,0.226,0.762,0.343,1.129c0.054,0.182,0.118,0.362,0.188,0.537
								c0.079,0.182,0.159,0.371,0.242,0.551c-0.248,0.21-0.279,0.531-0.764,0.629c-0.02-0.187-0.057-0.365-0.107-0.545
								c-0.025-0.086-0.054-0.175-0.087-0.267l-0.105-0.276c-0.141-0.373-0.287-0.758-0.422-1.134l-0.101-0.28l-0.053-0.127
								c-0.01-0.035-0.022-0.061-0.042-0.089l-0.024-0.041l-0.039-0.061l-0.072-0.126c-0.049-0.087-0.103-0.172-0.147-0.259
								C153.699,44.5,153.537,44.146,153.433,43.771z"/>
						</g>
						<g>
							<path fill-rule="evenodd" clip-rule="evenodd" d="M124.077,17.553c-0.379-0.459-1.233-0.751-2.116-0.771
								c-0.887-0.025-1.8,0.221-2.332,0.767c0.438,0.348,1.069,0.382,1.721,0.394c0.65,0.012,1.325,0.004,1.813,0.262
								C123.472,18.113,123.226,17.459,124.077,17.553z"/>
						</g>
						<g>
							<path fill-rule="evenodd" clip-rule="evenodd" d="M105.67,15.82c0.839,0.125,1.938,0.553,2.929,0.727
								c0.995,0.183,1.857,0.129,2.165-0.636c-0.856-0.35-1.822-0.632-2.718-0.7C107.156,15.141,106.328,15.276,105.67,15.82z"/>
						</g>
						<g>
							<path fill-rule="evenodd" clip-rule="evenodd" d="M116.945,16.373c-0.715-0.029-1.443-0.096-2.104-0.063
								c-0.658,0.032-1.252,0.165-1.684,0.562c0.316,0.402,0.926,0.504,1.599,0.516c0.667,0.01,1.383-0.072,1.912,0
								C116.65,16.883,116.911,16.793,116.945,16.373z"/>
						</g>
						<g>
							<path fill-rule="evenodd" clip-rule="evenodd" d="M103.832,14.236c-0.096-0.154-0.209-0.311-0.329-0.469
								c-0.063-0.08-0.126-0.16-0.199-0.244c-0.086-0.092-0.12-0.141-0.162-0.196c-0.019-0.048-0.028-0.088-0.05-0.134
								c-0.034-0.068-0.07-0.131-0.107-0.199c-0.084-0.13-0.165-0.266-0.259-0.391c-0.185-0.254-0.394-0.479-0.61-0.664
								c-0.44-0.369-0.922-0.564-1.334-0.474c0.156,0.405,0.391,0.876,0.656,1.326c0.135,0.225,0.274,0.446,0.429,0.653
								c0.075,0.102,0.151,0.199,0.238,0.295l0.135,0.154c0.058,0.068,0.115,0.135,0.177,0.197c0.078,0.041,0.163,0.08,0.242,0.117
								c0.037,0.018,0.063,0.023,0.094,0.033l0.087,0.029c0.11,0.033,0.231,0.061,0.345,0.072
								C103.419,14.365,103.639,14.33,103.832,14.236z"/>
						</g>
						<g>
							<path fill-rule="evenodd" clip-rule="evenodd" d="M152.799,41.287c-0.206-0.754-0.581-1.4-1.039-1.925
								c-0.455-0.525-0.99-0.931-1.522-1.261c-0.19,0.089-0.117,0.222-0.253,0.323c0.502,0.454,0.896,1.262,1.291,1.901
								C151.675,40.967,152.094,41.453,152.799,41.287z"/>
						</g>
						<g>
							<path fill-rule="evenodd" clip-rule="evenodd" d="M131.754,27.533c-0.103-0.346-0.277-0.676-0.475-0.991l-0.295-0.467
								l-0.301-0.488c-0.204-0.336-0.404-0.696-0.599-1.07l-0.566-1.116c-0.15,0.024-0.213,0.094-0.212,0.196
								c0.107,0.386,0.164,0.774,0.238,1.169c0.068,0.396,0.162,0.803,0.32,1.191c0.082,0.191,0.179,0.381,0.298,0.557
								c0.118,0.182,0.266,0.344,0.426,0.48C130.909,27.268,131.298,27.453,131.754,27.533z"/>
						</g>
						<g>
							<path fill-rule="evenodd" clip-rule="evenodd" d="M140.503,30.584c0.339,0.394,0.813,0.537,1.319,0.593
								c0.504,0.052,1.042,0.026,1.542,0.085c0.208-0.08,0.571-0.193,0.581-0.393c0.007-0.268-0.103-0.507-0.244-0.729
								c-0.462-0.164-1.005-0.323-1.561-0.3C141.583,29.862,141.029,30.059,140.503,30.584z"/>
						</g>
						<g>
							<path fill-rule="evenodd" clip-rule="evenodd" d="M148.085,35.682c0.176-0.559,0.027-1.094-0.282-1.588
								c-0.311-0.494-0.792-0.941-1.246-1.282c-0.032,0.09-0.082,0.179-0.141,0.264c-0.127,0.165-0.28,0.274-0.445,0.353
								c0.307,0.433,0.559,0.912,0.875,1.331C147.164,35.174,147.545,35.521,148.085,35.682z"/>
						</g>
					</g>
					<g>
						<g>
							<path fill-rule="evenodd" clip-rule="evenodd" d="M80.824,106.031c0.423-0.37,1.049-0.44,1.694-0.496
								c0.647-0.056,1.318-0.106,1.788-0.4c0.311,0.063,0.108,0.735,0.947,0.578c-0.344,0.48-1.17,0.846-2.06,0.936
								C82.309,106.739,81.37,106.551,80.824,106.031z"/>
						</g>
						<g>
							<path fill-rule="evenodd" clip-rule="evenodd" d="M124.897,91.997c0.805-0.118,1.813-0.682,2.577-1.167l0.033-0.023
								l0.023-0.011l0.033-0.029l0.071-0.052c0.027-0.012,0.033-0.041,0.045-0.064c0.016-0.021,0.029-0.048,0.044-0.07l0.07-0.1
								c0.031-0.044,0.063-0.084,0.094-0.123c0.063-0.08,0.126-0.146,0.192-0.213c0.265-0.248,0.567-0.383,0.972-0.353
								c-0.015,0.237-0.054,0.479-0.113,0.724c-0.031,0.118-0.064,0.236-0.101,0.357l-0.057,0.176l-0.034,0.087
								c-0.008,0.028-0.02,0.056-0.037,0.099c-0.034,0.075-0.07,0.154-0.111,0.236l-0.058,0.115l-0.03,0.059
								c-0.009,0.018-0.031,0.026-0.048,0.041c-0.137,0.096-0.29,0.193-0.438,0.275c-0.219,0.133-0.448,0.242-0.68,0.324
								C126.428,92.611,125.522,92.545,124.897,91.997z"/>
						</g>
						<g>
							<path fill-rule="evenodd" clip-rule="evenodd" d="M115.763,93.676c-0.708,0.099-1.417,0.252-2.081,0.294
								c-0.659,0.038-1.259-0.036-1.728-0.388c0.56-0.869,2.396-0.641,3.439-0.889C115.422,93.197,115.689,93.262,115.763,93.676z"
								/>
						</g>
						<g>
							<path fill-rule="evenodd" clip-rule="evenodd" d="M149.407,72.294c0.271-0.351,0.585-0.889,0.941-1.364
								c0.357-0.475,0.754-0.877,1.244-0.92c0.264,0.35-0.04,1.145-0.562,1.73c-0.254,0.293-0.558,0.529-0.848,0.645
								C149.895,72.492,149.62,72.484,149.407,72.294z"/>
						</g>
						<g>
							<path fill-rule="evenodd" clip-rule="evenodd" d="M156.064,61.107c-0.059-0.664,0-1.539,0.191-2.303
								c0.19-0.762,0.525-1.415,1.107-1.673c0.199,0.625,0.178,1.561-0.057,2.366C157.068,60.299,156.631,60.969,156.064,61.107z"/>
						</g>
						<g>
							<path fill-rule="evenodd" clip-rule="evenodd" d="M153.255,67.09c0.067-0.43,0.258-1.248,0.576-1.957
								c0.159-0.359,0.34-0.67,0.56-0.906c0.217-0.236,0.474-0.391,0.782-0.391c0.133,0.189,0.152,0.494,0.087,0.85
								c-0.032,0.179-0.093,0.371-0.168,0.563c-0.079,0.188-0.168,0.377-0.274,0.559C154.403,66.535,153.778,67.146,153.255,67.09z"
								/>
						</g>
						<g>
							<path fill-rule="evenodd" clip-rule="evenodd" d="M91.88,103.773c-0.256,0.703-0.86,1.125-1.593,1.406
								c-0.735,0.282-1.587,0.423-2.369,0.613c-0.162-0.287-0.468-0.375-0.468-0.871c0.729,0.067,1.476-0.169,2.208-0.445
								C90.393,104.195,91.116,103.878,91.88,103.773z"/>
						</g>
						<g>
							<path fill-rule="evenodd" clip-rule="evenodd" d="M129.647,87.734c0.216-0.201,0.389-0.518,0.512-0.871
								c0.124-0.359,0.21-0.754,0.27-1.148c0.058-0.398,0.098-0.797,0.111-1.195c0.014-0.4,0.006-0.799-0.054-1.191
								c-0.572,0.209-0.931,0.887-1.096,1.588c-0.173,0.703-0.183,1.408-0.434,1.926C129.061,87.158,129.698,86.883,129.647,87.734z
								"/>
						</g>
						<g>
							<path fill-rule="evenodd" clip-rule="evenodd" d="M143.444,78.875c-0.369,0.119-0.839,0.145-1.333,0.127
								c-0.494-0.012-1.026-0.057-1.525-0.06c-0.495-0.002-0.964,0.04-1.324,0.192c-0.361,0.151-0.611,0.411-0.685,0.813
								c0.891,0.175,1.887,0.317,2.804,0.204c0.458-0.055,0.896-0.173,1.26-0.385C143.002,79.557,143.287,79.26,143.444,78.875z"/>
						</g>
						<g>
							<path fill-rule="evenodd" clip-rule="evenodd" d="M133.18,82.2c0.546-0.427,1.156-0.813,1.657-1.204
								c0.126-0.096,0.244-0.193,0.356-0.295c0.105-0.094,0.215-0.189,0.319-0.291c0.203-0.209,0.38-0.434,0.509-0.7
								c-0.23-0.124-0.509-0.141-0.811-0.071c-0.074,0.016-0.149,0.039-0.227,0.063c-0.082,0.029-0.161,0.065-0.24,0.101
								c-0.155,0.077-0.307,0.162-0.45,0.259c-0.583,0.385-1.097,0.896-1.554,1.187C133.074,81.622,132.937,81.86,133.18,82.2z"/>
						</g>
						<g>
							<path fill-rule="evenodd" clip-rule="evenodd" d="M145.378,78.445c0.132-0.084,0.267-0.194,0.396-0.312
								c0.13-0.112,0.286-0.286,0.361-0.343l0.074-0.035c0.021-0.013,0.037-0.02,0.073-0.047c0.065-0.045,0.127-0.085,0.193-0.141
								c0.141-0.105,0.264-0.218,0.381-0.34c0.236-0.242,0.436-0.504,0.583-0.769c0.299-0.53,0.406-1.062,0.238-1.468
								c-0.398,0.242-0.839,0.598-1.241,0.979c-0.199,0.187-0.393,0.382-0.563,0.574c-0.087,0.098-0.167,0.192-0.242,0.289
								c-0.043,0.053-0.083,0.102-0.121,0.157c-0.058,0.071-0.112,0.143-0.161,0.211c-0.025,0.074-0.047,0.148-0.07,0.216
								c-0.01,0.041-0.014,0.064-0.018,0.086l-0.013,0.077c-0.01,0.104-0.018,0.209-0.016,0.308
								C145.244,78.085,145.29,78.27,145.378,78.445z"/>
						</g>
						<g>
							<path fill-rule="evenodd" clip-rule="evenodd" d="M94.422,103.459c0.771-0.118,1.453-0.416,2.028-0.803
								c0.576-0.391,1.05-0.87,1.437-1.362c-0.071-0.199-0.207-0.144-0.297-0.289c-0.502,0.447-1.348,0.737-2.035,1.052
								C94.868,102.377,94.335,102.738,94.422,103.459z"/>
						</g>
						<g>
							<path fill-rule="evenodd" clip-rule="evenodd" d="M118.268,93.026c0.642,0.337,1.473,0.384,2.329,0.253
								c0.854-0.13,1.734-0.445,2.441-0.819c-0.027-0.153-0.093-0.214-0.194-0.21c-0.748,0.201-1.52,0.125-2.287,0.133
								C119.79,92.394,119.027,92.485,118.268,93.026z"/>
						</g>
						<g>
							<path fill-rule="evenodd" clip-rule="evenodd" d="M108.784,94.1c-0.809-0.656-1.988-0.226-3.046,0.113
								c-0.185,0.158-0.481,0.44-0.383,0.623c0.129,0.234,0.333,0.393,0.546,0.534c0.451-0.042,0.964-0.06,1.464-0.215
								C107.863,95.003,108.354,94.711,108.784,94.1z"/>
						</g>
						<g>
							<path fill-rule="evenodd" clip-rule="evenodd" d="M100.284,99.126c0.579,0.101,1.097-0.157,1.519-0.57
								c0.433-0.409,0.754-0.976,0.998-1.471c-0.097-0.019-0.188-0.05-0.283-0.096c-0.188-0.087-0.324-0.218-0.429-0.368
								c-0.378,0.392-0.792,0.749-1.129,1.133C100.623,98.146,100.364,98.57,100.284,99.126z"/>
						</g>
					</g>
				</g>
			</g>
		</g>
	</g>
</g>
</svg>
