<?xml version="1.0" encoding="utf-8"?>
<!-- Generator: Adobe Illustrator 16.0.1, SVG Export Plug-In . SVG Version: 6.00 Build 0)  -->
<!DOCTYPE svg PUBLIC "-//W3C//DTD SVG 1.1//EN" "http://www.w3.org/Graphics/SVG/1.1/DTD/svg11.dtd">
<svg version="1.1" id="Слой_1" xmlns="http://www.w3.org/2000/svg" xmlns:xlink="http://www.w3.org/1999/xlink" x="0px" y="0px"
	 width="62.775px" height="27.409px" viewBox="0 0 62.775 27.409" enable-background="new 0 0 62.775 27.409" xml:space="preserve">

	<style>
		.text {
		fill-opacity: 0;
	    fill: #000 !important;
	    stroke: #1A4A72;
	    stroke-width: .5;
	    stroke-dasharray: 100;
	    stroke-dashoffset: 100;
	    animation: draw 2s linear;
	    animation-fill-mode: forwards;
	    animation-delay: 1s;
	    -webkit-animation: draw 2s linear;
	    -webkit-animation-fill-mode: forwards;
	    -webkit-animation-delay: 1s;
		}
		@keyframes draw {
		  70% {
		    stroke-dashoffset: 0;
		    stroke-width: .5;
		    fill-opacity: 0;
		  }
		  100% {
		    stroke-width: 0;
		    fill-opacity: 1;
		  }
		}
		-webkit-@keyframes draw {
		  70% {
		    stroke-dashoffset: 0;
		    stroke-width: .5;
		    fill-opacity: 0;
		  }
		  100% {
		    stroke-width: 0;
		    fill-opacity: 1;
		  }
		}


		.line path{
			stroke-dasharray: 200;
		    stroke-dashoffset: 200;
		    animation: drawLine 2s linear;
		    -webkit-animation: drawLine 2s linear;
		    fill: ##1A4A72 !important;
		    fill-opacity: 0;
		    stroke: #1A4A72;
		    stroke-width: .3;
		    animation-fill-mode: forwards;
		    -webkit-animation-fill-mode: forwards;
		    animation-delay: 5s;
		    -webkit-animation-delay: 5s;
		}

		@keyframes drawLine {
		  70% {
		    stroke-dashoffset: 0;
		    stroke-width: .5;
		    fill-opacity: 0;
		  }
		  100% {
		    stroke-width: 0;
		    fill-opacity: 1;
		  }
		}
		-webkit-@keyframes drawLine {
		  70% {
		    stroke-dashoffset: 0;
		    stroke-width: .5;
		    fill-opacity: 0;
		  }
		  100% {
		    stroke-width: 0;
		    fill-opacity: 1;
		  }
		}

		.bear path,
		.fish path {
		    -webkit-animation: drawBear 1s linear;
		    animation: drawBear 1s linear;
		    fill: ##1A4A72 !important;
		    fill-opacity: 0;
		    animation-fill-mode: forwards;
		    -webkit-animation-delay: 2s;
		    -webkit-animation-fill-mode: forwards;
		    animation-delay: 3s;
		    -webkit-animation-delay: 3s;
		}
		@keyframes drawBear {
		  50% {
		    fill-opacity: 0;
		  }
		  100% {
		    fill-opacity: 1;
		  }
		}
		-webkit-@keyframes drawBear {
		  50% {
		    fill-opacity: 0;
		  }
		  100% {
		    fill-opacity: 1;
		  }
		}
	</style>
<g>
	<g class="text">
		<path fill="#1D4B72" d="M3.15,25.591c0.211-0.113,0.381-0.303,0.559-0.608l1.877-3.705c0.106-0.21,0.329-0.621,0.368-0.845
			c0.044-0.283-0.113-0.474-0.304-0.612v-0.029h2.585c-0.034,0.19-0.021,0.465,0.208,1.571l0.868,4.273H9.85l-0.666,1.773
			c-0.104-0.359-0.474-0.676-1.076-0.676c0,0-4.145,0-4.336,0c-0.634,0-1.328,0.358-1.646,0.676l0.728-1.773L3.15,25.591z
			 M7.191,25.458l-0.728-3.886l-1.691,3.517c-0.104,0.208-0.273,0.453-0.408,0.579h2.847C7.211,25.603,7.2,25.521,7.191,25.458z"/>
		<path fill="#1D4B72" d="M15.716,26.702v0.031h-2.562v-0.031c0.452-0.328,0.474-0.633,0.548-1.131l0.305-1.93l-1.425,1.975
			c-0.324,0.473-0.524,0.653-0.887,0.832c-0.535,0.266-1.095,0.434-1.435,0.434l0.602-3.843c0.085-0.497,0.161-0.802-0.188-1.127
			l0.009-0.032h2.564l-0.009,0.032c-0.454,0.325-0.465,0.63-0.55,1.127L12.5,24.284l1.699-2.372l0.01-0.032h2.278l-0.011,0.032
			c-0.453,0.325-0.463,0.62-0.548,1.127l-0.402,2.532C15.451,26.069,15.369,26.374,15.716,26.702z"/>
		<path fill="#1D4B72" d="M19.877,22.997c0.178-0.166,0.38-0.314,0.408-0.549c0.043-0.244-0.125-0.454-0.306-0.536l0.013-0.032
			h2.436l-0.012,0.032l-1.919,1.815l1.056,2.173c0.147,0.315,0.295,0.624,0.57,0.802v0.031c-0.603,0-1.226,0.053-1.826,0.053
			c-0.485,0-0.622-0.317-0.779-0.697l-0.719-1.602l-0.17,1.074c-0.083,0.498-0.146,0.803,0.181,1.141v0.031h-2.565v-0.031
			c0.463-0.338,0.463-0.643,0.559-1.141l0.393-2.522c0.082-0.497,0.158-0.802-0.191-1.127l0.012-0.032h2.563l-0.01,0.032
			c-0.453,0.325-0.464,0.63-0.55,1.127l-0.148,0.929L19.877,22.997z"/>
		<path fill="#1D4B72" d="M27.952,26.702v0.031h-2.562v-0.031c0.453-0.328,0.475-0.633,0.548-1.131l0.305-1.93l-1.423,1.975
			c-0.326,0.473-0.526,0.653-0.884,0.832c-0.536,0.266-1.095,0.434-1.433,0.434l0.602-3.843c0.081-0.497,0.157-0.802-0.19-1.127
			l0.011-0.032h2.56l-0.013,0.032c-0.452,0.325-0.462,0.63-0.547,1.127l-0.187,1.245l1.693-2.372l0.013-0.032h2.278l-0.012,0.032
			c-0.453,0.325-0.465,0.62-0.549,1.127l-0.399,2.532C27.689,26.069,27.604,26.374,27.952,26.702z"/>
		<path fill="#1D4B72" d="M34.285,26.702v0.031h-2.563v-0.031c0.453-0.328,0.474-0.633,0.546-1.131l0.308-1.93l-1.427,1.975
			c-0.323,0.473-0.526,0.653-0.887,0.832c-0.533,0.266-1.095,0.434-1.432,0.434l0.601-3.843c0.086-0.497,0.158-0.802-0.188-1.127
			l0.009-0.032h2.563l-0.009,0.032c-0.452,0.325-0.465,0.63-0.548,1.127l-0.188,1.245l1.696-2.372l0.01-0.032h2.279l-0.009,0.032
			c-0.455,0.325-0.466,0.62-0.551,1.127l-0.398,2.532C34.018,26.069,33.935,26.374,34.285,26.702z M30.602,20.064
			c0.244,0.833,0.751,1.162,1.656,1.162c0.896,0,1.518-0.329,2.017-1.162l-0.528-0.252c-0.35,0.474-0.844,0.601-1.361,0.601
			c-0.529,0-0.979-0.127-1.17-0.601L30.602,20.064z"/>
		<path fill="#1D4B72" d="M40.156,23.737l-1.298-3.238c-0.105-0.256-0.24-0.487-0.484-0.679v-0.029h2.543v0.029l-0.021,0.035
			c-0.031,0.219,0.011,0.46,0.19,0.904l0.963,2.501l1.452-2.457c0.085-0.139,0.2-0.317,0.221-0.455
			c0.045-0.274-0.136-0.4-0.379-0.528v-0.029h1.892v0.029l-3.273,5.34c-0.729,1.17-1.34,1.731-2.047,1.731l-0.536-1.065h0.104
			c0.643,0,1.096-0.2,1.467-0.844C40.948,24.982,40.409,24.359,40.156,23.737z"/>
		<path fill="#1D4B72" d="M45.559,23.462l-1.057,2.121c-0.423,0.865-1.087,1.256-1.793,1.256h-0.042l-0.117-0.897
			c0.488-0.012,0.814-0.085,1.045-0.538l1.269-2.479c0.083-0.16,0.251-0.443,0.274-0.592c0.028-0.201-0.106-0.338-0.268-0.434v-0.02
			h2.281c0,0,0.021,0.337,0.199,1.096l0.75,3.094c0.062,0.261,0.123,0.455,0.328,0.645v0.02h-2.777v-0.02
			c0.221-0.119,0.403-0.213,0.444-0.456c0.021-0.126-0.012-0.274-0.053-0.422L45.559,23.462z"/>
		<path fill="#1D4B72" d="M51.655,21.741c0.677,0,1.308,0.158,1.75,0.602c0.479,0.455,0.688,1.182,0.574,1.901
			c-0.27,1.667-1.618,2.628-3.221,2.628c-1.509,0-2.512-0.961-2.26-2.521C48.751,22.732,50.07,21.741,51.655,21.741z M51.6,22.756
			c-0.75,0-1.045,0.696-1.141,1.317c-0.117,0.705-0.199,1.814,0.727,1.814c0.804,0,1.035-0.799,1.131-1.422
			C52.422,23.812,52.453,22.756,51.6,22.756z"/>
		<path fill="#1D4B72" d="M53.907,26.702c0.456-0.328,0.479-0.633,0.55-1.131l0.401-2.532c0.065-0.497,0.161-0.802-0.188-1.127
			l0.009-0.032h3.176c0.919,0,1.612,0.368,1.488,1.159c-0.074,0.495-0.538,0.815-1.033,0.941c0.674,0.073,1.127,0.61,1.023,1.254
			c-0.149,0.991-1.13,1.499-2.301,1.499h-3.126V26.702z M56.685,25.962c0.446,0,0.75-0.336,0.812-0.768
			c0.084-0.519-0.189-0.707-0.726-0.707h-0.308l-0.221,1.4C56.337,25.953,56.548,25.962,56.685,25.962z M56.893,23.703
			c0.363,0,0.613-0.241,0.668-0.538c0.031-0.262-0.137-0.525-0.453-0.525c-0.084,0-0.285,0.01-0.358,0.031l-0.161,1.003
			C56.643,23.695,56.843,23.703,56.893,23.703z"/>
	</g>
	<g class="bear">
		<path fill-rule="evenodd" clip-rule="evenodd" fill="#1D4B72" d="M18.616,11.175c-0.366,0.884-0.465,2.038-1.421,2.51
			c0.002,0.016-0.012,0.035-0.008,0.049c0.071,0.465,0.218,1.168,0.61,1.426c0.243-0.034,0.308-0.305,0.444-0.47
			c0.134,0.165,0.219,0.356,0.257,0.562c0.102-0.146,0.207-0.295,0.308-0.442c0.136,0.019,0.267,0.043,0.399,0.065
			c0.005-0.059,0.195,0.433,0.204,0.375c0.215,0.158,0.34-0.542,0.544-0.371c-0.014-0.205,0.224-0.073,0.212-0.279
			c0.099,0.074,0.551-0.059,0.646,0.016l0.066-0.271l0.121,0.044C26.501,10.776,18.915,11.462,18.616,11.175z"/>
		<path fill-rule="evenodd" clip-rule="evenodd" fill="#1D4B72" d="M35.646,0.17c-0.304-0.151-0.659-0.221-0.989-0.128
			c-0.606,0.172-1.195,0.401-1.748,0.705c-0.633,0.359-1.144,0.947-1.876,1.11c-0.719,0.283-1.503,0.16-2.256,0.213
			c-1.119,0.063-2.232-0.212-3.354-0.101c-1.135,0.05-2.209,0.484-3.224,0.964c-0.953,0.425-1.784,1.107-2.438,1.918
			c-0.332,0.582-0.664,1.251-0.552,1.943c0.032,0.477-0.282,0.891-0.333,1.36c-0.075,0.74-0.124,1.484-0.161,2.226
			c-0.014,0.267-0.033,0.533-0.099,0.794l1.756,3.045c0.175,0.06,0.346,0.115,0.518,0.178c-0.039,0.102-0.074,0.205-0.111,0.309
			c0.784-0.18,1.41-0.669,2.022-1.16c-0.017-0.08,0.042-0.157,0.128-0.157c0.053,0,0.105-0.005,0.148,0.028
			c0.013,0.004,0.028,0.012,0.042,0.02c0.811,0.736,8.257-0.228,8.543-0.757c0.114,0.362,0.314,0.685,0.547,0.983
			c0.474,0.597,0.272,1.482,0.818,2.035c0.434,0.6,0.777,1.279,1.371,1.746c1.029,0.423,2.184,0.291,3.262,0.184l0.062-0.006
			c0.059,0.012,0.175,0.039,0.235,0.053c0.126-0.066,0.255-0.116,0.391-0.15c-0.292-0.556-0.847-1.029-1.512-0.961
			c-0.502,0.039-0.834-0.441-0.9-0.891c-0.192-0.789,2.601-5.811,4.512-5.609c0.44-0.107,0.803,0.261,1.24,0.213
			c0.885,0.008,1.774-0.018,2.643,0.183c0.042-0.128,0.089-0.256,0.143-0.382c0.599-0.18,1.197,0.199,1.803,0.089
			c0.387-0.082,0.846,0.019,1.18-0.21c0.211-0.389,0.671-0.642,0.687-1.114c-0.626-0.413-1.234-0.897-1.613-1.559
			c-0.21-0.346,0.044-0.81-0.227-1.133c-0.358-0.498-0.893-0.821-1.364-1.199c-0.057-0.042-0.169-0.133-0.224-0.179
			c0.049-0.393,0.238-0.952-0.182-1.201c-0.437-0.223-0.921,0.059-1.24,0.365c-0.647-0.332-1.441-0.229-2.018-0.708
			c-0.707-0.373-1.408-0.765-2.026-1.28c-0.572-0.178-1.102-0.466-1.575-0.833C37.072,0.649,36.307,0.517,35.646,0.17z"/>
		<path fill-rule="evenodd" clip-rule="evenodd" fill="#1D4B72" d="M17.195,13.685c-0.311,0.279-0.544,0.738-0.322,1.142
			c0.293,0.488,0.622,0.962,1.011,1.378c0.309,0.318,0.663,1.107,1.019,1.385c0.283,0.222,0.661,0.202,1,0.24
			c0.809,0.086,1.616,0.072,2.396-0.17c-0.241-0.292-0.704-0.908-0.984-1.166c-0.386,0.025-0.96-0.017-0.993-0.516
			c-0.025-0.445-0.128-1.16,0.458-1.271c0.037-0.104,0.072-0.207,0.111-0.309c-0.21-0.074-0.428-0.145-0.633-0.222l-0.07,0.271
			c-0.097-0.074-0.192-0.148-0.292-0.221c0.014,0.205,0.029,0.411,0.043,0.619c-0.206-0.169-0.416-0.332-0.63-0.49
			c-0.008,0.057-0.029,0.172-0.037,0.229c-0.135-0.022-0.265-0.042-0.399-0.062c-0.103,0.146-0.203,0.293-0.305,0.441
			c-0.037-0.207-0.126-0.398-0.26-0.561c-0.134,0.162-0.202,0.434-0.443,0.465C17.455,14.605,17.265,14.147,17.195,13.685z"/>
		<path fill-rule="evenodd" clip-rule="evenodd" fill="#1D4B72" d="M36.506,13.165c0.072,0.036,0.496,0.228,0.559,0.246
			c0.288,0.172,0.643,0.084,0.945,0.187c0.257,0.292,0.545,0.55,0.884,0.748c0.01,0.517-0.062,1.042,0.025,1.561
			c-0.288-0.04-0.579-0.081-0.872-0.126c0.218,0.887,1.315,1.102,2.037,0.689c0.581-0.535,0.976-1.229,1.293-1.943
			c0.437-0.924-0.039-1.949-0.658-2.66c-0.36-0.43-1.084-1.361-1.211-1.941C38.356,10.407,36.554,13.141,36.506,13.165z"/>
		<path fill-rule="evenodd" clip-rule="evenodd" fill="#1D4B72" d="M23.301,13.54c2.01,0.105,3.895-0.238,5.814-0.234
			c-0.088,0.102-0.196,0.413-0.242,0.546c-0.164,0.438-0.45,0.813-0.749,1.167c0.187,0.303,0.438,0.563,0.677,0.828
			c-0.327,0.153-0.732,0.164-0.983,0.451c-0.336,0.332-0.804,0.482-1.156,0.803c-0.327-0.27-0.66-0.537-0.997-0.798l-0.328,0.226
			c-0.102-0.074-0.2-0.15-0.3-0.226c-0.347-0.283-0.67-0.591-0.978-0.919c0.071-0.129,0.147-0.252,0.225-0.379
			c-0.295-0.262-0.423-0.638-0.622-0.964C23.529,13.933,23.438,13.636,23.301,13.54L23.301,13.54z M28.801,15.847
			c-0.327,0.153-0.732,0.164-0.983,0.451c-0.336,0.332-0.804,0.482-1.156,0.803c-0.327-0.27-0.66-0.537-0.997-0.798l-0.328,0.226
			c0.668,0.43,1.255,1.047,2.056,1.219c0.608,0.174,1.246,0.004,1.863,0.116c0.64,0.013,1.258-0.186,1.87-0.347
			c-0.229-0.277-0.489-0.529-0.798-0.711c-0.305-0.168-0.677-0.115-0.981-0.261C29.13,16.34,28.989,16.073,28.801,15.847z"/>
	</g>
	<g class="line">
		<path fill-rule="evenodd" clip-rule="evenodd" fill="#1D4B72" d="M62.775,20.185c-6.43-1.997-26.281-3.238-33.391-3.051
			C21.061,17.351,7.911,18.187,0,20.185c2.654,0.025,1.501,0.063,4.128-0.102c5.919-0.367,11.728-0.742,17.665-0.877
			c9.414-0.209,19.363-0.146,28.768,0.366C54.121,19.767,59.342,20.382,62.775,20.185z"/>
	</g>
	<g class="fish">
		<path fill-rule="evenodd" clip-rule="evenodd" fill="#1D4B72" d="M53.094,11.576L53.094,11.576L53.094,11.576L53.094,11.576z
			 M44.922,11.581l-0.907-0.538v-0.001c-0.02-0.085-0.176-0.026-0.23-0.01c-0.211,0.055-0.215,0.028-0.365,0.153
			c0.041-0.003,0.078,0.003,0.132,0.007c-0.119,0.055-0.259,0.086-0.36,0.174c0.021-0.004,0.044-0.006,0.061-0.006l0.095,0.006
			l-0.09,0.023c-0.218,0.059-0.4,0.216-0.575,0.352c-0.066,0.048-0.094,0.082-0.131,0.12c0.024-0.015,0.045-0.028,0.059-0.036
			c0.119-0.061,0.055-0.018,0.192-0.077c0.075-0.035,0.119-0.065,0.209-0.085c-0.046,0.03-0.156,0.089-0.199,0.113
			c-0.142,0.07-0.063,0.013-0.183,0.085c-0.086,0.05-0.401,0.302-0.428,0.394c-0.01,0.035-0.144,0.281-0.169,0.371
			c-0.023,0.08-0.083,0.232-0.021,0.314c0.038-0.006,0.097-0.015,0.118-0.047c0.057-0.075-0.053-0.109,0.09-0.287
			c0.094-0.113,0.328-0.187,0.466-0.232c0.107-0.037,0.155-0.066,0.252-0.104c-0.001-0.058,0-0.113,0.004-0.172l0.002-0.014
			c0-0.017-0.009-0.065,0.003-0.053c0.093,0.093,0.154,1.121-0.252,1.45l-0.036,0.029c0.002,0.061,0.004,0.06,0.079,0.051
			c0.294-0.029,0.675-0.284,0.953-0.425c0.237-0.118,0.391-0.19,0.662-0.221c0.178-0.023,0.209-0.059,0.37-0.114
			c0.68-0.241,1.366-0.456,2.041-0.692c0.281-0.096,0.535-0.189,0.808-0.314c-0.031,0.02-0.062,0.037-0.091,0.054
			c0.075-0.007,0.224-0.003,0.26-0.005c0.119-0.009,0.207,0.008,0.327,0.01c0.092,0.002,0.082,0.002,0.181,0.015
			c-0.087,0.022-0.175,0.04-0.263,0.048c-0.078,0.007-0.449-0.016-0.537-0.051c-0.038,0.021-0.077,0.039-0.12,0.058
			c0.06,0.009,0.174,0.027,0.199,0.03c0.132,0.014,0.264,0.023,0.394,0.031c0.064,0.001,0.064,0.002,0.129,0.018
			c-0.089,0.023-0.164,0.037-0.258,0.037c-0.081,0.003-0.418-0.025-0.482-0.105c-0.032,0.014-0.065,0.025-0.095,0.037
			c0.095,0.016,0.233,0.091,0.284,0.104c0.028,0.005,0.216,0.057,0.226,0.078c-0.045,0.021-0.165-0.012-0.221-0.016
			c-0.179-0.011-0.194-0.113-0.358-0.135c-0.053,0.02-0.11,0.041-0.162,0.063l0.067,0.041c0.135,0.059,0.259,0.123,0.382,0.201
			c0.057,0.035,0.222,0.103,0.294,0.099c0.033-0.048,0.054-0.065,0.082-0.128c0.114-0.238,0.663-0.301,0.595-0.574
			c-0.107,0.016-0.22,0.023-0.32-0.011c-0.008-0.001-0.014-0.004-0.019-0.007c0.087,0.01,0.204-0.002,0.333-0.023
			c0,0,0-0.004,0-0.008c-0.003-0.004-0.007-0.02-0.007-0.02c-0.008-0.035,0.007-0.059,0.041-0.063
			c0.007,0.014,0.007,0.005,0.014,0.014l0.02,0.013l-0.006,0.028c-0.006,0.024-0.006,0.016-0.021,0.028l-0.005,0.002
			c0.44-0.076,1.026-0.25,1.226-0.146c0.072,0.035,0.06,0.077,0.207,0.144c0.113,0.048,0.665,0.206,0.742,0.084
			c0.039-0.063-0.137-0.215-0.185-0.273h-0.002l0.046,0.03c0.004,0.004,0.006,0.007,0.01,0.009c0.226-0.029,0.931,0.107,1.123,0.188
			c0.397,0.167,0.53,0.383,0.827,0.664c0.232,0.223,0.477,0.44,0.721,0.648c0.051,0.045,0.091,0.078,0.146,0.109
			c-0.019-0.044-0.06-0.077-0.053-0.225c0.013-0.26,0.11-0.5,0.119-0.795c0.007-0.125,0.028-0.441-0.061-0.539
			c-0.054-0.063,0.182-0.164,0.185-0.265c0.004-0.094,0.102-0.184,0.119-0.345c0.012-0.16-0.007-0.137,0.06-0.305
			c0.023-0.067,0.144-0.33,0.188-0.407c-0.281-0.122-0.626,0.103-0.899,0.178c-0.25,0.067-0.39,0.063-0.635,0.173l0.031,0.027
			c0.033,0.031,0.064,0.08,0.095,0.133c0.172-0.122,0.447-0.291,0.644-0.329c0.018-0.002,0.175-0.03,0.177-0.032
			c0.165-0.047,0.016-0.033,0.194-0.072l0.109-0.013l-0.104,0.034l-0.188,0.088c-0.008,0.004-0.151,0.035-0.176,0.041
			c-0.189,0.045-0.461,0.23-0.623,0.352c0,0.006,0.004,0.01,0.008,0.016c0.206-0.107,0.426-0.157,0.647-0.213
			c0.116-0.027,0.39-0.168,0.436-0.166c-0.151,0.082-0.246,0.157-0.425,0.213c-0.211,0.066-0.433,0.125-0.629,0.235
			c0,0.003,0.002,0.009,0.004,0.013c0.19-0.075,0.391-0.021,0.575-0.094c0.121-0.053,0.237-0.096,0.365-0.135
			c-0.122,0.075-0.213,0.111-0.342,0.174c-0.192,0.091-0.42,0.051-0.575,0.125c0.005,0.018,0.009,0.033,0.013,0.05
			c0.091-0.011,0.191-0.023,0.281-0.016c0.164,0.016,0.083,0.026,0.263,0.005c0.102-0.014,0.202-0.036,0.307-0.055
			c-0.068,0.043-0.229,0.084-0.301,0.098c-0.165,0.033-0.121,0.021-0.269,0.016c-0.086-0.006-0.18,0.014-0.266,0.027
			c0.003,0.025,0.007,0.049,0.007,0.076c0.028,0.003,0.188-0.014,0.258,0.003c0.09,0.021,0.018,0.023,0.118,0.016
			c0.135-0.013,0.317-0.046,0.441-0.04c-0.098,0.036-0.251,0.063-0.356,0.08c-0.131,0.023-0.103,0.025-0.218,0.006
			c-0.083-0.018-0.178,0.02-0.247,0.011c0,0-0.003,0.004-0.003,0.009c0.127,0.016,0.188,0.047,0.305,0.064
			c0.12,0.02,0.188-0.008,0.325,0.048l0,0c-0.055,0.009-0.006,0.005-0.087,0c-0.231-0.009-0.015,0-0.178,0.009
			c-0.122,0.004-0.244-0.037-0.372-0.049c-0.003,0.004-0.007,0.012-0.009,0.018c0.083,0.004,0.167,0.014,0.235,0.059
			c0.124,0.029,0.219,0.061,0.306,0.161c-0.094-0.038,0.023,0.013-0.077-0.041c-0.069-0.035-0.243-0.062-0.259-0.07
			c-0.057-0.034-0.156-0.037-0.223-0.034c-0.002,0.014-0.008,0.025-0.013,0.039c0.102,0.014,0.173,0.063,0.279,0.102
			c0.076,0.027,0.356,0.188,0.37,0.262c-0.061-0.044-0.114-0.074-0.186-0.113c-0.141-0.076-0.141-0.068-0.279-0.117
			c-0.083-0.026-0.127-0.062-0.214-0.061c-0.006,0.018-0.014,0.035-0.025,0.053c0.158,0.129,0.31,0.135,0.41,0.219
			c0.021,0.016,0.266,0.252,0.262,0.285l0,0c0.002,0,0.004-0.003,0.004,0.008l-0.004-0.004h0.002c-0.002,0.004-0.006,0-0.009-0.002
			c-0.063-0.058-0.224-0.202-0.287-0.248c-0.107-0.076-0.238-0.061-0.412-0.193c-0.012,0.018-0.021,0.034-0.033,0.049
			c0.035,0.029,0.055,0.051,0.095,0.075l0.058,0.026c0.167,0.092,0.158,0.09,0.285,0.23c0.132,0.143,0.162,0.087,0.273,0.27
			c0.002,0.004,0.012,0.018,0.012,0.021c-0.012,0.01-0.079-0.081-0.079-0.081c-0.058-0.054-0.11-0.067-0.173-0.115
			c-0.083-0.063-0.144-0.161-0.228-0.202c-0.108-0.057-0.188-0.081-0.284-0.162v-0.009l0,0c-0.004,0.005-0.006,0.009-0.012,0.015
			c-0.01,0.009-0.023,0.02-0.035,0.031c0.083,0.072,0.162,0.164,0.256,0.227c0.112,0.072,0.091,0.058,0.209,0.174
			c0.112,0.109,0.188,0.182,0.25,0.326c-0.037-0.037-0.069-0.078-0.099-0.12c-0.065-0.089-0.207-0.194-0.293-0.268
			c-0.074-0.062-0.021-0.017-0.101-0.062c-0.082-0.047-0.211-0.164-0.275-0.23c-0.016,0.018-0.021,0.033-0.018,0.055
			c0.011,0.051,0.137,0.184,0.185,0.258c0.045,0.034,0.026,0.02,0.101,0.088c0.134,0.119,0.362,0.294,0.442,0.447
			c-0.13-0.123-0.214-0.206-0.366-0.314c-0.014-0.014-0.225-0.186-0.229-0.191c-0.109-0.164-0.316-0.258-0.131-0.426
			c0.107-0.1,0.189-0.229,0.235-0.365c-0.084-0.026-0.165-0.055-0.247-0.086c-0.101-0.033-0.206-0.068-0.306-0.102
			c0.003,0.006,0.005,0.015,0.005,0.02c0.004,0.014-0.002,0.014-0.008,0.029c-0.002,0.012-0.005,0.02-0.016,0.032
			c-0.006,0.009,0,0.007-0.012,0.011c-0.006-0.011,0-0.004-0.004-0.023c-0.017,0.013-0.008,0.013-0.022,0
			c0.021-0.008,0.002-0.002,0.021-0.01c0.012-0.01,0.007,0.006,0.012-0.012c-0.021,0.002-0.041,0.002-0.059-0.006
			c0.016-0.037,0.002-0.001,0.016-0.014c0.008-0.013-0.002-0.008,0.004-0.021c0.025-0.002,0.033,0.004,0.053-0.01
			c-0.283-0.09-0.564-0.17-0.852-0.236c0.021,0.02,0.026,0.065-0.004,0.083c-0.005,0-0.018,0.007-0.023,0.009
			c-0.008-0.016-0.027-0.021-0.033-0.055c-0.002-0.018,0.006-0.037,0.023-0.045c-1.72-0.402-3.494-0.385-5.188,0.224
			c0.018,0.016,0.043,0.044,0.018,0.073c-0.018-0.012-0.003-0.012-0.025-0.018c-0.041-0.014-0.021-0.031-0.017-0.035
			c0.009-0.005-0.012,0.01,0.012,0c0.013-0.002,0.011-0.01,0.006-0.017c-0.053,0.02-0.107,0.04-0.159,0.061
			c-0.058,0.021-0.112,0.041-0.164,0.063c0.002,0.002,0.002,0.002,0.002,0.002c0.002,0.02-0.014,0.064-0.03,0.051
			c-0.006-0.004-0.013-0.012-0.013-0.021l-0.001-0.014C45.285,11.42,45.11,11.503,44.922,11.581L44.922,11.581z M44.948,11.617
			c-0.005-0.005-0.029-0.036-0.011-0.038C44.993,11.572,45.011,11.681,44.948,11.617L44.948,11.617z M45.126,11.542
			c0.009,0.004,0.013,0.004,0.025,0.009c0.011,0.005,0.002,0.005,0.021,0.009l-0.007,0.035c-0.006,0.022,0,0.035-0.036,0.027
			C45.135,11.56,45.13,11.576,45.126,11.542L45.126,11.542z M45.301,11.484c0.04-0.016,0.014,0,0.05-0.001
			c0.006,0.023,0.015,0.008,0.021,0.063c0.03-0.003,0.012-0.006,0.02,0.009l-0.05,0.007l-0.003-0.017
			c-0.016,0.014-0.006,0.014-0.023,0.021V11.56c0.004-0.004,0.004-0.006,0.004-0.006v-0.003L45.301,11.484L45.301,11.484z
			 M45.708,11.437c0.034-0.013,0.024,0,0.063-0.006c-0.008,0.012-0.008,0.014-0.006,0.034l-0.01-0.019
			c0.001,0.038,0.003,0.045-0.031,0.05C45.719,11.466,45.711,11.469,45.708,11.437L45.708,11.437z M45.824,11.407
			c0.007-0.012,0.007-0.009,0.004-0.025c0.025-0.005,0.007-0.008,0.042-0.012c0.034,0.045,0.024,0.009,0.028,0.058
			c-0.022,0.006-0.015,0.003-0.028,0.009c-0.009-0.023-0.009,0-0.017-0.029C45.832,11.408,45.843,11.41,45.824,11.407L45.824,11.407
			z M45.232,11.748v-0.011c-0.02-0.002-0.01,0.004-0.023-0.019l-0.002-0.002l-0.014-0.032l0.021-0.007
			c0.011-0.005,0.031-0.015,0.043,0.016c0.014-0.009,0.02-0.009,0.032-0.016c-0.003,0.021,0.004,0.016-0.021,0.021
			c0.002,0.021,0.002,0.021-0.018,0.031c0.006,0.022-0.004,0.012,0.013,0.014l0.038-0.016c0.004-0.009,0.002,0-0.002-0.023
			l0.014,0.027l0.02-0.012c-0.002,0.021,0.015,0.01-0.014,0.018v0.011c0.024,0.004,0.028,0.035-0.006,0.039
			c-0.019,0.002-0.018-0.017-0.019-0.036l-0.085,0.023C45.209,11.752,45.209,11.752,45.232,11.748L45.232,11.748z M45.771,11.659
			c0.013,0.018,0.027,0.023,0.034,0.033c0.007,0.011,0.004,0.026,0.016,0.049c-0.037,0.007,0.016,0.004-0.016,0.011
			c-0.019,0.005-0.019-0.003-0.034-0.028S45.756,11.677,45.771,11.659L45.771,11.659z M46.241,11.627
			c0.009,0.028,0.009,0.076-0.021,0.086c-0.008,0.004-0.008,0.004-0.011,0.004c-0.034,0.002-0.024-0.013-0.044-0.044h0.003
			c0-0.002,0.005,0.004,0.007,0.004c0.012,0.004,0.002,0,0.012,0.001l0.009-0.022C46.225,11.608,46.203,11.638,46.241,11.627
			L46.241,11.627z M46.578,11.55c0.013,0.018,0.013,0.021,0.033,0.018l0.004-0.001c0.014,0.036,0.009,0.036-0.01,0.063
			c0-0.003-0.004-0.008-0.004-0.01c-0.007-0.007-0.006-0.005-0.011-0.007c0.005,0.019,0.005,0.017-0.008,0.03
			c-0.01-0.008-0.012-0.008-0.02-0.021C46.555,11.605,46.561,11.562,46.578,11.55L46.578,11.55z M47.354,11.44
			c0.028-0.004-0.003,0,0.013,0.004l0.042,0.012l-0.006,0.027v0.004c-0.008,0.031-0.016,0-0.002,0.031
			c-0.039,0.006-0.019-0.012-0.043,0C47.356,11.49,47.324,11.444,47.354,11.44L47.354,11.44z M47.503,11.465
			c0.013,0.015-0.005,0.009,0.03,0.04l0.004,0.007c-0.036,0.073-0.039,0.051-0.055,0.032c-0.016-0.021-0.003-0.041-0.014-0.063
			C47.501,11.476,47.479,11.476,47.503,11.465L47.503,11.465z M48.023,11.353c-0.006-0.025-0.002-0.033,0.022-0.041
			c0.026,0.031,0.009,0.02,0.016,0.045c0.002,0.01,0.005,0.022,0.005,0.035c-0.012,0.007-0.014,0.008-0.033,0.01
			C48.031,11.378,48.027,11.379,48.023,11.353L48.023,11.353z M45.673,11.588c0.03,0.027,0.03,0.046,0.007,0.067
			c-0.007-0.004-0.037-0.02-0.042-0.025c-0.01-0.018-0.015-0.044-0.004-0.051C45.648,11.571,45.661,11.576,45.673,11.588
			L45.673,11.588z M48.282,11.36c0.038,0,0,0.012,0.042,0.009c0.006,0.029,0.013,0.021,0.006,0.044
			c-0.002,0.015-0.009,0.031-0.019,0.031c-0.035,0-0.047-0.021-0.051-0.057C48.257,11.37,48.268,11.36,48.282,11.36L48.282,11.36z
			 M48.545,11.327c0.012-0.023,0.019-0.041,0.043-0.051c0.017,0.008,0.024,0.025,0.032,0.045c-0.016,0.014,0,0.01-0.026,0.014
			l0.004,0.018c-0.007,0-0.016,0.004-0.021,0.004c-0.028,0.006-0.019-0.006-0.03-0.004c-0.002,0.002-0.002,0.004-0.021,0.01
			L48.545,11.327L48.545,11.327z M45.345,11.958c0.004,0.014,0.004,0.002,0,0.012v0.008l-0.004,0.004
			c0.004-0.004,0.008-0.006,0.01-0.006c0.012-0.002,0.006-0.002,0.012-0.002c-0.006,0.01-0.006,0.012-0.006,0.012v0.001
			c-0.019,0.021-0.012,0.001-0.036,0.006c0.024,0.017,0.006,0.015,0.028,0.012c0.002,0.019-0.008,0.007,0.002,0.036
			c0.019-0.01,0.019-0.008,0.034-0.006c0.006,0.018,0,0.023,0,0.045c0,0.032,0.013,0.02-0.01,0.046
			c-0.026,0-0.043-0.017-0.061-0.048l-0.024,0.006c0.022-0.015,0.042-0.031,0.024-0.051c-0.008-0.012,0-0.006-0.016-0.013
			c0.016-0.017,0.006-0.015,0.02-0.036C45.334,11.96,45.329,11.985,45.345,11.958L45.345,11.958z M45.526,11.944
			c0.036-0.039,0.022,0.004,0.052,0.025c0.009-0.021,0-0.012,0.009-0.031c0.019,0.018,0.026,0.008,0.059,0.043
			c-0.003,0.011-0.003,0.004-0.002,0.019c-0.021,0.011,0.002-0.003-0.01,0.003c-0.06,0.02-0.015,0.014-0.06-0.018
			c-0.012-0.008-0.007-0.004-0.025-0.004L45.526,11.944L45.526,11.944z M45.774,11.956c-0.009-0.027-0.018-0.025,0.007-0.041
			c0.006,0.014,0.006,0.014,0.008,0.025c0.014-0.023,0.001-0.012,0.014-0.012c0.007,0.021,0.003,0.039-0.014,0.053l-0.03-0.016
			C45.766,11.956,45.75,11.966,45.774,11.956L45.774,11.956z M45.023,11.827l0.008-0.004c0.006-0.004,0.006-0.002,0.015-0.004
			l0.007-0.02c0.006,0.014-0.01,0.014,0.023,0.01c0.012,0.072,0.002,0.012,0.029,0.04l-0.01,0.005
			c-0.012,0.012-0.004,0.018,0.009,0.018h0.006c-0.014,0.035,0.008,0.039-0.032,0.043c-0.02,0-0.032-0.004-0.037-0.039
			C45.039,11.861,45.065,11.825,45.023,11.827L45.023,11.827z M45.371,11.81l0.014-0.016c0.015,0.02,0.03,0.031,0.043,0.051
			l-0.013,0.019c-0.022-0.002-0.024-0.009-0.044-0.011C45.369,11.833,45.362,11.821,45.371,11.81L45.371,11.81z M45.503,11.81
			c-0.022-0.012-0.028-0.022-0.048-0.039c0.013-0.022,0.009-0.004,0.007-0.022c0.021-0.011,0.005-0.009,0.024-0.003l0.005,0.003
			l0.049,0.056c-0.009,0.02-0.004,0.014-0.014,0.016C45.519,11.819,45.511,11.813,45.503,11.81L45.503,11.81z M45.878,11.758
			c-0.002-0.003,0.002-0.026,0.006-0.028c0.022-0.013,0.008,0.01,0.028-0.006v-0.002l0.017-0.009l0.002,0.06
			c0,0.008,0.002,0.015,0.006,0.021C45.912,11.804,45.895,11.785,45.878,11.758L45.878,11.758z M46.02,11.758
			c-0.014-0.021,0.043-0.03,0.059-0.041c0.01,0.013,0.018,0.026,0.02,0.04c0,0.02-0.018,0.068-0.051,0.037
			C46.039,11.784,46.027,11.772,46.02,11.758L46.02,11.758z M46.328,11.771c0.005,0.023-0.008,0.039-0.026,0.055l-0.046-0.02
			c0.002-0.017,0.008-0.019-0.002-0.035C46.268,11.757,46.32,11.7,46.328,11.771L46.328,11.771z M46.892,11.696
			c-0.012-0.007-0.008,0.003-0.025-0.01l0.004-0.012c0.003-0.05,0.049-0.048,0.053-0.045c0.019,0.012,0,0,0.013,0.014l0.025,0.033
			c0,0.006-0.002,0.004,0.004,0.008c0,0,0.006,0.005,0.01,0.005c-0.006,0.004-0.01,0.01-0.014,0.015
			c-0.008,0.013-0.002,0-0.002,0.015c-0.043,0.019,0.008-0.016-0.053,0.024c0.008-0.026,0.003-0.021,0.013-0.023L46.892,11.696
			L46.892,11.696z M47.012,11.677l0.026-0.004c-0.022-0.018,0.012-0.025,0.019-0.002c0.002,0.016-0.013,0.064-0.033,0.049
			c-0.008-0.003-0.01-0.012-0.01-0.021L47.012,11.677L47.012,11.677z M49.094,11.251c-0.018-0.027-0.016-0.021-0.02-0.058
			c0.004,0.007,0.004,0,0.008,0.009l0.025,0.039c0-0.014,0.004-0.032,0.019-0.04c0.005-0.004,0.002-0.001,0.008-0.004
			c0.002,0.03-0.004,0.094-0.034,0.061c-0.002,0-0.006-0.005-0.006-0.005V11.251z M47.173,11.63c-0.02,0-0.026,0.002-0.042-0.005
			l0.034-0.008c-0.012-0.026-0.008-0.019,0.003-0.045c0.028,0.004,0.005,0.007,0.042,0.005c0.013-0.001,0-0.006,0.012,0
			c0.012,0.011,0-0.001,0.003,0.008c0.014,0.032,0.013,0.004,0.019,0.035l-0.01-0.005c-0.007,0-0.015-0.013-0.007,0.046
			c-0.013-0.012,0-0.006-0.013-0.008c-0.029-0.002,0.019,0.012-0.034,0.02C47.166,11.644,47.175,11.663,47.173,11.63L47.173,11.63z
			 M47.354,11.649c-0.031,0-0.003,0.021-0.028-0.002c0.002-0.016-0.011-0.01,0.022-0.014c-0.011-0.012-0.013-0.014-0.015-0.031
			l-0.024-0.008c0.016-0.004,0.016,0.004,0.024-0.004l0.009-0.01c0.012-0.014,0.009-0.009,0.031-0.01
			c0.02-0.005,0.012-0.005,0.027-0.012c0.027-0.018,0.025-0.008,0.02,0.02l-0.007,0.038c0,0,0,0,0,0.019
			c0.034-0.004,0.017-0.006,0.025,0.007c-0.057-0.005-0.017,0.009-0.054,0.013C47.365,11.659,47.374,11.647,47.354,11.649
			L47.354,11.649z M48.106,11.544C48.106,11.551,48.098,11.528,48.106,11.544L48.106,11.544z M48.053,11.563V11.56l-0.004-0.035
			c0-0.011,0.013-0.031,0.03-0.021l0.013,0.012l0.015,0.021c0,0.006,0,0.007,0,0.009l0.023-0.025
			c0.008,0.028,0.012,0.011-0.002,0.032c-0.01,0.016-0.012,0.013-0.01,0.038c-0.052-0.012,0.022,0.002-0.061,0.014L48.053,11.563
			L48.053,11.563z M48.223,11.572c0.011-0.005,0,0,0.008-0.001h0.003l-0.005-0.043c-0.005-0.023-0.005-0.004,0.002-0.014l0.01-0.01
			c0.021,0.003,0.032,0.027,0.036,0.049c0.014-0.004,0.021-0.012,0.025,0.009c0,0.022,0,0.001-0.007,0.015l-0.011,0.014
			c-0.011,0.01-0.012,0.008-0.023,0.018c-0.012,0-0.021-0.006-0.027-0.014L48.223,11.572L48.223,11.572z M48.597,11.554h-0.005
			l-0.015-0.002c0.005-0.066-0.028-0.037-0.014-0.082c0.028,0.004,0.007,0.008,0.034,0.014c0-0.026,0.007-0.038,0.029-0.047
			c0.011,0.029,0.013,0.008,0.011,0.047c0.051-0.021,0.045,0.035,0.02,0.049c-0.004,0.006-0.004,0.003-0.014,0.009
			c-0.031,0.015-0.017,0.026-0.046,0.015L48.597,11.554L48.597,11.554z M49.809,11.413c0.003,0.031,0.071,0.094-0.021,0.087
			c-0.018,0-0.016,0-0.027-0.016l-0.004-0.005v-0.002c-0.011-0.016-0.007,0.008-0.009-0.016
			C49.741,11.434,49.779,11.42,49.809,11.413L49.809,11.413z M50.157,11.529c0.006-0.034-0.003,0.017,0.018-0.018
			c-0.006,0-0.018-0.007,0-0.004c-0.002,0-0.002-0.001-0.006-0.003l-0.015-0.009l-0.007-0.001h-0.001l-0.008-0.004
			c0.019-0.007,0.009-0.001,0.021-0.029c0.003-0.006,0.005-0.008,0.005-0.016c0.021-0.002,0.026-0.006,0.041,0.004
			c0.009,0.008,0.008,0.022,0.001,0.034c-0.021,0.05-0.001,0.029-0.029,0.051C50.163,11.535,50.173,11.535,50.157,11.529
			L50.157,11.529z M49.986,11.407c0.011-0.025,0.029-0.037,0.056-0.043c0.028,0.034,0.012,0.035,0.028,0.066
			c0.013,0.016,0.005,0.003,0.013,0.023c0.012,0.033,0.021,0.029,0.021,0.048c0,0.02-0.021,0.022,0.024,0.026
			c-0.006-0.014-0.008-0.014-0.01-0.028l0.038,0.029c-0.003,0.006-0.01,0.015-0.03,0.012c-0.044-0.006-0.032-0.009-0.034-0.02
			l-0.039,0.005c0.012,0.023,0.016,0.004,0.027,0.029c-0.016,0-0.031,0.004-0.037-0.009c-0.01-0.018,0.014-0.003-0.006-0.032
			c-0.01-0.015,0,0.01-0.01-0.019c-0.013-0.022-0.004-0.039,0.021-0.05l-0.004-0.01C50.024,11.434,50,11.421,49.986,11.407
			L49.986,11.407z M50.808,11.36c-0.008,0.019-0.016,0.014,0.004,0.027c0-0.018,0.024-0.068-0.021-0.037
			c-0.022,0.016-0.015,0.002-0.021,0.02l-0.017-0.01h-0.025c0.008-0.008-0.004-0.004,0.018-0.01l-0.004-0.016
			c-0.054,0.008,0,0.016-0.048,0.021c0.007-0.02-0.001,0.004,0.013-0.021c0.018-0.025,0.009-0.008,0.013-0.008
			c0.009-0.004,0.017,0.007,0.029-0.008c0.02-0.016,0-0.021,0.037-0.033c0.022-0.008,0.032-0.002,0.037,0.02
			c0.061-0.008,0.004,0.016,0.053,0.012v0.01c-0.02,0-0.031-0.004-0.027,0.025l-0.02,0.004c0.012,0.018,0,0.006,0.026,0.004
			l-0.015,0.012c0.016,0.018,0.008-0.002,0.019,0.02c-0.011-0.002-0.003-0.002-0.011,0c-0.012,0.004-0.006-0.004-0.021,0.027
			l0.049,0.031c-0.033,0.006-0.023,0.016-0.047,0.006c-0.022-0.012-0.015-0.022-0.043-0.02c0.01-0.018-0.005-0.009,0.021-0.015
			c0-0.022-0.002-0.014,0.002-0.03c-0.013,0-0.016-0.002-0.034,0c0.008-0.014,0.012,0,0.017-0.014
			C50.795,11.362,50.773,11.366,50.808,11.36L50.808,11.36z M51.701,11.286c-0.039-0.012-0.022-0.028-0.021-0.032
			c0.016-0.007-0.006,0.011,0.018,0.001c0.012-0.004,0.008-0.014,0.002-0.025c0.021,0.01,0.058,0.041,0.027,0.076
			C51.709,11.295,51.723,11.295,51.701,11.286L51.701,11.286z M47.219,11.491c-0.003,0-0.003,0.002-0.005,0.002
			c-0.004-0.028-0.012-0.045-0.021-0.069l0.023-0.027c0.021,0.044,0.044-0.015,0.059,0.083c-0.015,0.006-0.013,0.005-0.021,0.014
			C47.216,11.49,47.25,11.474,47.219,11.491L47.219,11.491z M49.252,11.192c0-0.018,0.013-0.023,0.023-0.031
			c0,0,0.04,0.011,0.049,0.061c-0.009-0.005-0.009-0.008-0.019-0.005l-0.016,0.011C49.284,11.22,49.254,11.197,49.252,11.192
			L49.252,11.192z M45.166,12.077c-0.025-0.033,0.007-0.008,0.011-0.057l0.021-0.001c0.042-0.003,0.025,0.003,0.051,0.023
			l0.01,0.007c-0.035,0.026-0.019,0.035-0.032,0.066C45.207,12.103,45.185,12.099,45.166,12.077L45.166,12.077z M45.446,12.127
			c0.009,0.008,0.009,0.009,0.016,0.019c0.019,0.018,0.002,0.015,0.021,0.012c0.011,0.015,0.015,0.015,0.009,0.029
			c-0.005,0.02-0.015,0.012-0.023,0.021c-0.003,0.005,0.011,0.005-0.004,0.01c-0.011,0.002-0.009-0.01-0.018-0.024
			c-0.019,0.009-0.027,0.009-0.041-0.003C45.438,12.16,45.417,12.146,45.446,12.127L45.446,12.127z M45.824,12.16
			c0.026,0.028,0.013,0.02,0.029,0.048l-0.064,0.033c-0.018,0,0-0.033,0.008-0.045C45.806,12.183,45.81,12.172,45.824,12.16
			L45.824,12.16z M46.436,11.667c0.021-0.006,0.024-0.004,0.042-0.024c0.022,0.03,0.004-0.005,0.025,0.007
			c0.028,0.016,0.005,0.047-0.008,0.063c-0.022-0.015,0.008-0.005-0.021-0.014c-0.014-0.003-0.021-0.005-0.032-0.005
			C46.441,11.678,46.443,11.685,46.436,11.667L46.436,11.667z M47.559,11.542c0.019-0.013,0.022-0.021,0.054-0.023
			c0.019,0.031,0.044-0.004,0.048,0.023c0,0.018-0.016,0.03-0.014,0.061c-0.048,0.002-0.043,0.01-0.056-0.004
			C47.581,11.588,47.563,11.56,47.559,11.542L47.559,11.542z M47.854,11.535c0.003-0.006,0.013-0.021,0.018-0.021
			c0.02-0.003,0.031,0.02,0.028,0.049v0.004c-0.005,0.023,0.006,0.029-0.039,0.045C47.854,11.563,47.834,11.571,47.854,11.535
			L47.854,11.535z M48.429,11.419v-0.006c0.01-0.018,0.013-0.015,0.035-0.021c0.013,0.032,0.021,0.066,0.007,0.102
			C48.438,11.478,48.413,11.457,48.429,11.419L48.429,11.419z M48.816,11.422l0.007,0.034c0.045-0.008,0.036-0.016,0.061-0.037
			c0.003,0.025-0.002,0.071-0.026,0.083c-0.01,0.005,0,0.001-0.008,0.003c-0.025,0.01-0.025,0.014-0.037-0.002
			c-0.006-0.008-0.024-0.038-0.026-0.049C48.784,11.437,48.799,11.427,48.816,11.422L48.816,11.422z M48.992,11.353L48.992,11.353
			L48.992,11.353z M48.952,11.392c0.022-0.013,0-0.006,0.04-0.037c0.008-0.004,0-0.002,0-0.002s0,0,0.005-0.002
			c0.017-0.014-0.005-0.008,0.022-0.014l0.005,0.029c0.025-0.006,0.01-0.01,0.025-0.004c0.002,0.027-0.006,0.015-0.014,0.036
			c-0.009,0.021,0,0.035-0.022,0.038h-0.007h-0.005C48.979,11.431,48.963,11.415,48.952,11.392L48.952,11.392z M49.29,11.37
			c-0.002-0.01-0.014-0.047-0.012-0.051c0.006-0.014,0.004-0.006,0.016-0.006c0.03,0,0.01,0,0.034,0.017
			c0.015,0.009,0.023,0.007,0.025,0.022c0.002,0.017-0.036,0.046-0.05,0.058L49.29,11.37L49.29,11.37z M49.467,11.334l0.012-0.003
			c0.008,0.033,0,0.012,0.019,0.023c0.006,0.006,0.012,0.002,0.021,0.016c0.012,0.016,0,0.029,0.008,0.072
			c-0.028-0.012-0.021-0.022-0.053-0.009c-0.006-0.023-0.006-0.023-0.021-0.026C49.451,11.377,49.467,11.369,49.467,11.334
			L49.467,11.334z M50.119,11.304c0.046-0.01,0.023-0.009,0.046-0.018c0.021,0.029,0.01,0.033,0.013,0.049
			c0,0.016,0.005,0.012,0.013,0.02c0.008,0.015,0.007,0.012,0.008,0.033c-0.013-0.004-0.008-0.006-0.023-0.014
			c0.003,0.034,0.003,0.016-0.01,0.024C50.146,11.351,50.127,11.339,50.119,11.304L50.119,11.304z M50.356,11.276l0.009,0.033
			c0.004,0.029-0.011-0.015,0.008,0.037c-0.019,0.008-0.008,0.008-0.023,0.004l-0.031-0.02c-0.004-0.004,0,0.003-0.008-0.008
			c-0.006-0.006-0.01-0.016-0.012-0.023C50.297,11.289,50.342,11.278,50.356,11.276L50.356,11.276z M46.781,11.608
			c-0.006-0.01,0.024-0.032,0.036-0.041c0.027,0.045,0.027,0.023,0.056,0.005c0.011,0.022,0.019,0.048-0.003,0.063
			C46.854,11.644,46.793,11.63,46.781,11.608L46.781,11.608z M50.404,11.206c0.04,0.011,0.012-0.002,0.049-0.018
			c0.012,0.014,0.018,0.021,0.023,0.049l0.015-0.002c0.002,0.023,0.019,0.023-0.022,0.051c-0.019,0.009,0.002,0.008-0.028,0.012
			c-0.014-0.039-0.023-0.04-0.029-0.051L50.404,11.206L50.404,11.206z M50.682,11.179c0.024-0.001,0.024,0,0.044,0.002
			c0.027,0.005,0.016,0,0.036,0.01c0,0.011-0.003,0.026-0.009,0.033c-0.008,0.021-0.008,0.016-0.027,0.023
			c-0.021-0.01-0.02-0.023-0.035-0.035c-0.009-0.01-0.005,0-0.02-0.015C50.682,11.188,50.68,11.193,50.682,11.179L50.682,11.179z
			 M49.604,11.442c0.008-0.063-0.006-0.055,0.008-0.065c0.006-0.011,0.044-0.015,0.062-0.011l0.016,0.049
			c-0.003,0.021-0.016,0.016-0.033,0.035C49.607,11.428,49.637,11.424,49.604,11.442L49.604,11.442z M50.58,11.369
			c-0.005-0.019,0-0.013,0-0.034c-0.046-0.004,0.018,0.012-0.039,0c0.001-0.005,0.008-0.008,0.011-0.027c0-0.01-0.005,0.002,0-0.014
			c0.003-0.01,0,0,0.009-0.012c0.02,0.004,0.004-0.016,0.013,0.013c0.022-0.001,0.036-0.009,0.056-0.017
			c0.02,0.02,0.018,0.02,0.029,0.023c-0.045,0.095-0.015,0.016-0.057,0.059l-0.015,0.023C50.584,11.379,50.58,11.37,50.58,11.369
			L50.58,11.369z M51.487,11.291l-0.016-0.067c0.039-0.012,0.014,0,0.05-0.002c0.006,0.027,0.012,0.011,0.02,0.064
			c0.027,0,0.009-0.007,0.018,0.009l-0.048,0.009l-0.002-0.018c-0.016,0.013-0.006,0.013-0.025,0.02l0.002-0.007
			c0.002-0.004,0.002-0.004,0.002-0.004S51.487,11.294,51.487,11.291L51.487,11.291z M45.965,11.894
			c0.018,0.023-0.011,0.014,0.032,0.035c-0.006,0.035-0.006,0.037-0.052,0.063c-0.033-0.043-0.013-0.011-0.022-0.043
			c-0.011-0.027-0.024-0.028-0.005-0.044C45.937,11.888,45.948,11.88,45.965,11.894L45.965,11.894z M46.124,11.927
			C46.137,11.933,46.106,11.917,46.124,11.927L46.124,11.927L46.124,11.927z M45.197,11.872c-0.005-0.047,0.055-0.032,0.061-0.029
			c0.01,0.007,0.014,0.01,0.018,0.023l-0.004,0.021C45.245,11.946,45.203,11.905,45.197,11.872L45.197,11.872z M46.104,11.825
			c0.042,0.066,0.07,0.055,0.02,0.102c0-0.003-0.002-0.005-0.008-0.01c-0.019-0.012-0.012,0.004-0.036-0.016v-0.02
			C46.08,11.861,46.072,11.846,46.104,11.825L46.104,11.825z M45.971,12.059C45.973,12.06,45.973,12.06,45.971,12.059L45.971,12.059
			z M45.898,12.052c0.059-0.029,0.038-0.049,0.093-0.049c-0.013,0.02-0.009,0.012-0.029,0.01c0.009,0.012,0.009,0.007,0.011,0.02
			c0,0.012,0.005,0.008-0.006,0.018c0,0.004,0.002,0.008,0.004,0.009c-0.004-0.003-0.014-0.007-0.038,0.001l0.011,0.018
			l-0.015,0.008l0.008,0.014c0.021,0,0.019-0.008,0.041-0.021c0,0.002,0,0.003-0.003,0.003l-0.008,0.015
			c-0.013,0.02-0.013-0.003-0.03,0.024c0.021,0.019,0.025,0.001,0.046,0c-0.018,0.03-0.028-0.003-0.05,0.027l-0.005-0.02
			l-0.005-0.002c-0.019-0.022-0.017-0.017-0.024-0.015C45.898,12.092,45.91,12.079,45.898,12.052L45.898,12.052z M46.153,12.056
			c0.008-0.012,0.006-0.002,0.002-0.016c0.017-0.008,0.029-0.014,0.038-0.024l0.013-0.02l0.014,0.015
			c0.017-0.008,0.008-0.008,0.025-0.008l0.001,0.027l-0.001,0.004c-0.002,0.016-0.002,0.016,0,0.033l-0.059,0.001
			c-0.015,0.001-0.006-0.003-0.021,0.008L46.153,12.056L46.153,12.056z M49.509,11.184l0.007,0.009c0.003,0.009,0,0.005,0.006,0.009
			c0.01,0.003,0.004,0,0.023-0.004c0.009,0.016,0.013,0.015,0.024,0.048c-0.016,0.009-0.018,0.004-0.032,0.014
			c-0.021,0.02,0.008,0.016-0.022,0.027C49.443,11.249,49.506,11.201,49.509,11.184L49.509,11.184z M50.185,11.093
			c0.007,0.053,0.007,0.014,0.033,0.03c0.022,0.015,0.019,0.034,0.008,0.058l-0.034,0.005c-0.001-0.021,0.006-0.034,0.006-0.057
			c0,0-0.007,0.004-0.012,0.009l-0.008,0.01c-0.015,0.024,0.005,0.008-0.021,0.024C50.147,11.159,50.07,11.108,50.185,11.093
			L50.185,11.093z M50.299,11.059c0.018-0.007,0.028-0.016,0.045-0.015l0.009,0.003c0.028,0.005,0.054,0.001,0.033,0.037
			l-0.017,0.038C50.335,11.119,50.305,11.073,50.299,11.059L50.299,11.059z M46.526,11.88v0.019
			c-0.016-0.007-0.012-0.005-0.021-0.015L46.526,11.88L46.526,11.88z M46.526,11.88L46.526,11.88L46.526,11.88L46.526,11.88
			L46.526,11.88z M46.541,11.772c0.061,0.1,0.014,0.039,0.039,0.087l-0.052-0.003l-0.002,0.023
			c-0.016-0.014-0.021-0.025-0.033-0.048C46.496,11.825,46.515,11.728,46.541,11.772L46.541,11.772z M46.676,11.739
			c0-0.002,0.04-0.031,0.051-0.018l0.005,0.006c0.029,0.076,0.005,0.027,0.017,0.064c0.022,0.008,0.021-0.005,0.043,0.006
			c-0.064,0.038-0.028,0.023-0.057,0.047c-0.012-0.02-0.012-0.02-0.023-0.005c-0.003-0.019,0.005-0.017-0.016-0.028
			c-0.015-0.008-0.006-0.002-0.01-0.006c-0.007-0.008,0.014,0.004-0.007-0.012l-0.011,0.029c0-0.008-0.004-0.018-0.004-0.023
			l0.004-0.021C46.67,11.737,46.658,11.757,46.676,11.739L46.676,11.739z M47.309,11.728c0.019-0.006,0.014-0.006,0.026-0.015
			c0.03-0.015,0.026-0.005,0.022,0.024l-0.004,0.037c0,0-0.003,0.002-0.003,0.018c0.036-0.005,0.016-0.007,0.023,0.008
			c-0.06-0.006-0.013,0.008-0.052,0.014c-0.022,0.002-0.01-0.01-0.034-0.01c-0.029,0.002,0,0.021-0.026,0
			c0.006-0.017-0.012-0.01,0.02-0.015c-0.007-0.011-0.009-0.013-0.014-0.031l-0.024-0.007c0.017-0.002,0.017,0.004,0.024-0.003
			l0.011-0.011C47.288,11.724,47.287,11.731,47.309,11.728L47.309,11.728z M49.901,11.55c0.004-0.042,0.006-0.004,0.012-0.028
			c0.004-0.021-0.013-0.014,0.004-0.03l0.036-0.012c0.02,0,0.021,0,0.014,0.039l-0.014,0.031c-0.002,0.022,0.016,0.021-0.022,0.017
			l0.009,0.021l-0.019,0.001c-0.006-0.018,0-0.013-0.023-0.013C49.913,11.556,49.901,11.567,49.901,11.55L49.901,11.55z
			 M50.671,11.132c-0.013-0.01-0.013-0.027-0.003-0.039c0.014-0.011,0-0.006,0.024-0.006c0.033-0.001,0.049-0.003,0.053,0.021
			c0.003,0.025-0.01,0.038-0.03,0.057c-0.053-0.005-0.038,0.005-0.035-0.035C50.664,11.125,50.688,11.142,50.671,11.132
			L50.671,11.132z M46.337,11.854l0.036,0.007c-0.009-0.028-0.002-0.021,0.021-0.025c0.021,0.046,0.025,0.044,0.023,0.075
			c0.002,0,0.006,0,0.006,0l0.013-0.002c0.008-0.004,0,0.002,0.013-0.011l0.004,0.011c-0.017,0.016-0.017,0.012-0.042,0.013
			c0.002,0.019,0.004,0.009,0.007,0.015v0.002c0.002,0.013,0,0.006-0.003,0.008l-0.004,0.002c-0.004,0.001-0.004,0.001-0.004,0.001
			s-0.002,0.002-0.004,0.005C46.398,11.96,46.4,11.96,46.4,11.972c-0.027-0.008-0.021,0.01-0.039,0.012
			c-0.022,0.002-0.007,0.002-0.007-0.006c0-0.01,0.028-0.02-0.021-0.031c-0.005,0-0.005,0-0.005,0
			C46.356,11.917,46.285,11.938,46.337,11.854L46.337,11.854z M46.985,11.874l0.002-0.022c-0.022-0.026-0.036-0.011-0.002-0.011
			c-0.015-0.016-0.021-0.016,0.008-0.018c0.013,0.031,0.028,0.004,0.045-0.002c0.01,0.025,0.024,0.015,0.042,0
			c-0.006,0.04-0.005-0.004,0.025,0.024l-0.023,0.009c0.023,0.002,0.029-0.003,0.039,0.01l-0.046,0.023
			c-0.007-0.012-0.015-0.019-0.029-0.016l-0.03,0.002l-0.002-0.021l-0.022,0.004C46.991,11.872,46.993,11.863,46.985,11.874
			L46.985,11.874z M45.542,12.058c0.019,0.015,0.021,0.011,0.027,0.012c0.009,0.006-0.009-0.016,0.012,0.01
			c-0.014,0.017-0.003-0.006-0.003,0.023c0,0.018,0,0.012-0.009,0.024c-0.017-0.013-0.017-0.011-0.017-0.031
			c-0.03,0.019-0.028,0.021-0.037,0.011c-0.002-0.004,0.007-0.006-0.017-0.044C45.544,12.03,45.521,12.04,45.542,12.058
			L45.542,12.058z M45.719,12.06c0.01,0.023,0.02,0.041,0.031,0.049c-0.002,0.002-0.033,0.035-0.059,0.026l-0.014-0.016
			C45.711,12.099,45.688,12.083,45.719,12.06L45.719,12.06z M46.456,12.119l-0.004,0.019c-0.013-0.006-0.009-0.003-0.017-0.011
			L46.456,12.119L46.456,12.119z M46.456,12.119L46.456,12.119L46.456,12.119L46.456,12.119L46.456,12.119z M46.469,12.013
			c0.06,0.098,0.014,0.039,0.039,0.086h-0.052v0.021c-0.019-0.011-0.021-0.024-0.033-0.046
			C46.426,12.065,46.443,11.968,46.469,12.013L46.469,12.013z M50.912,11.129c0.007-0.034-0.014-0.033-0.025-0.036l-0.012-0.003
			c0.02-0.006,0.012-0.003,0.023-0.013c0.008,0.005,0.008,0.007,0.014,0.007c0.037,0.024,0.019-0.006,0.043,0.022
			c0.022,0.021,0.015,0.031,0.021,0.065l-0.018,0.003l0.004,0.022c-0.018-0.005-0.009-0.004-0.021,0h-0.02
			c-0.007-0.025,0.007-0.017-0.023-0.009C50.896,11.164,50.904,11.153,50.912,11.129L50.912,11.129z M46.723,11.951l-0.012-0.03
			l0.021-0.006c0.01-0.006,0.029-0.017,0.043,0.014c0.012-0.008,0.021-0.008,0.03-0.014c0,0.02,0.002,0.014-0.019,0.018
			c0,0.023,0,0.023-0.017,0.031c0.005,0.022-0.003,0.012,0.011,0.014l0.038-0.018c0.004-0.006,0.002,0.004-0.002-0.02l0.014,0.025
			l0.022-0.01c-0.006,0.02,0.011,0.008-0.015,0.014v0.012c0.02,0.005,0.027,0.038-0.004,0.041c-0.025,0.002-0.018-0.018-0.025-0.037
			l-0.078,0.021c0-0.021,0-0.021,0.02-0.023l-0.003-0.012c-0.017-0.004-0.006,0.002-0.024-0.016L46.723,11.951L46.723,11.951z
			 M51.172,11.289C51.174,11.286,51.174,11.291,51.172,11.289L51.172,11.289z M51.037,11.282c0.025-0.003,0.025-0.004,0.04-0.011
			l0.014,0.022c-0.003-0.036,0-0.035,0.005-0.04c0.002-0.024,0-0.007-0.008-0.034c0.012-0.011,0.021-0.022,0.039-0.029
			c0.022,0.011,0.057,0.029,0.059,0.049c0.002,0.025-0.002,0.027-0.023,0.037c0,0.002,0.004,0.003,0.004,0.003l0.004,0.007
			c0.002,0,0.002,0.003,0.002,0.003c0,0.002,0,0.002,0,0.005c-0.028,0.01-0.014-0.008-0.033,0.005
			c-0.001,0.003,0.008,0.015-0.037,0.021c0.021-0.024,0.021-0.024,0-0.033c0.002,0.025,0.008,0.008-0.006,0.021l-0.021-0.006
			c-0.019-0.008-0.008-0.013-0.029,0l-0.002,0.002L51.037,11.282L51.037,11.282z M51.709,11.585c0-0.018,0.027-0.05-0.014-0.05
			l0.004-0.003c0.01-0.003,0.006-0.003,0.016-0.004l0.008-0.021c0.009,0.017-0.008,0.014,0.022,0.011
			c0.012,0.072,0.002,0.011,0.029,0.041l-0.012,0.004c-0.012,0.013-0.002,0.016,0.009,0.018h0.007
			c-0.011,0.034,0.009,0.039-0.031,0.041C51.731,11.622,51.715,11.622,51.709,11.585L51.709,11.585z M51.867,11.579
			c-0.004-0.044,0.052-0.032,0.06-0.027c0.011,0.008,0.015,0.011,0.017,0.025l-0.002,0.02
			C51.914,11.653,51.872,11.613,51.867,11.579L51.867,11.579z M52.209,11.56c0.01,0.004,0.01,0.004,0.018,0.008
			c0.02,0.012-0.006,0.01,0.024,0.01c-0.003,0.021-0.007,0.018-0.007,0.04l-0.023,0.003c-0.006-0.021-0.01-0.007-0.015-0.025
			L52.209,11.56L52.209,11.56z M45.209,12.222c0.017-0.009,0.023,0.002,0.037,0.01l0.021,0.006c-0.035,0.015-0.008,0.02-0.042,0.041
			c-0.009,0.006-0.019,0.004-0.026,0L45.209,12.222L45.209,12.222z M45.126,12.163c-0.008,0.009-0.008,0.012-0.012,0.02
			c-0.007,0.014-0.01,0.011-0.018,0.023c-0.023-0.013-0.034-0.013-0.047-0.023l0.008-0.012l0.001-0.008l0.004-0.006
			C45.073,12.138,45.086,12.099,45.126,12.163L45.126,12.163z M45.63,12.272C45.64,12.271,45.632,12.272,45.63,12.272L45.63,12.272z
			 M45.623,12.202c0.021,0.004,0.032,0.016,0.049,0.029c0.01,0.01,0-0.002,0.012,0.011c-0.011,0.006-0.028,0.011-0.046,0.023
			l-0.004,0.003c-0.004,0.002-0.004,0.004-0.004,0.004h-0.002c0,0-0.019-0.004-0.019-0.007
			C45.598,12.251,45.615,12.218,45.623,12.202L45.623,12.202z M45.385,12.288c0.006-0.002,0.006-0.004,0.015-0.01l0,0l0.012-0.006
			l0.006-0.002c0.032-0.005-0.012-0.005,0.051,0.014c0.009,0.063-0.015,0.006-0.033,0.051c-0.004,0.01-0.003,0.014-0.009,0.026
			l-0.024-0.024v-0.002l-0.006-0.014c-0.003-0.004-0.003-0.004-0.005-0.012C45.385,12.302,45.385,12.298,45.385,12.288
			L45.385,12.288z M44.926,12.274c0.016,0,0.024,0.003,0.037,0.008c-0.011-0.025-0.005-0.008-0.007-0.036
			c0.027-0.004,0.019-0.005,0.034,0.004l0.013,0.009c0.03,0.02,0.04,0.041,0.034,0.066c-0.004,0.006-0.004,0.01-0.004,0.012
			s0,0.004,0,0.004c0,0.008,0.006,0-0.006,0.018c-0.031,0.043-0.004,0.031-0.031,0.041c-0.01-0.057-0.013-0.025-0.05-0.064
			c-0.003-0.002-0.021-0.027-0.021-0.027C44.924,12.286,44.926,12.298,44.926,12.274L44.926,12.274z M44.436,12.813
			c0.011-0.011,0.005-0.008,0.005-0.02c0.006,0.004,0.006-0.008,0.012,0.016l0.015-0.003c-0.005,0.055-0.008,0.075-0.046,0.078
			c-0.006-0.03-0.011-0.003-0.019-0.048C44.419,12.827,44.431,12.823,44.436,12.813L44.436,12.813z M43.7,12.68
			c0.093,0.198-0.159,0.323-0.273,0.265c-0.018,0.009-0.026,0-0.035-0.01c-0.033-0.014-0.044-0.09-0.038-0.116
			c0.034-0.146,0.054-0.153,0.169-0.22C43.581,12.565,43.674,12.628,43.7,12.68L43.7,12.68z M46.658,11.356
			c0.012-0.01,0.014-0.004,0.024-0.021c0.022,0.039-0.004,0.018,0.013,0.053c0.021-0.023,0-0.02,0.056-0.053
			c0.017,0.034-0.012,0.057-0.046,0.078c-0.012-0.015-0.016,0.006-0.031-0.006l-0.016,0.029
			C46.658,11.424,46.639,11.384,46.658,11.356L46.658,11.356z M47.333,11.253c0.033,0.009,0.021-0.006,0.075,0.005
			c-0.008,0.019-0.018,0.046-0.021,0.065c-0.021-0.002-0.004-0.002-0.03,0.004c-0.008-0.018-0.021-0.021-0.023-0.036
			C47.327,11.267,47.349,11.291,47.333,11.253L47.333,11.253z M48.809,10.962l0.033-0.005c0.006,0.021,0.004,0.007,0.023,0.036
			c-0.018,0.008-0.011-0.012-0.009,0.016c-0.017-0.008-0.015-0.002-0.023-0.006C48.79,10.944,48.828,10.992,48.809,10.962
			L48.809,10.962z M45.971,11.424c0.007-0.005,0.007-0.009,0.012-0.014c0.009-0.005,0.015-0.009,0.021-0.012
			c0.012,0.025,0.02,0.035,0.008,0.07c-0.015-0.003-0.008,0-0.015-0.004C45.982,11.454,45.978,11.442,45.971,11.424L45.971,11.424z
			 M46.414,11.36c0.021-0.006,0.034,0,0.05,0.006c0.019,0.004,0.005-0.002,0.022,0.004l0.024,0.016
			c-0.023,0.022,0,0.002-0.023,0.014l-0.019,0.014l-0.009-0.005c-0.012,0.002-0.019,0.005-0.024,0.007
			C46.43,11.388,46.432,11.39,46.414,11.36L46.414,11.36z M47.189,11.186c0.048,0.026,0.021,0.034,0.021,0.081
			c-0.004,0.01,0.004,0-0.004,0.01c-0.01,0.013,0.004-0.005-0.021,0.008c-0.012,0.002,0.005-0.001-0.017,0.007
			c-0.008-0.012-0.005-0.005-0.008-0.026c-0.014,0.018,0,0.002-0.016,0.014v-0.057C47.18,11.214,47.157,11.201,47.189,11.186
			L47.189,11.186z M47.322,11.138c0.026-0.002,0.052,0.04,0.06,0.053c-0.021-0.007-0.034-0.002-0.049-0.016
			C47.325,11.169,47.304,11.141,47.322,11.138L47.322,11.138z M47.509,11.099c0.007,0.006,0.015,0.006,0.024,0.009
			c0.014,0.007,0.002,0.007,0.021,0.008l-0.004,0.036c-0.006,0.021-0.002,0.034-0.035,0.027
			C47.516,11.115,47.516,11.136,47.509,11.099L47.509,11.099z M48.13,11.114l0.019-0.006c0.016,0.043,0.025-0.013,0.049,0.035
			c0.011,0.022,0,0.037-0.01,0.058c-0.012-0.004-0.005-0.004-0.021-0.001c-0.004-0.008-0.006-0.012-0.008-0.018
			C48.128,11.142,48.126,11.159,48.13,11.114L48.13,11.114z M48.507,11.061c0.01,0.021,0.014,0,0.026,0.013
			c0.002,0.005,0.004,0.022,0.01,0.033c-0.03,0.008-0.028,0.016-0.047,0.025C48.486,11.096,48.444,11.071,48.507,11.061
			L48.507,11.061z M46.098,11.289l0.007,0.005h0.002c0.014,0.001,0.002,0,0.013,0.001h0.005l0,0h0.007
			c0.034-0.001,0.03-0.021,0.054,0.009c-0.01,0.01-0.004,0-0.006,0.01l-0.023,0.051C46.133,11.33,46.12,11.33,46.098,11.289
			L46.098,11.289z M47.948,11.021c-0.002-0.02,0.012-0.023,0.029-0.027c0.007,0.031,0.009,0.055,0.032,0.08
			c0.006,0.006,0.006-0.004,0.008,0.016c-0.052,0.007,0-0.021-0.05-0.005C47.958,11.038,47.96,11.101,47.948,11.021L47.948,11.021z
			 M46.02,11.581c-0.026,0.005-0.006,0.021-0.022-0.004c0.061-0.018,0.058-0.053,0.103-0.03c-0.016,0.017-0.018,0.096-0.057,0.07
			C46.032,11.612,46.025,11.595,46.02,11.581L46.02,11.581z M46.318,11.508c0.018-0.005,0.038-0.012,0.055-0.018
			c0,0.01,0,0.009,0,0.018c0.01,0.069-0.012,0.031,0.003,0.063c-0.021,0.006-0.043-0.01-0.048-0.018
			C46.314,11.535,46.32,11.552,46.318,11.508L46.318,11.508z M46.835,11.405c0.045-0.023,0.054,0.053,0.054,0.053
			c0.01-0.018-0.002-0.008,0.008-0.027c0.006,0.02,0,0.016,0.01,0.038c-0.05,0.027-0.065,0.022-0.097-0.028
			C46.831,11.421,46.808,11.415,46.835,11.405L46.835,11.405z M47.526,11.284l0.019,0.021c0.008,0.012,0.01,0.01,0.014,0.028
			c0.004,0.035-0.02,0.038-0.032,0.045l-0.002,0.001c-0.024,0.017-0.001,0.012-0.028,0.019
			C47.438,11.323,47.486,11.247,47.526,11.284L47.526,11.284z M47.95,11.201c0.01-0.021,0.042-0.013,0.067-0.018
			c0,0.03,0,0.014-0.016,0.062c-0.006,0.013,0.012,0.006-0.014,0.013l0.004,0.021c-0.036-0.027,0-0.007-0.044-0.012
			C47.948,11.251,47.946,11.212,47.95,11.201L47.95,11.201z M47.714,11.312c0.041-0.006,0.034-0.01,0.065-0.021
			c0,0.015,0.008,0.036,0.009,0.044c0.002,0.016-0.007,0.021-0.005,0.044c-0.04,0.007-0.044,0.026-0.06-0.017
			C47.708,11.317,47.71,11.347,47.714,11.312L47.714,11.312z M48.396,11.2c0.013,0,0.063,0.014,0.069,0.023
			c0.032,0.038-0.062,0.098-0.093,0.035c-0.006-0.008-0.002-0.001-0.006-0.014C48.367,11.229,48.392,11.201,48.396,11.2L48.396,11.2
			z M48.64,11.161c0.018-0.008,0.016-0.016,0.068,0c-0.002,0.018-0.007,0.018-0.002,0.024c0.005,0.017,0.005-0.007,0.005,0.008
			c0.002,0.023,0,0.013,0,0.036c-0.034,0.016-0.067,0.016-0.073-0.041C48.634,11.175,48.638,11.172,48.64,11.161L48.64,11.161z
			 M51.241,11.521c0,0,0,0,0.002,0.001C51.265,11.526,51.23,11.524,51.241,11.521L51.241,11.521z M51.241,11.42
			C51.24,11.42,51.24,11.419,51.241,11.42L51.241,11.42z M51.22,11.469c-0.008-0.023-0.016-0.035-0.024-0.059l0.022,0.009
			c0.006,0.005,0.002,0.001,0.006,0.012l0.018-0.004c0-0.003,0-0.006,0-0.006s0.004-0.001,0.009-0.001l0,0l0.034-0.005
			c-0.014,0.05,0.009,0.021,0.015,0.05c0.002,0.02-0.024,0.025-0.028,0.06l-0.021-0.003c-0.005,0-0.005,0-0.009,0
			C51.232,11.505,51.228,11.49,51.22,11.469L51.22,11.469z M51.481,11.539v0.002C51.509,11.524,51.473,11.55,51.481,11.539
			L51.481,11.539z M51.472,11.474l0.033-0.037c0.015,0.02,0.032,0.066,0,0.086c-0.009,0.007-0.012,0.007-0.009,0.006
			c-0.003,0.001-0.004,0.001-0.008,0.004c-0.003,0.003-0.005,0.006-0.007,0.007c0.004-0.015,0.007-0.004-0.007-0.01l-0.003-0.003
			l-0.016-0.005C51.458,11.505,51.462,11.485,51.472,11.474L51.472,11.474z M51.643,11.469c-0.01,0.015-0.01,0.016-0.006,0.036
			l-0.012-0.018c0.003,0.037,0.004,0.042-0.03,0.051c-0.005-0.031-0.015-0.03-0.019-0.061
			C51.608,11.465,51.602,11.474,51.643,11.469L51.643,11.469z M51.725,11.445c-0.02,0.003-0.012,0.005-0.029-0.001
			c0.004-0.011,0.004-0.008,0.002-0.022c0.027-0.007,0.008-0.007,0.045-0.012c0.032,0.046,0.019,0.01,0.025,0.059
			c-0.023,0.004-0.015,0-0.028,0.009C51.729,11.454,51.731,11.474,51.725,11.445L51.725,11.445z M51.855,11.45
			c0.008-0.006,0.012-0.008,0.021-0.014c0.009,0.028,0.015,0.036,0.003,0.071c-0.012-0.001-0.003,0-0.012-0.003
			c-0.013-0.01-0.021-0.021-0.027-0.04C51.846,11.457,51.849,11.456,51.855,11.45L51.855,11.45z M44.68,12.544
			C44.684,12.542,44.684,12.544,44.68,12.544L44.68,12.544z M44.629,12.521c0.055,0.024,0.031-0.02,0.047,0.02
			c0.004,0.002,0.004,0.004,0.004,0.004s0,0.001,0,0.004c-0.004,0.01,0-0.003-0.004,0.01l-0.01,0.024
			c-0.025-0.013-0.043-0.034-0.053-0.067C44.623,12.519,44.621,12.516,44.629,12.521L44.629,12.521z M44.837,12.501
			c0.022-0.004,0.033,0.021,0.061,0.025v0.018c-0.042,0.016-0.024,0.009-0.046,0.028c-0.008-0.039,0.008-0.003-0.024-0.02
			C44.825,12.542,44.817,12.504,44.837,12.501L44.837,12.501z M48.946,11.188c-0.007-0.003-0.006-0.003-0.02-0.003l-0.006-0.015
			c-0.019,0.008-0.004,0.007-0.026,0.015c0.01-0.018,0.012-0.008,0.015-0.03c0.037,0,0.051,0.011,0.079,0.023
			c0.005,0.063,0.004,0.03-0.025,0.023c-0.003,0.02,0,0.011-0.011,0.02L48.946,11.188L48.946,11.188z M49.997,11.042
			c-0.017-0.008-0.022-0.014-0.028-0.034c-0.002-0.038,0.02-0.023,0.028-0.023c0.019-0.006,0.009-0.007,0.031-0.012
			C50.034,11.009,50.084,11.079,49.997,11.042L49.997,11.042z M50.498,10.952c0.002,0.026,0.008,0.025,0.014,0.049
			c-0.021-0.002-0.014,0-0.025-0.014l-0.018,0.02c0,0-0.01,0.029-0.016-0.021C50.5,10.968,50.457,10.968,50.498,10.952
			L50.498,10.952z M46.563,11.058c0.01-0.006,0.015-0.01,0.031-0.011c0.007,0.035,0.004,0.011,0.017,0.037
			c0.014-0.011,0.013,0.009,0.004-0.017c0.016,0.006,0.012,0.006,0.023,0.022l-0.012,0.011c-0.002,0.004-0.003,0.004-0.003,0.006
			c-0.013,0.008-0.015,0.009-0.029,0.013C46.573,11.099,46.566,11.095,46.563,11.058L46.563,11.058z M46.923,10.978
			c0.009,0.004,0.013,0.004,0.019,0.008c0.02,0.012-0.006,0.01,0.023,0.01c0,0.02-0.006,0.014-0.004,0.039l-0.025,0.002
			c-0.008-0.021-0.013-0.008-0.017-0.027L46.923,10.978L46.923,10.978z M46.549,11.22c0.024-0.007,0.04,0,0.063-0.008
			c0.013,0.035,0.014,0.021-0.006,0.035c0,0,0.006,0.002,0.006,0l0.014-0.008l0.002,0.025C46.595,11.276,46.573,11.258,46.549,11.22
			L46.549,11.22z M47.684,10.984c0.02,0.013,0.02,0.007,0.036,0.001c0.02,0.023,0.02,0.016,0.027,0.035l-0.016,0.014
			c-0.026-0.014-0.012-0.021-0.048-0.019C47.684,11.003,47.686,11.001,47.684,10.984L47.684,10.984z M47.121,10.937
			c0.016,0.023,0.008,0.023,0.025,0.025c-0.01,0.023-0.026,0.03-0.044,0.046C47.046,10.925,47.101,10.939,47.121,10.937
			L47.121,10.937z M47.486,10.853l0.017-0.003c0.021-0.001,0,0.009,0.034,0.009c-0.002,0.026-0.011,0.035-0.026,0.047
			C47.5,10.891,47.492,10.879,47.486,10.853L47.486,10.853z M46.406,11.209c0.017-0.003,0.008,0,0.021,0.003
			c0.01,0.005,0.016,0.012,0.05-0.006c-0.004,0.022,0,0.006-0.009,0.016v0.002l-0.003,0.009l-0.002,0.005
			c-0.004,0.01,0.002,0-0.004,0.014c-0.002,0.008,0,0.004-0.008,0.016C46.43,11.241,46.43,11.247,46.406,11.209L46.406,11.209z
			 M46.839,11.175L46.839,11.175C46.864,11.159,46.829,11.184,46.839,11.175L46.839,11.175z M47.021,11.106l-0.008-0.035
			c0.019,0.002,0.008,0,0.019,0.006c0.034,0.01,0.034,0.005,0.06,0.01c-0.003,0.021-0.008,0.027-0.018,0.036
			c-0.014,0.013-0.024,0.021-0.036,0.028C47.032,11.123,47.029,11.133,47.021,11.106L47.021,11.106z M47.37,11.023
			c-0.02,0.015-0.005,0.009-0.028,0.015l-0.007-0.01c0.007-0.037,0.002,0.02,0.009-0.02c-0.011-0.001-0.005,0-0.011-0.002
			c-0.019-0.01-0.017-0.021-0.019-0.033c0.013,0.005,0.008,0.005,0.024,0.004l0.003,0.016c0.002,0,0.015,0,0.015,0
			c0.017-0.002,0-0.02,0.014-0.002c0.017,0.016-0.017,0.017,0.015,0.024l0.002,0.017l-0.014,0.02L47.37,11.023L47.37,11.023z
			 M48.977,11.028c0.008,0.008,0.008,0.008,0.016,0.02h0.001c0.004,0.004,0.005,0.006,0.005,0.006L49,11.073
			c0.002,0.022,0,0.005,0.007,0.02c-0.044,0.003-0.019-0.025-0.055,0.006c-0.006-0.021-0.009-0.013-0.011-0.025
			C48.939,11.048,48.958,11.034,48.977,11.028L48.977,11.028z M49.39,10.966c0.05-0.004,0.014-0.009,0.032-0.011
			c0.01,0,0.036,0.011,0.037,0.018c0.004,0.021-0.012,0.019-0.01,0.046l-0.01,0.002c-0.006-0.012-0.006-0.008-0.008-0.012
			l-0.01-0.012c-0.014-0.016-0.002-0.013-0.027-0.01L49.39,10.966L49.39,10.966z M46.705,11.166c-0.035,0.009,0,0.012-0.019,0.009
			c-0.013-0.003-0.004-0.003-0.008-0.016c-0.015-0.027-0.021-0.014-0.009-0.045l0.023,0.009h0.002
			c0.017,0.005,0.01-0.019,0.017,0.015c0.015-0.014,0.015-0.016,0.033-0.029c0.008,0.066-0.014,0.043,0.012,0.049
			c-0.012,0.018-0.012,0.009-0.033,0.026L46.705,11.166L46.705,11.166z M46.81,11.155c0.006-0.015,0.01-0.036,0.018-0.048
			l0.036-0.036c0.013,0.019,0.033,0.066,0,0.086c-0.01,0.007-0.012,0.007-0.012,0.004c-0.004,0.003-0.006,0.005-0.006,0.005
			c-0.007,0.005-0.007,0.006-0.007,0.009c0.002-0.018,0.006-0.004-0.008-0.011l-0.004-0.003L46.81,11.155L46.81,11.155z
			 M47.479,10.966c-0.01-0.02,0.006-0.014,0.024-0.022l-0.007,0.019l0.055-0.007c-0.016,0.015-0.012,0.009-0.021,0.013
			c0,0.002,0.005,0.006,0.005,0.006c0.016,0.027-0.02-0.004-0.018,0.039l-0.017,0.003C47.479,10.957,47.492,10.992,47.479,10.966
			L47.479,10.966z M47.932,10.931l-0.008-0.025c-0.002-0.015,0-0.016-0.002-0.038c0.076,0.034,0.032,0.011,0.072,0.023
			c-0.017,0.024-0.021,0.008-0.024,0.04c-0.016,0-0.016,0-0.023,0c-0.012,0.004,0.004,0.004-0.007,0.004
			C47.932,10.935,47.935,10.935,47.932,10.931L47.932,10.931z M49.139,10.927c0.008,0.004,0.01,0.01,0.025,0.017
			c0.011,0,0.033,0,0.044,0.003c0,0.016-0.003,0.041-0.016,0.049c-0.01,0.006-0.018-0.008-0.028-0.01
			c-0.016-0.004-0.016,0.012-0.038-0.018C49.145,10.955,49.146,10.985,49.139,10.927L49.139,10.927z M49.986,10.796
			c0.029,0.006,0.011,0.006,0.023,0.018c0.006,0.006,0.009,0.009,0.011,0.009c-0.002-0.001-0.005-0.005,0.011,0.001h0.007
			l0.018,0.006c0.015,0.005,0.015,0.011,0.021,0.023c-0.026,0.018-0.001-0.003-0.022,0.006c-0.02,0.009-0.004,0.009-0.029,0.02
			C50.016,10.834,49.995,10.858,49.986,10.796L49.986,10.796z M49.628,10.979c0.005,0.009,0.003,0,0.005,0.015
			c0,0.008,0,0.015,0.002,0.021l-0.021-0.006c-0.027-0.008-0.015-0.004-0.021-0.018c-0.015-0.027-0.027-0.021-0.03-0.051
			C49.579,10.937,49.607,10.901,49.628,10.979L49.628,10.979z M50.185,10.968c0.013-0.021-0.007-0.024-0.012-0.05l0.063-0.009
			c0.019,0.025,0.017,0.02,0.023,0.064l-0.01-0.008c-0.008-0.006,0-0.002-0.01-0.006c0,0.01,0.002,0-0.002,0.013
			c-0.002,0.009-0.002,0.006-0.006,0.012c-0.009-0.021-0.007-0.019-0.021-0.027l-0.005,0.024l-0.001-0.003L50.185,10.968
			L50.185,10.968z M48.27,10.96c-0.007-0.023-0.015-0.025-0.009-0.043c0.007-0.027,0.016,0.002,0.012-0.038
			c0.018,0.012,0.01,0.003,0.02,0.02c0.045-0.006,0.043-0.001,0.075,0.002c0,0.036-0.019,0.036-0.03,0.046
			c-0.022,0.014-0.019,0.023-0.045,0.02L48.27,10.96L48.27,10.96z M48.786,10.841c0.014,0.002,0.004,0,0.014,0.009
			c0.005,0.003,0.009,0.005,0.009,0.007c0.015,0.006,0.021,0.002,0.033,0.006l0.006,0.002c0.016,0.006,0.009,0.012,0.039,0.006
			c-0.012,0.031,0,0.014-0.029,0.039l-0.005,0.009c-0.015,0.011-0.003,0.007-0.019,0.011c-0.014-0.027,0,0.006-0.018-0.018
			C48.802,10.893,48.799,10.856,48.786,10.841L48.786,10.841z M49.756,10.891c0.02-0.012-0.009,0.006,0.02,0
			c0.018-0.001,0.018-0.021,0.031,0c0.01,0.015,0.005,0.027,0.019,0.046c-0.042,0.007-0.023,0.021-0.054,0.003
			c-0.004,0.022,0,0.016-0.02,0.021C49.747,10.943,49.738,10.901,49.756,10.891L49.756,10.891z M46.002,11.247
			c0.018-0.01,0.002-0.002,0.018-0.01c0.013-0.009,0.01,0.004,0.013-0.014c-0.021,0.005-0.041,0.004-0.058-0.002
			c0.017-0.041,0.003-0.002,0.017-0.02c0.006-0.009,0-0.005,0.002-0.019c0.03-0.001,0.036,0.002,0.062-0.013
			c0,0.008,0.01,0.021,0.01,0.026c0.002,0.015-0.002,0.015-0.01,0.031c-0.001,0.011-0.003,0.021-0.014,0.03
			c-0.009,0.008-0.002,0.008-0.014,0.012c-0.007-0.012-0.002-0.004-0.002-0.021C46.004,11.259,46.014,11.259,46.002,11.247
			L46.002,11.247z M48.568,10.978C48.57,10.974,48.568,10.978,48.568,10.978L48.568,10.978z M48.517,10.925c0,0.001,0,0.002,0,0.002
			v0.002l0.004,0.002c0.003,0.008-0.004,0.008,0.007,0.009c0.021,0.004-0.004,0,0.01-0.009h0.012c0.015,0,0.02,0.016,0.028,0.024
			c0,0.002-0.003,0.002-0.003,0.002L48.57,10.96v0.002c-0.004,0.011-0.004,0.012-0.002,0.016c-0.005,0-0.005,0.001-0.012,0.007
			l-0.004,0.003c-0.016,0.016,0.006,0.008-0.016,0.014c-0.017,0.007-0.014-0.002-0.039,0C48.494,10.964,48.471,10.943,48.517,10.925
			L48.517,10.925z M51.271,11.183c0.044-0.008-0.014,0.006,0.028-0.023c0.038-0.021,0.027,0.012,0.041-0.018l0.027,0.016
			c0.015,0.009-0.008,0.007,0.019,0.004c-0.002,0.02,0.014,0.008-0.014,0.014l0.02,0.019c-0.034,0.035-0.026,0.028-0.018,0.044
			l-0.009-0.005c-0.019,0-0.02,0.054-0.055,0c-0.021-0.031,0.004-0.005-0.018-0.032c-0.011-0.02,0.006-0.015-0.02-0.007
			L51.271,11.183L51.271,11.183z M51.849,11.639c0.013-0.003,0.015-0.007,0.032-0.009c0.004,0.033,0.004,0.009,0.016,0.035
			c0.015-0.006,0.012,0.008,0.005-0.016c0.018,0.008,0.013,0.006,0.025,0.023l-0.013,0.01c-0.003,0.002-0.003,0.004-0.006,0.007
			c-0.011,0.009-0.016,0.009-0.029,0.014C51.861,11.681,51.855,11.678,51.849,11.639L51.849,11.639z M51.963,11.743
			c-0.012-0.03-0.014-0.016-0.008-0.047l0.024,0.008h0.004c0.016,0.004,0.006-0.018,0.016,0.015
			c0.014-0.012,0.014-0.015,0.031-0.026c0.008,0.065-0.016,0.045,0.014,0.049c-0.01,0.017-0.014,0.01-0.031,0.029l-0.022-0.021
			c-0.035,0.009-0.001,0.01-0.019,0.009C51.961,11.757,51.969,11.757,51.963,11.743L51.963,11.743z M45.892,12.255
			c0.026,0.029,0.007,0.018,0.026,0.05l-0.062,0.032c-0.02,0-0.003-0.032,0.006-0.047C45.87,12.274,45.874,12.267,45.892,12.255
			L45.892,12.255z M45.285,12.366l-0.014,0.008c0.006,0.018,0.004,0.01,0.006,0.023c-0.016,0.004-0.018,0.002-0.029,0.007
			c-0.022,0.006-0.014,0.009-0.033,0.01l-0.012-0.02C45.241,12.369,45.245,12.298,45.285,12.366L45.285,12.366z M45.581,12.447
			C45.591,12.447,45.581,12.45,45.581,12.447L45.581,12.447z M45.574,12.382c0.021,0.002,0.035,0.013,0.049,0.026
			c0.013,0.012,0-0.002,0.015,0.015c-0.015,0.002-0.032,0.006-0.051,0.018l-0.005,0.004c-0.001,0.003-0.001,0.003-0.001,0.003
			h-0.003c0,0-0.018-0.003-0.02-0.007C45.551,12.428,45.567,12.395,45.574,12.382L45.574,12.382z M46.168,12.272
			c0.004-0.011,0.007-0.011,0.007-0.021c-0.002-0.01-0.003-0.006-0.003-0.01l-0.004-0.006c-0.007-0.007-0.007-0.023-0.003-0.036
			c0.012,0.002,0.01,0.006,0.024,0.013c0.004-0.02-0.013-0.005,0.035-0.012c0,0.001,0.006,0.015,0.006,0.015
			c0,0.016-0.006,0.006-0.01,0.025l-0.016-0.005l-0.002-0.003c0,0.021-0.003,0.003-0.003,0.013
			c-0.005,0.022-0.002,0.004,0.006,0.021c-0.017,0.006-0.011,0.002-0.013,0.02h-0.013C46.175,12.272,46.181,12.278,46.168,12.272
			L46.168,12.272z M45.297,12.447c0.004,0,0.008-0.003,0.01-0.007l0.004-0.001l0.01-0.008l0.006-0.003
			c0.036-0.004-0.008-0.002,0.055,0.016c0.004,0.063-0.019,0.007-0.036,0.052c-0.004,0.01,0,0.016-0.011,0.025l-0.02-0.021
			l-0.002-0.004l-0.008-0.013c0-0.004,0-0.004-0.004-0.01C45.297,12.463,45.297,12.46,45.297,12.447L45.297,12.447z M45.297,12.447
			L45.297,12.447C45.285,12.456,45.311,12.429,45.297,12.447L45.297,12.447z M45.385,12.286v0.002
			C45.375,12.294,45.399,12.269,45.385,12.286L45.385,12.286z M44.741,12.696c0.021,0.016-0.002,0.007,0.021,0.014
			c-0.012,0.032-0.014,0.043-0.042,0.051c-0.009-0.022-0.027-0.031-0.027-0.035C44.691,12.72,44.701,12.667,44.741,12.696
			L44.741,12.696z M45.071,12.529c0.033,0,0.005-0.003,0.025,0.005c0.023,0.011-0.005,0.006,0.021,0.011
			c0,0.037-0.004,0.046-0.028,0.054h-0.004c-0.028,0.008-0.006,0.01-0.036,0.02c-0.009-0.064-0.022-0.027-0.004-0.084
			c0.004-0.008,0.004-0.014,0.007-0.024C45.09,12.508,45.073,12.516,45.071,12.529L45.071,12.529z M52.053,11.505
			c0.014,0.02,0.032,0.027,0.042,0.049l-0.01,0.018c-0.019,0-0.024-0.009-0.047-0.01c0-0.02-0.008-0.032,0-0.043L52.053,11.505
			L52.053,11.505z M44.531,12.663c0.014,0.006,0.012,0.01,0.025,0.013c-0.004,0.032-0.012,0.007-0.017,0.028l-0.003,0.002v0.004
			v0.002l-0.021,0.008c0-0.01,0.006-0.01-0.004-0.025l-0.004-0.007c-0.028-0.023-0.033,0.015-0.046-0.011
			C44.492,12.665,44.5,12.653,44.531,12.663L44.531,12.663z M44.034,11.034c0-0.002,0-0.002,0-0.003
			c0.012-0.12-0.233-0.076-0.354-0.046c0.158-0.16,0.407-0.348,0.588-0.475c0,0.061,0.003,0.131,0.003,0.235
			c0,0.011,0,0.044,0,0.073c-0.021,0.006-0.046,0.015-0.08,0.03c0.167,0.013,0.432,0.09,0.548,0.218
			c0.002,0.004,0.004,0.002,0.012,0.002c0-0.009,0-0.006-0.002-0.011v0.002l-0.028-0.062c0-0.002-0.005-0.002-0.005-0.002
			c0.088-0.04,0.296-0.171,0.331-0.237c0.23-0.415-0.08-0.233,0.006-0.759c0.156-0.051,0.461-0.265,0.65-0.341
			c0.103-0.041,0.153-0.073,0.27-0.11c0.187-0.059,0.633-0.233,0.829-0.244c-0.017,0.026-0.028,0.051-0.024,0.055
			c0.008-0.006,0.028-0.029,0.05-0.055l0,0c0,0,0,0,0-0.003c0.037-0.044,0.079-0.095,0.079-0.095
			c0.063-0.09,0.017-0.042,0.142-0.119c0.095-0.059,0.522-0.332,0.62-0.365c0.086,0.084,0.058,0.371,0.011,0.423
			c-0.137,0.16-0.292,0.164-0.491,0.197c-0.087,0.015-0.329,0.062-0.412,0.018c0.034,0.075,0.361,0.03,0.417,0.026
			c0.219-0.026,0.362-0.026,0.531-0.189c0.002-0.005,0.008-0.008,0.01-0.012l0.015-0.003c0.674-0.039,1.341,0.198,1.954,0.489
			l0.004,0.016c0.006,0,0.015,0,0.021-0.004c0.074,0.036,0.147,0.072,0.219,0.107l0.004,0.016c0.004-0.004,0.012-0.004,0.018-0.005
			c0.058,0.028,0.114,0.056,0.17,0.085c0.006,0.004,0.011,0.008,0.021,0.012l0.006,0.02c0.004-0.002,0.012-0.004,0.02-0.006
			c0.054,0.025,0.108,0.058,0.167,0.088l0.007,0.02c0.002-0.004,0.011-0.004,0.017-0.007c0.113,0.061,0.234,0.124,0.357,0.193
			l0.002,0.003c0,0,0.003,0,0.003-0.002c0.353,0.189,0.732,0.383,1.004,0.457c0.25,0.069,0.305,0.054,0.521-0.053
			c0.015-0.008,0.032-0.016,0.047-0.022c0.1,0.138,0.159,0.26,0.195,0.435c0.026,0.127,0.017,0.258-0.022,0.381
			c-0.063-0.031-0.114-0.053-0.18-0.078c-1.655-0.668-3.526-0.891-5.278-0.52c-0.633,0.133-1.545,0.432-2.103,0.771L44.034,11.034z"
			/>
		<path fill-rule="evenodd" clip-rule="evenodd" fill="#1D4B72" d="M44.203,10.862c0.013-0.072,0.075-0.336,0.076-0.373
			c0.003-0.073,0.039-0.082,0.039-0.15v0.02c0.059-0.17,0.064-0.209,0.161-0.383c0.024-0.049,0.139-0.227,0.17-0.331
			c0.105,0.044,0.135,0.104,0.221,0.198c0.142,0.158,0.244,0.459,0.268,0.671c0.007,0.086,0.017,0.114-0.046,0.159
			c-0.061,0.046-0.081,0.076-0.142,0.129c-0.031,0.024-0.182,0.206-0.234,0.25L44.203,10.862z"/>
		<path fill-rule="evenodd" clip-rule="evenodd" fill="#1D4B72" d="M50.675,10.171c-0.024-0.011-0.046-0.021-0.067-0.034
			c-0.224,0.125-0.499,0.147-0.077-0.041c-0.044-0.024-0.089-0.048-0.13-0.07c-0.633,0.387-0.875,0.376-0.094-0.046
			c-0.035-0.021-0.066-0.037-0.101-0.055c-0.282,0.246-0.669,0.291-0.098-0.049c-0.038-0.02-0.077-0.037-0.115-0.057
			c-0.334,0.282-0.915,0.232-0.104-0.053c-0.042-0.02-0.088-0.04-0.132-0.061c-0.144,0.327-0.916,0.156-0.103-0.048
			c-0.037-0.018-0.068-0.031-0.104-0.047c0.241-0.073,0.579-0.429,0.823-0.445c0.007,0.348,0.715,0.669,0.716,1.026
			c-0.063,0.008-0.187,0.029-0.263,0.062c-0.024-0.015-0.053-0.03-0.08-0.044C50.652,10.264,50.473,10.307,50.675,10.171z"/>
		<path fill-rule="evenodd" clip-rule="evenodd" fill="#1D4B72" d="M44.352,12.917c-0.021-0.082-0.018-0.035,0.104-0.047
			c0.124-0.012,0.479-0.168,0.531-0.271c0.134-0.266,0.248-0.33,0.223-0.643c-0.019-0.26,0.014-0.208-0.198-0.432
			c-0.064-0.067-0.103,0.048-0.063,0.146c0.048,0.11,0.114,0.39,0.023,0.484c-0.16,0.163-0.264,0.321-0.492,0.364
			C44.286,12.553,44.326,12.813,44.352,12.917z"/>
	</g>
	<circle fill-rule="evenodd" clip-rule="evenodd" fill="#1D4B72" cx="43.595" cy="12.755" r="0.126"/>
</g>
</svg>
